<svg width="800" height="152" inkscape:version="1.0.2 (e86c870879, 2021-01-15, custom)" sodipodi:docname="Final_Fantasy_wordmark.svg" version="1.0" viewBox="0 0 811.6 163.6" xml:space="preserve" xmlns="http://www.w3.org/2000/svg" xmlns:cc="http://creativecommons.org/ns#" xmlns:dc="http://purl.org/dc/elements/1.1/" xmlns:inkscape="http://www.inkscape.org/namespaces/inkscape" xmlns:rdf="http://www.w3.org/1999/02/22-rdf-syntax-ns#" xmlns:sodipodi="http://sodipodi.sourceforge.net/DTD/sodipodi-0.dtd" xmlns:xlink="http://www.w3.org/1999/xlink"><sodipodi:namedview bordercolor="#ffffff" borderopacity="1" gridtolerance="10" guidetolerance="10" inkscape:current-layer="Layer_1" inkscape:cx="408.55264" inkscape:cy="311.84274" inkscape:pageopacity="0" inkscape:pageshadow="2" inkscape:window-height="1014" inkscape:window-maximized="1" inkscape:window-width="1920" inkscape:window-x="0" inkscape:window-y="36" inkscape:zoom="0.77184472" objecttolerance="10" pagecolor="#ffffff" showgrid="false" fill="#ffffff"/><title>Final Fantasy wordmark</title><metadata fill="#ffffff"><rdf:RDF fill="#ffffff"><cc:Work rdf:about="" fill="#ffffff"><dc:format fill="#ffffff">image/svg+xml</dc:format><dc:type rdf:resource="http://purl.org/dc/dcmitype/StillImage" fill="#ffffff"/><dc:title fill="#ffffff">Final Fantasy wordmark</dc:title></cc:Work></rdf:RDF></metadata>
<g transform="matrix(.9961 0 0 .9851 2.501 2.433)">
	
	<g transform="matrix(1.076 0 0 1.076 -33.97 186.5)">
		<defs fill="#ffffff">
			<path id="cvfa" d="m784.1 8.888v3.646c-4.066-1.018-5.693 5.193-3.959 18.46l4.915 37.65 4.447-37.2c0.5-4.226 0.722-7.488 0.881-9.299 0.507-5.779-0.778-8.987-3.833-9.61v-3.646h19.27v3.958c-3.259 0.205-4.551 1.664-4.902 4.269l-11.06 82.08v45.18c-0.21 5.074 1.331 7.837 4.59 8.225v3.981h-22v-4.288c2.838-0.182 4.271-2.844 4.271-7.918v-50.68l-7.991-67.34c-0.921-7.767-4.135-13.02-6.916-14.1l-0.318-3.358h22.61zm-82.83 95.21 16.5-8.543c-2.03 31.74-1.484 48.4 1.672 50.04 3.157 1.626 4.954 0.818 5.347-2.435 1.848-12.22 1.848-24.51 0-36.94-0.603-6.303-1.825-10.77-3.652-13.44-11.42-17.68-17.94-30.91-19.55-39.66l-0.313-30.2c2.241-10.6 8.344-15.88 18.32-15.88 11.22 0.206 17.11 7.34 17.73 21.38l0.91 19.53-15.28 9.764c0.204-12.21 0.204-23.62 0-34.19 0-5.079-1.178-7.681-3.521-7.789-2.35-0.102-3.492 2.295-3.492 7.189l0.284 30.52c10.4 16.66 17.42 29.47 21.1 38.44 3.646 8.964 4.977 21.77 3.959 38.46-1.012 18.52-7.639 27.65-19.87 27.45-11.81-0.604-18.51-8.748-20.15-24.48v-29.21zm-46.39 53.09v-2.138c2.45-2.446 3.259-11.19 2.45-26.24h-7.638c-1.229 15.05-0.522 23.8 2.138 26.24v2.138h-19.87v-2.138c1.644-0.206 3.003-0.854 4.124-1.969 1.12-1.126 4.532-49.89 10.24-146.3h15.88c7.537 96.43 11.71 145.2 12.54 146.3 0.809 1.115 2.037 1.763 3.652 1.969v2.138zm-4.75-41.51h5.973l-3.049-49.42zm-83.8-109.9h42.76v54.03h-5.188c-1.024-21.77-3.862-34.69-8.554-38.77v125.1c0 4.903 2.241 7.951 6.729 9.169v2.138h-28.42v-2.138c4.874-1.218 7.115-4.38 6.723-9.477v-124.8c-5.107 3.879-8.372 16.8-9.776 38.77h-4.271v-54.03zm-66.55 11.3c0.597-3.671-1.041-5.884-4.903-6.717v-3.959h21.69l11.92 85.13v-75.68c0-3.045-1.229-4.766-3.68-5.181v-4.272h18.64v3.958c-2.634 0.623-3.862 4.897-3.652 12.81v133.7h-14.37l-14.68-95.8v85.75c-0.603 4.459 0.939 6.585 4.591 6.403v3.652h-20.78l0.313-3.368c3.469-0.386 5.085-2.729 4.903-6.995v-129.4zm-51.6 140.1v-2.138c2.452-2.446 3.256-11.19 2.452-26.24h-7.639c-1.226 15.05-0.523 23.8 2.135 26.24v2.138h-19.87v-2.138c1.641-0.206 2.998-0.854 4.118-1.969 1.121-1.126 4.539-49.89 10.25-146.3h15.88c7.536 96.43 11.71 145.2 12.54 146.3 0.811 1.115 2.036 1.763 3.651 1.969v2.138zm-4.743-41.51h5.969l-3.055-49.42zm-82.29-100.1c0-3.253-1.826-4.869-5.5-4.869v-3.959h46.75v50.05h-4.274c-1.433-15.89-3.677-26.72-6.725-32.52-3.055-5.784-7.645-8.776-13.74-8.984v51.87c5.503 1.822 8.344-5.805 8.555-22.89l4.277 0.315v62.55h-4.277c0-16.48-2.844-25.34-8.555-26.54v64.99c0 5.892 1.411 8.133 4.278 6.7l0.313 4.584h-25.68l-0.313-4.584c3.467 1.216 5.11-0.91 4.903-6.405v-130.3zm-95.5 3.671c-0.21-5.284-2.241-8.02-6.103-8.23v-4.582h27.8v4.271c-4.066 0.415-6.1 3.256-6.1 8.54l0.077 128.3c7.693-0.512 13.66-17.86 17.94-52.02h3.987v61.63h-44.02v-4.266c4.07-0.421 6.206-2.832 6.416-7.325v-126.3zm-51.81 137.9v-2.138c2.452-2.446 3.262-11.19 2.452-26.24h-7.639c-1.229 15.05-0.523 23.8 2.138 26.24v2.138h-19.87v-2.138c1.641-0.206 3-0.854 4.118-1.969 1.124-1.126 4.536-49.89 10.25-146.3h15.88c7.534 96.43 11.71 145.2 12.54 146.3 0.808 1.115 2.036 1.763 3.652 1.969v2.138zm-4.744-41.51h5.97l-3.052-49.42zm-83.73-98.56c0.6-3.671-1.044-5.884-4.903-6.717v-3.959h21.7l11.92 85.13v-75.68c0-3.045-1.226-4.766-3.677-5.181v-4.272h18.64v3.958c-2.633 0.623-3.859 4.897-3.651 12.81v133.7h-14.37l-14.68-95.8v85.75c-0.603 4.459 0.938 6.585 4.587 6.403v3.652h-20.78l0.31-3.368c3.47-0.386 5.085-2.729 4.903-6.995v-129.4zm-50.92-6.404v-4.272h23.52l-0.284 4.271c-2.867 0.415-4.278 2.445-4.278 6.092v127.6c0.08 5.995 1.721 8.85 4.875 8.543v4.266h-23.83v-4.266c2.841 0.421 4.274-2.446 4.274-8.543v-127.6c1e-3 -3.647-1.433-5.677-4.274-6.092zm-63.12 4.869c0-3.253-1.829-4.869-5.503-4.869v-3.959h46.75v50.05h-4.278c-1.433-15.89-3.677-26.72-6.726-32.52-3.051-5.784-7.641-8.776-13.74-8.984v51.87c5.502 1.822 8.344-5.805 8.554-22.89l4.277 0.315v62.55h-4.277c0-16.48-2.841-25.34-8.554-26.54v64.99c0 5.892 1.41 8.133 4.277 6.7l0.313 4.584h-25.68l-0.313-4.584c3.467 1.216 5.108-0.91 4.903-6.405v-130.3z" fill="#ffffff"/>
		</defs>
		
		<clipPath id="cvfb" fill="#ffffff">
			<use width="811.62701" height="163.603" xlink:href="#cvfa" fill="#ffffff"/>
		</clipPath>
	<use transform="translate(2.724 -179.1)" width="811.62701" height="163.603" xlink:href="#cvfa" fill="#ffffff"/></g>
</g>
</svg>