<?xml version="1.0" encoding="UTF-8" standalone="no"?>
<!-- Created with Inkscape (http://www.inkscape.org/) -->

<svg
   xmlns:dc="http://purl.org/dc/elements/1.1/"
   xmlns:cc="http://creativecommons.org/ns#"
   xmlns:rdf="http://www.w3.org/1999/02/22-rdf-syntax-ns#"
   xmlns:svg="http://www.w3.org/2000/svg"
   xmlns="http://www.w3.org/2000/svg"
   xmlns:sodipodi="http://sodipodi.sourceforge.net/DTD/sodipodi-0.dtd"
   xmlns:inkscape="http://www.inkscape.org/namespaces/inkscape"
   id="svg3444"
   version="1.1"
   inkscape:version="0.91 r13725"
   width="744.375"
   height="167.8125"
   viewBox="0 0 744.375 167.8125"
   sodipodi:docname="the-incredible-hulk-505a04ed3ec87.svg">
  <metadata
     id="metadata3450">
    <rdf:RDF>
      <cc:Work
         rdf:about="">
        <dc:format>image/svg+xml</dc:format>
        <dc:type
           rdf:resource="http://purl.org/dc/dcmitype/StillImage" />
        <dc:title></dc:title>
      </cc:Work>
    </rdf:RDF>
  </metadata>
  <defs
     id="defs3448" />
  <sodipodi:namedview
     pagecolor="#ffffff"
     bordercolor="#666666"
     borderopacity="1"
     objecttolerance="10"
     gridtolerance="10"
     guidetolerance="10"
     inkscape:pageopacity="0"
     inkscape:pageshadow="2"
     inkscape:window-width="1440"
     inkscape:window-height="837"
     id="namedview3446"
     showgrid="false"
     inkscape:zoom="0.86515533"
     inkscape:cx="346.50727"
     inkscape:cy="141.3971"
     inkscape:window-x="-8"
     inkscape:window-y="-8"
     inkscape:window-maximized="1"
     inkscape:current-layer="svg3444" />
  <g
     id="g3454"
     transform="translate(-2.5537251e-6,3.4675894)">
    <path
       style="fill:#cfdf9f"
       d="m 20.079786,153.7792 c -3.28237,-1.32785 -6.80581,-6.35511 -7.41555,-10.58053 -0.315874,-2.18896 -0.446892,-31.19086 -0.29115,-64.44867 l 0.283164,-60.46875 2.146733,-3.452354 c 3.779336,-6.0778869 6.440221,-6.5512368 34.937415,-6.2150812 24.439189,0.288287 24.835577,0.324334 27.943795,2.5411752 5.077291,3.621223 5.753307,6.485055 5.753307,24.372935 0,13.205133 0.249742,16.150389 1.473215,17.37386 2.211809,2.21181 50.154265,2.21181 52.366065,0 1.22482,-1.224816 1.47346,-4.188646 1.47467,-17.578125 0.002,-17.741221 0.70457,-20.644602 5.92605,-24.475768 2.59608,-1.9048215 3.68073,-1.9459396 57.19662,-2.1682677 60.25193,-0.2503126 58.42483,-0.4153975 62.90299,5.6834727 1.81787,2.475779 1.97152,4.238767 2.41039,27.65625 l 0.46875,25.011903 5.625,6.967378 5.625,6.967379 0.54131,-6.029879 0.54131,-6.029878 0.16182,8.203125 c 0.089,4.511719 0.0219,8.203125 -0.14905,8.203125 -0.17097,0 -3.22956,-3.784237 -6.79687,-8.409414 l -6.48602,-8.409414 -4.92188,-0.02809 -4.92187,-0.02809 0,11.25 0,11.25 2.8125,0 2.8125,0 0,-7.96875 C 262.5,78.585937 262.86608,75 263.31351,75 c 0.44743,0 3.50602,3.577303 6.79687,7.949562 l 5.98337,7.949561 5.39062,0.01919 5.39063,0.01919 0,-11.190602 0,-11.190601 -3.04688,-0.378113 -3.04687,-0.378115 3.40084,-0.150034 c 5.15877,-0.227591 5.59935,0.939734 5.30072,14.044284 l -0.26406,11.586931 -6.08583,0.284988 -6.08583,0.284984 -4.89325,-5.441234 -4.89324,-5.441238 -0.0366,6.213333 c -0.0275,4.670789 0.34868,6.532767 1.5151,7.500005 2.12258,1.760109 48.437,1.575628 50.57827,-0.201469 1.70034,-1.411153 0.19308,-2.693719 -3.19209,-2.716266 -6.34308,-0.04223 -9.69279,-5.042961 -9.42931,-14.076853 0.10849,-3.719719 0.20374,-3.505577 0.80518,1.810328 0.98932,8.744109 2.12599,9.439672 15.42613,9.439672 9.0127,0 10.75592,-0.24733 12.08364,-1.714445 2.4287,-2.683687 1.97197,-5.476772 -1.01831,-6.227283 -2.00611,-0.503504 -2.85382,-0.217318 -3.86434,1.304618 -1.08331,1.631548 -2.25906,1.94961 -7.20693,1.94961 -6.77131,0 -8.85887,-1.355814 -8.85887,-5.753597 0,-5.570011 1.20029,-6.433903 8.93923,-6.433903 5.59569,0 6.99827,0.281839 6.99827,1.40625 0,0.982143 0.98959,1.40625 3.28125,1.40625 3.8338,0 4.41754,-2.139028 1.55008,-5.680178 -1.51264,-1.868035 -2.90312,-2.217957 -11.01562,-2.772137 -5.10645,-0.348833 -7.93274,-0.69914 -6.28063,-0.778463 L 320.53892,67.5 320.81633,42.254121 c 0.26177,-23.821818 0.38695,-25.395063 2.21906,-27.890625 4.41228,-6.0100401 2.83742,-5.8594969 61.23156,-5.8532228 49.71617,0.00534 53.22827,0.1138413 56.9481,1.7593008 7.38582,3.267095 7.34072,3.005841 7.65434,44.339801 l 0.27564,36.328125 12.84936,-0.02981 c 16.29126,-0.0378 16.46553,-0.141889 16.91797,-10.104746 0.27991,-6.163614 0.0477,-7.597054 -1.55056,-9.572889 -1.79265,-2.216111 -2.48105,-2.348418 -14.85516,-2.855049 l -12.97539,-0.531253 11.25,-0.166647 c 18.76375,-0.277948 21.09375,1.183273 21.09375,13.228612 0,6.888623 -0.17674,7.54025 -2.74039,10.1039 l -2.74038,2.740385 -13.66587,0 c -10.58801,0 -13.66586,0.274491 -13.66586,1.21875 0,3.363384 1.39763,3.46875 46.01021,3.46875 37.1692,0 43.93086,-0.205622 44.89321,-1.365187 C 541.9413,94.692122 540.0794,93.75 533.40004,93.75 c -7.83745,0 -7.67491,0.326616 -7.23121,-14.53125 l 0.30796,-10.3125 0.1991,11.015625 0.19911,11.015625 13.10339,0 c 12.88469,0 13.1286,-0.03848 14.61411,-2.30565 1.87775,-2.865819 1.03473,-7.681422 -1.4847,-8.481059 -1.71264,-0.54357 -1.71082,-0.610276 0.0652,-2.386246 1.99659,-1.996578 2.06061,-2.266893 1.25158,-5.2837 -0.79992,-2.982813 -4.88305,-4.018576 -16.6738,-4.229623 -7.98607,-0.142947 -8.839,-0.261277 -3.66657,-0.508682 l 6.74041,-0.322404 0.29084,-24.737339 c 0.27366,-23.2763 0.405,-24.890113 2.22377,-27.324016 4.83356,-6.4683643 4.62615,-6.4242136 31.62891,-6.7325139 27.51277,-0.3141229 30.68365,0.2117978 34.62944,5.7436209 1.94667,2.72914 2.14718,4.183249 2.43673,17.670316 0.24027,11.192188 0.61502,14.811395 1.57168,15.178498 0.73623,0.28252 9.09151,-6.770648 20.18605,-17.040204 10.41143,-9.637236 20.24571,-18.365998 21.85395,-19.397248 2.74633,-1.7610213 4.80545,-1.8930626 33.87344,-2.1721373 19.66325,-0.1887822 32.16012,0.059992 34.26955,0.6822011 7.26675,2.1434422 11.29014,10.4605462 8.07134,16.6850172 -0.80887,1.564189 -7.2888,8.253883 -14.39985,14.865985 -7.11105,6.612102 -18.77845,17.529876 -25.92756,24.261719 -7.14911,6.731843 -13.37177,12.38034 -13.82813,12.552215 -0.45635,0.171875 -0.82973,1.463765 -0.82973,2.870867 0,2.573268 4.16303,6.696674 45.39078,44.958653 11.26083,10.45076 12.71993,12.48341 12.72804,17.73113 0.005,3.24951 -0.59455,4.65383 -3.20212,7.5 l -3.20831,3.50185 -34.05732,0.2562 c -31.15376,0.23435 -34.3101,0.11446 -37.02224,-1.40625 -1.63071,-0.91435 -11.68315,-9.67808 -22.33879,-19.47495 -10.65562,-9.79687 -20.07922,-17.8125 -20.94133,-17.8125 -1.38011,0 -1.62348,1.7929 -2.03621,15 -0.52449,16.7837 -1.34969,19.52871 -6.72443,22.36871 -2.92705,1.54664 -8.81133,1.62906 -95.46307,1.33708 l -92.34375,-0.31115 -6.87998,-2.11426 c -8.93481,-2.74573 -15.50164,-6.06866 -20.94447,-10.59825 -2.41281,-2.00799 -4.76945,-3.65088 -5.23697,-3.65088 -0.46753,0 -3.37114,2.02331 -6.45248,4.49625 -3.08134,2.47294 -7.89656,5.48784 -10.70051,6.69979 -12.05158,5.20905 -10.3192,5.07463 -70.08215,5.43755 -62.31805,0.37843 -65.16124,0.16517 -77.79672,-5.83539 -3.81979,-1.81401 -7.40581,-3.2982 -7.96893,-3.2982 -0.56311,0 -2.78665,2.00391 -4.9412,4.45312 l -3.91735,4.45313 -27.53962,0.25339 c -25.68393,0.2363 -27.73419,0.13321 -30.42716,-1.52995 -5.14247,-3.17597 -6.01871,-6.5724 -6.01871,-23.3292 0,-13.29017 -0.19008,-15.11941 -1.71444,-16.49894 -1.50284,-1.36005 -4.72493,-1.55155 -26.1047,-1.55155 -22.438268,0 -24.514431,0.13721 -25.941809,1.71444 -1.305668,1.44275 -1.551551,4.05743 -1.551551,16.49894 0,16.58575 -0.892549,20.01787 -6.018717,23.14379 -2.649998,1.61597 -5.046924,1.75622 -29.137533,1.7049 -14.4375,-0.0308 -27.128159,-0.41117 -28.201464,-0.84537 z M 90.9375,82.5 l 0,-8.4375 4.6875,0 c 4.58333,0 4.6875,-0.0625 4.6875,-2.8125 l 0,-2.8125 -12.65625,0 -12.65625,0 0,2.8125 c 0,2.75 0.104167,2.8125 4.6875,2.8125 l 4.6875,0 0,8.4375 0,8.4375 3.28125,0 3.28125,0 0,-8.4375 z m 35.625,4.21875 0,-4.21875 7.96875,0 7.96875,0 0,4.21875 c 0,4.0625 0.10417,4.21875 2.8125,4.21875 l 2.8125,0 0,-11.25 0,-11.25 -2.8125,0 c -2.70833,0 -2.8125,0.15625 -2.8125,4.21875 l 0,4.21875 -7.96875,0 -7.96875,0 0,-4.21875 c 0,-4.0625 -0.10417,-4.21875 -2.8125,-4.21875 l -2.8125,0 0,11.25 0,11.25 2.8125,0 c 2.70833,0 2.8125,-0.15625 2.8125,-4.21875 z m 66.5625,1.875 c 0,-2.335526 -0.0312,-2.34375 -8.90625,-2.34375 -8.875,0 -8.90625,-0.0083 -8.90625,-2.34375 0,-2.326388 0.0625,-2.34375 8.4375,-2.34375 7.75666,0 8.4375,-0.148352 8.4375,-1.8385 0,-1.66562 -0.77137,-1.863973 -8.20313,-2.109375 -7.69772,-0.254187 -8.22158,-0.400834 -8.5027,-2.38025 -0.29277,-2.06142 -0.0956,-2.109375 8.67188,-2.109375 8.94454,0 8.97145,-0.007 8.97145,-2.34375 l 0,-2.34375 -12.1875,0 -12.1875,0 0,11.25 0,11.25 12.1875,0 12.1875,0 0,-2.34375 z m 43.125,-8.90625 0,-11.25 -3.28125,0 -3.28125,0 0,11.25 0,11.25 3.28125,0 3.28125,0 0,-11.25 z m 126.5625,8.398065 0,-2.851936 7.26562,0.273811 c 7.15186,0.269522 7.27028,0.314183 7.56227,2.851935 0.24845,2.159198 0.74354,2.578125 3.04688,2.578125 2.57783,0 2.75023,-0.232144 2.75023,-3.703416 0,-2.547799 -0.51194,-3.993594 -1.64063,-4.633354 -1.54123,-0.8736 -1.52986,-1.011759 0.1875,-2.280485 2.68636,-1.984579 2.4909,-7.837636 -0.33823,-10.128533 -1.84515,-1.49411 -3.81902,-1.754212 -13.3125,-1.754212 l -11.14614,0 0,11.25 0,11.25 2.8125,0 c 2.50865,0 2.8125,-0.308119 2.8125,-2.851935 z m 0.66217,-8.048397 c -0.3642,-0.364193 -0.66217,-1.85748 -0.66217,-3.318418 l 0,-2.65625 7.5594,0 7.5594,0 -0.29378,3.046875 -0.29377,3.046875 -6.60346,0.271542 c -3.6319,0.149349 -6.90143,-0.02643 -7.26562,-0.390624 z M 429.375,88.59375 c 0,-2.34375 0,-2.34375 -9.375,-2.34375 -9.375,0 -9.375,0 -9.375,-2.34375 0,-2.326388 0.0625,-2.34375 8.4375,-2.34375 7.75666,0 8.4375,-0.148352 8.4375,-1.8385 0,-1.66562 -0.77137,-1.863973 -8.20313,-2.109375 -7.69772,-0.254187 -8.22158,-0.400834 -8.5027,-2.38025 -0.29277,-2.06142 -0.0956,-2.109375 8.67188,-2.109375 8.94454,0 8.97145,-0.007 8.97145,-2.34375 l 0,-2.34375 -11.71875,0 -11.71875,0 0,11.25 0,11.25 12.1875,0 12.1875,0 0,-2.34375 z m 168.75,0 c 0,-2.316176 -0.0937,-2.34375 -7.96875,-2.34375 l -7.96875,0 0,-8.90625 0,-8.90625 -2.8125,0 -2.8125,0 0,11.25 0,11.25 10.78125,0 10.78125,0 0,-2.34375 z m 45,0 c 0,-2.34375 0,-2.34375 -9.375,-2.34375 -9.375,0 -9.375,0 -9.375,-2.34375 0,-2.335526 0.0312,-2.34375 8.90625,-2.34375 8.28125,0 8.90625,-0.131579 8.90625,-1.875 0,-1.722324 -0.62978,-1.876169 -7.73438,-1.889356 -8.29688,-0.0154 -10.68893,-0.79166 -9.7754,-3.172277 0.46925,-1.222853 2.1443,-1.500867 9.04286,-1.500867 8.40639,0 8.46692,-0.01676 8.46692,-2.34375 l 0,-2.34375 -11.71875,0 -11.71875,0 0,11.25 0,11.25 12.1875,0 12.1875,0 0,-2.34375 z m -322.5,-8.037491 c 0,-3.131019 -0.29546,-3.762429 -1.64063,-3.506048 -2.91579,0.555732 -2.72639,7.324789 0.20496,7.324789 1.05426,0 1.43567,-1.014521 1.43567,-3.818741 z m 178.58587,11.134489 c -0.29563,-1.187724 -0.39893,-6.800123 -0.22954,-12.471998 l 0.30796,-10.3125 0.1991,11.015625 0.19911,11.015625 3.28125,0 3.28125,0 0,-11.190602 0,-11.190601 -3.04688,-0.378113 -3.04687,-0.378115 3.40084,-0.150034 c 5.15877,-0.227591 5.59935,0.939734 5.30072,14.044284 l -0.26406,11.586931 -4.42268,0.284498 c -3.94985,0.254086 -4.48015,0.05362 -4.9602,-1.875 z M 455.625,80.11975 l 0,-6.130249 8.20312,0.270874 8.20313,0.270875 0.29108,4.583917 c 0.1601,2.521154 -0.0523,4.927321 -0.47204,5.347038 -0.41971,0.419718 -0.61369,-1.115701 -0.43105,-3.412041 l 0.33206,-4.175164 -6.7108,0 -6.71081,0 0.28828,3.984375 0.28828,3.984375 5.625,0.545524 5.625,0.545524 -7.26563,0.157601 -7.26562,0.157601 0,-6.13025 z m 77.8125,3.7865 0,-2.41958 7.73437,0.272291 c 7.01862,0.247091 7.73438,0.445807 7.73438,2.147289 0,1.701482 -0.71576,1.900198 -7.73438,2.147289 l -7.73437,0.272291 0,-2.41958 z m 5.85937,0.785362 c -0.64453,-0.260074 -1.69921,-0.260074 -2.34375,0 -0.64453,0.260074 -0.11718,0.472861 1.17188,0.472861 1.28906,0 1.81641,-0.212787 1.17187,-0.472861 z m -5.68496,-9.457237 c 0.24291,-1.277738 1.43938,-1.704716 5.40926,-1.930384 6.29491,-0.357833 9.41633,0.365682 9.41633,2.18262 0,1.111537 -1.50924,1.388389 -7.56874,1.388389 -6.70215,0 -7.53303,-0.187847 -7.25685,-1.640625 z"
       id="path3468"
       inkscape:connector-curvature="0" />
    <path
       style="fill:#aeca5d"
       d="m 19.970017,149.27602 c -1.133678,-0.89087 -2.504772,-2.80739 -3.046875,-4.25893 -0.651705,-1.745 -0.985642,-23.1156 -0.985642,-63.076982 0,-66.398195 -0.08204,-65.395131 5.58871,-68.327592 2.517137,-1.301663 6.372255,-1.473358 27.710354,-1.234141 L 74.023,12.65625 l 2.597875,2.59692 2.597875,2.59692 0.46875,18.347911 c 0.456896,17.883929 0.524718,18.393164 2.681985,20.137455 2.061939,1.667211 4.035532,1.789544 28.870735,1.789544 l 26.65751,0 2.30113,-2.301136 c 2.2776,-2.2776 2.30114,-2.478817 2.30114,-19.67271 l 0,-17.371573 2.73526,-3.061665 2.73526,-3.061666 54.45276,-0.220687 54.45278,-0.220688 3.04634,2.720482 3.04635,2.720481 0.27995,24.660541 c 0.20331,17.910663 0.58822,24.8565 1.40625,25.376475 0.61946,0.393764 -1.08854,0.722394 -3.79558,0.73029 l -4.92187,0.01436 0,11.25 0,11.25 3.7135,0 3.7135,0 0.27088,-7.829982 0.27087,-7.829983 4.51097,6.189358 c 2.58828,3.551287 3.18766,4.690886 1.40625,2.673691 -1.70759,-1.933617 -3.42113,-3.515649 -3.80785,-3.515625 -0.38671,2.2e-5 -0.70312,2.868791 -0.70312,6.375041 0,3.50625 -0.46378,6.838781 -1.03063,7.405631 -1.31284,1.312838 -0.25931,4.717181 1.79724,5.807525 1.82242,0.96621 22.95157,1.61158 41.61874,1.27121 11.91494,-0.21724 12.99587,-0.38654 14.79439,-2.317004 2.15036,-2.308153 2.14889,-4.826503 -0.003,-5.112637 -0.76753,-0.102066 -3.38122,-0.446437 -5.80821,-0.765279 -2.427,-0.318843 -5.38013,-1.424162 -6.5625,-2.456264 -2.09153,-1.825695 -2.09429,-1.849709 -0.10204,-0.886116 2.96629,1.434708 22.97389,1.283839 24.98732,-0.188419 0.8867,-0.648368 1.7056,-2.441337 1.81981,-3.984375 0.19309,-2.609053 -0.0385,-2.825899 -3.308,-3.096489 C 330.83086,82.455584 330,82.732537 330,83.849662 c 0,1.107601 -0.96758,1.444868 -3.98438,1.388829 -2.1914,-0.04071 -3.45703,-0.286801 -2.8125,-0.546875 0.64896,-0.26186 1.17188,-2.062572 1.17188,-4.035446 0,-3.121604 -0.31177,-3.622182 -2.51871,-4.044065 -4.05789,-0.775679 -4.98148,0.08412 -4.98148,4.63728 0,2.543789 -0.36612,3.9475 -0.9375,3.594369 C 315.42187,84.525076 315,82.225002 315,79.732474 c 0,-5.319473 0.52814,-5.669974 8.5436,-5.669974 4.09316,0 5.72137,0.37429 6.11737,1.40625 0.33296,0.867669 1.75791,1.40625 3.72058,1.40625 2.69779,0 3.18095,-0.328777 3.18095,-2.164566 0,-4.007132 -2.08894,-5.545408 -8.51898,-6.273295 -3.30675,-0.374327 -5.5046,-0.738317 -4.8841,-0.808866 0.8399,-0.0955 1.19922,-6.496355 1.40625,-25.05032 l 0.27808,-24.922046 3.02415,-2.700685 3.02415,-2.700683 53.11388,0.0057 c 58.85262,0.0063 57.38579,-0.141723 59.97418,6.053159 1.07806,2.58017 1.33239,10.531539 1.33239,41.656471 0,37.217615 0.0609,38.52854 1.875,40.342611 1.82398,1.82398 3.125,1.875 47.8125,1.875 45.14426,0 45.97088,-0.0334 47.87015,-1.93265 1.07687,-1.076865 1.80334,-2.841155 1.64062,-3.984371 -0.26476,-1.860187 -0.90467,-2.073984 -6.85452,-2.290162 -7.97183,-0.289645 -11.04162,-0.925575 -10.29551,-2.132801 0.31796,-0.51447 5.97635,-0.910015 13.01804,-0.910015 10.87618,0 12.65237,-0.2174 14.00717,-1.714445 2.08364,-2.302397 1.96112,-6.313487 -0.26072,-8.535325 -1.55304,-1.553032 -1.62009,-1.971769 -0.46875,-2.927291 C 554.39542,77.147176 555,75.455369 555,74.000868 c 0,-3.504506 -3.04284,-5.543762 -8.41173,-5.637381 -2.33449,-0.04071 -3.71718,-0.286801 -3.07265,-0.546875 0.89265,-0.360193 1.17188,-5.934202 1.17188,-23.393598 0,-25.498995 0.4847,-28.171108 5.58871,-30.810498 2.51714,-1.301663 6.37225,-1.473358 27.71035,-1.234141 l 24.78644,0.277875 2.59787,2.597024 2.59788,2.597023 0.29501,16.405474 c 0.29134,16.20085 0.3235,16.424132 2.57813,17.901423 3.02823,1.984166 2.54913,2.342481 25.25186,-18.88602 10.3125,-9.642846 20.01562,-18.329896 21.5625,-19.304556 2.61108,-1.645193 5.02819,-1.772109 33.75,-1.772109 29.10506,0 31.11648,0.109127 33.95921,1.842415 3.198,1.9499 4.56345,5.190969 3.67623,8.725968 -0.4942,1.969035 -8.83445,10.49214 -24.05624,24.583655 -29.49475,27.304652 -32.79795,30.668441 -32.79795,33.39954 0,3.402651 0.42698,3.848329 29.0625,30.334643 12.63281,11.68467 24.55078,22.95555 26.48437,25.04639 4.37701,4.73294 4.71034,8.67248 1.04404,12.33879 l -2.47159,2.47159 -33.05202,0 -33.05201,0 -5.02327,-4.44293 c -2.7628,-2.44362 -12.93602,-11.72487 -22.60717,-20.625 -10.04209,-9.24151 -18.3569,-16.18207 -19.38616,-16.18207 -4.24011,0 -4.74869,1.97008 -4.74869,18.39477 0,16.3252 -0.73654,19.80324 -4.63557,21.88994 -1.20116,0.64284 -31.49694,0.96117 -90.69342,0.95297 -83.06931,-0.0115 -89.44456,-0.12682 -97.36268,-1.76106 -9.80868,-2.02445 -18.58073,-6.14339 -24.28872,-11.40483 -5.55862,-5.12376 -8.36932,-4.99588 -14.75,0.67107 -2.70488,2.40232 -7.64356,5.6037 -10.97483,7.11417 -11.47914,5.20489 -13.5631,5.36041 -71.82603,5.36041 -60.17658,0 -61.17011,-0.0881 -74.37218,-6.59578 -8.96853,-4.42085 -11.48608,-4.36375 -13.83698,0.3138 -3.19435,6.35573 -2.76832,6.27062 -31.50419,6.29369 l -25.96334,0.0208 -2.63041,-2.26043 -2.6304,-2.26043 L 142.5,129.0197 c -0.40574,-15.05851 -0.69378,-17.62153 -2.14285,-19.0677 -1.52997,-1.52689 -4.04964,-1.67075 -29.2634,-1.67075 -25.213759,0 -27.733432,0.14386 -29.263393,1.67075 -1.449079,1.44617 -1.737114,4.00919 -2.142857,19.0677 l -0.46875,17.39694 -2.630404,2.26043 -2.630403,2.26043 -25.963347,-0.0208 C 24.83498,150.89809 21.808661,150.72089 19.970017,149.27602 Z M 90.9375,82.5 l 0,-8.4375 4.6875,0 c 4.58333,0 4.6875,-0.0625 4.6875,-2.8125 l 0,-2.8125 -13.125,0 -13.125,0 0,2.8125 c 0,2.784091 0.05209,2.8125 5.15625,2.8125 l 5.15625,0 0,8.4375 0,8.4375 3.28125,0 3.28125,0 0,-8.4375 z m 35.80547,4.453125 0.28828,-3.984375 7.26562,-0.27381 7.26563,-0.273811 0,4.258186 0,4.258185 3.75,0 3.75,0 0,-11.25 0,-11.25 -3.75,0 -3.75,0 0,4.258185 0,4.258186 -7.26563,-0.273811 -7.26562,-0.27381 -0.28828,-3.984375 C 126.46369,68.561807 126.354,68.4375 123.22734,68.4375 l -3.22734,0 0,11.25 0,11.25 3.22734,0 c 3.12666,0 3.23635,-0.124307 3.51563,-3.984375 z m 67.31953,1.640625 c 0,-2.34375 0,-2.34375 -9.375,-2.34375 -9.375,0 -9.375,0 -9.375,-2.34375 0,-2.326388 0.0625,-2.34375 8.4375,-2.34375 8.375,0 8.4375,-0.01736 8.4375,-2.34375 0,-2.327792 -0.0579,-2.34375 -8.50624,-2.34375 -7.59573,0 -8.47265,-0.175612 -8.19242,-1.640625 0.26729,-1.397308 1.59835,-1.680602 8.975,-1.910181 8.50539,-0.264707 8.66116,-0.311072 8.66116,-2.578125 l 0,-2.308569 -12.1875,0 -12.1875,0 0,11.25 0,11.25 12.65625,0 12.65625,0 0,-2.34375 z m 42.1875,-8.90625 0,-11.25 -3.28125,0 -3.28125,0 0,11.25 0,11.25 3.28125,0 3.28125,0 0,-11.25 z m 127.5,8.4375 0,-2.8125 5.90625,0 c 6.11088,0 8.15625,0.987422 8.15625,3.9375 0,1.303571 0.74653,1.6875 3.28125,1.6875 2.96242,0 3.28125,-0.253014 3.28125,-2.603901 0,-1.432144 -0.6593,-3.545173 -1.4651,-4.695617 -1.32845,-1.896645 -1.32845,-2.228353 0,-3.556815 2.08767,-2.087668 1.86064,-7.498124 -0.4099,-9.768667 -1.68269,-1.682693 -3.125,-1.875 -14.0625,-1.875 l -12.1875,0 0,11.25 0,11.25 3.75,0 c 3.54167,0 3.75,-0.15625 3.75,-2.8125 z m 0,-11.25 0,-2.894643 6.79687,0.275446 c 6.55155,0.265505 6.79688,0.360042 6.79688,2.619197 0,2.259155 -0.24533,2.353692 -6.79688,2.619197 l -6.79687,0.275446 0,-2.894643 z m 65.625,11.752699 c 0,-2.278453 -0.12406,-2.313443 -9.14063,-2.578125 -8.67123,-0.254546 -9.156,-0.376644 -9.4402,-2.377699 -0.29178,-2.054469 -0.0783,-2.109375 8.20313,-2.109375 8.44455,0 8.5027,-0.01603 8.5027,-2.34375 0,-2.327792 -0.0579,-2.34375 -8.50624,-2.34375 -7.59579,0 -8.47264,-0.175601 -8.19227,-1.640625 0.26907,-1.405928 1.62002,-1.67901 9.44374,-1.908949 9.00504,-0.264658 9.12977,-0.299882 9.12977,-2.578125 l 0,-2.309801 -12.65625,0 -12.65625,0 0,11.25 0,11.25 12.65625,0 12.65625,0 0,-2.309801 z m 168.75,-0.502699 0,-2.8125 -7.96875,0 -7.96875,0 0,-8.4375 0,-8.4375 -3.28125,0 -3.28125,0 0,11.25 0,11.25 11.25,0 11.25,0 0,-2.8125 z m 45,0.46875 c 0,-2.335526 -0.0312,-2.34375 -8.90625,-2.34375 -8.875,0 -8.90625,-0.0083 -8.90625,-2.34375 0,-2.326388 0.0625,-2.34375 8.4375,-2.34375 8.375,0 8.4375,-0.01736 8.4375,-2.34375 0,-2.326388 -0.0625,-2.34375 -8.4375,-2.34375 -7.8125,0 -8.4375,-0.138889 -8.4375,-1.875 0,-1.743421 0.625,-1.875 8.90625,-1.875 8.875,0 8.90625,-0.0083 8.90625,-2.34375 l 0,-2.34375 -12.1875,0 -12.1875,0 0,11.25 0,11.25 12.1875,0 12.1875,0 0,-2.34375 z m -368.02773,2.124031 c -1.51444,-1.667721 -1.87655,-2.300533 -0.8047,-1.40625 1.34567,1.122736 3.59435,1.625969 7.26562,1.625969 l 5.31681,0 0,-11.25 c 0,-6.875 0.36458,-11.25 0.9375,-11.25 0.57652,0 0.9375,4.654066 0.9375,12.087198 0,13.510593 0.14954,13.225302 -6.93253,13.225302 -3.27874,0 -4.44422,-0.525877 -6.7202,-3.032219 z m 174.69385,2.515146 c -1.74763,-1.758748 1.27322,-2.295427 12.92046,-2.295427 15.89131,0 16.35092,-0.304786 16.35092,-10.842882 0,-3.901086 -0.4457,-8.014367 -0.99043,-9.140625 -0.93173,-1.926352 -0.87615,-1.916542 0.9375,0.165492 1.60951,1.847689 1.92793,3.48524 1.92793,9.914706 0,7.065374 -0.19971,7.88919 -2.41789,9.974265 -2.27418,2.137726 -3.17954,2.291622 -15.23437,2.589609 -7.04907,0.174247 -13.12143,0.0099 -13.49412,-0.365138 z m 51.06241,-0.08397 c -1.95639,-0.824937 -0.30162,-2.211456 2.6393,-2.211456 l 2.75717,0 0,-11.25 c 0,-7.086548 0.35703,-11.25 0.96472,-11.25 0.6259,0 0.87284,4.362568 0.70312,12.421875 l -0.26159,12.421875 -2.8125,0.18215 c -1.54688,0.100183 -3.34247,-0.04132 -3.99022,-0.314447 z M 533.4375,83.90625 c 0,-2.306371 0.12066,-2.34375 7.5652,-2.34375 7.29935,0 7.55468,0.07379 7.26563,2.099797 -0.36755,2.5762 -3.06016,3.242301 -5.05256,1.249907 -1.88603,-1.886035 -6.84954,-1.930953 -7.56424,-0.06845 -0.85104,2.21776 -2.21403,1.640619 -2.21403,-0.9375 z m -77.8125,-4.21875 0,-5.625 7.38521,0 c 4.76304,0 7.73147,0.416082 8.36044,1.171875 0.76597,0.920404 -0.56735,1.171875 -6.21333,1.171875 l -7.18857,0 -0.28574,4.453125 C 457.27079,87.283623 455.625,86.346476 455.625,79.6875 Z m -177.81164,2.574428 c -3.68342,-4.122206 -10.7228,-13.823187 -9.97753,-13.750041 0.96018,0.09424 12.72123,14.993559 12.2262,15.488585 -0.20193,0.201924 -1.21383,-0.580421 -2.24867,-1.738544 z m 255.62414,-7.01652 c 0,-0.854652 2.10293,-1.182908 7.57812,-1.182908 5.64677,0 7.47813,0.298664 7.18575,1.171875 -0.55558,1.659315 -14.76387,1.669933 -14.76387,0.01103 z"
       id="path3466"
       inkscape:connector-curvature="0" />
    <path
       style="fill:#9ec03e"
       d="m 22.6875,140.4375 c -1.626543,-1.62654 -1.626543,-124.560957 0,-126.1875 0.816699,-0.816699 7.735119,-1.125 25.245535,-1.125 20.67776,0 24.330811,0.210275 25.59375,1.473215 C 74.778001,15.849429 75,19.222301 75,36.981027 l 0,20.909598 2.929687,0.585937 c 3.81831,0.763663 62.509823,0.763663 66.328123,0 l 2.92969,-0.585937 0,-20.909598 c 0,-17.758726 0.222,-21.131598 1.47322,-22.382812 1.26293,-1.26294 4.91598,-1.473215 25.59375,-1.473215 17.51041,0 24.42883,0.308301 25.24553,1.125 0.85251,0.852509 1.125,16.269377 1.125,63.649698 0,56.149512 -0.1512,62.582722 -1.48293,63.093752 -0.8156,0.31298 -12.40233,0.56905 -25.74826,0.56905 -23.03094,0 -24.31471,-0.0923 -25.23583,-1.81337 -0.58087,-1.08538 -0.97048,-9.74174 -0.97048,-21.5625 l 0,-19.74913 -36.09375,0 -36.09375,0 0,19.74913 c 0,11.82076 -0.389605,20.47712 -0.970485,21.5625 -0.921673,1.72216 -2.208939,1.81337 -25.59375,1.81337 -17.901428,0 -24.930376,-0.30711 -25.748265,-1.125 z m 68.050806,-57.703125 0.269555,-8.671875 4.652323,0 c 4.544246,0 4.652316,-0.06534 4.652316,-2.8125 l 0,-2.8125 -13.125,0 -13.125,0 0,2.8125 c 0,2.784091 0.05209,2.8125 5.15625,2.8125 l 5.15625,0 0,8.28125 c 0,4.554688 0.300618,8.581868 0.66804,8.94929 0.367422,0.367423 1.738516,0.543204 3.046875,0.390626 2.33287,-0.272055 2.384044,-0.444978 2.648391,-8.949291 z m 36.578684,4.21875 0.28574,-4.453125 6.92852,0 6.92852,0 0.28574,4.453125 c 0.28296,4.409858 0.31762,4.453125 3.56699,4.453125 l 3.28125,0 0.26323,-11.484375 0.26323,-11.484375 -3.77885,0 -3.77886,0 0,4.21875 0,4.21875 -7.03125,0 -7.03125,0 0,-4.21875 0,-4.21875 -3.75,0 -3.75,0 0,11.09375 c 0,6.101563 0.30125,11.394994 0.66943,11.763182 0.36819,0.368187 1.95022,0.543968 3.51563,0.390624 2.68424,-0.262942 2.86245,-0.532193 3.13193,-4.731931 z m 66.5734,1.875 0.29665,-2.578125 -9.43727,0 -9.43727,0 0,-2.34375 c 0,-2.326388 0.0625,-2.34375 8.4375,-2.34375 8.375,0 8.4375,-0.01736 8.4375,-2.34375 0,-2.327792 -0.0579,-2.34375 -8.50624,-2.34375 -7.59573,0 -8.47265,-0.175612 -8.19242,-1.640625 0.26729,-1.397308 1.59835,-1.680602 8.975,-1.910181 8.50539,-0.264707 8.66116,-0.311072 8.66116,-2.578125 l 0,-2.308569 -12.1875,0 -12.1875,0 0,11.745961 0,11.745961 12.42187,-0.261586 12.42188,-0.261586 0.29664,-2.578125 z M 240,140.6549 c -16.63543,-2.31724 -30.71194,-10.88444 -33.57274,-20.43295 -0.80232,-2.67791 -1.11476,-18.07117 -1.11476,-54.922233 l 0,-51.201495 2.10937,-0.51591 c 1.16016,-0.283751 12.86719,-0.397257 26.01563,-0.252236 l 23.90625,0.263674 0.46875,26.677146 0.46875,26.677145 2.34375,0.65128 c 2.00587,0.55739 1.83694,0.664751 -1.17188,0.744729 l -3.51562,0.09345 0,11.775342 0,11.775343 3.51562,-0.290968 3.51563,-0.290967 0.46875,-7.887083 c 0.34424,-5.792106 0.72942,-7.535247 1.45012,-6.5625 0.59914,0.808675 0.78171,4.23362 0.46875,8.793474 l -0.51262,7.468891 -3.51563,0.827368 c -2.79162,0.656972 -3.51562,1.267209 -3.51562,2.963184 0,3.795396 2.16903,4.498396 16.23266,5.261156 18.0241,0.97756 53.93909,-0.2136 54.93309,-1.82192 1.11736,-1.807911 0.079,-5.643973 -1.65987,-6.132486 -0.84542,-0.237506 -4.57814,-0.714075 -8.29492,-1.059051 -3.84082,-0.356488 -7.21359,-1.176433 -7.81374,-1.899577 -0.87524,-1.054583 -0.52196,-1.119198 2.0641,-0.377526 4.25976,1.221687 15.77643,1.128369 19.46572,-0.157728 2.81669,-0.981898 4.76046,-3.79062 4.76046,-6.878762 0,-1.884377 -7.32965,-2.378789 -7.83214,-0.528307 -0.21332,0.785602 -0.4368,-0.315992 -0.49661,-2.447986 l -0.10875,-3.876353 -5.13992,-0.642191 c -2.82696,-0.353205 -5.56915,-0.376917 -6.09375,-0.0527 -0.52461,0.324227 -0.95383,2.487938 -0.95383,4.808251 0,2.573771 -0.36555,3.992827 -0.9375,3.639343 -1.31699,-0.813947 -1.17169,-8.297059 0.1875,-9.65625 1.71472,-1.714722 12.8589,-1.483168 13.53597,0.28125 0.33296,0.867669 1.75791,1.40625 3.72058,1.40625 2.89577,0 3.18095,-0.247382 3.18095,-2.75934 0,-3.508655 -2.90994,-5.635648 -7.94298,-5.805831 -2.07667,-0.07022 -2.84522,-0.308052 -1.70787,-0.528519 2.06538,-0.400359 2.06824,-0.432803 2.34375,-26.626273 0.23228,-22.083675 0.49793,-26.365658 1.6821,-27.113375 2.17861,-1.375644 49.04711,-1.182049 50.4375,0.208338 0.82167,0.821668 1.125,8.234518 1.125,27.492831 l 0,26.36783 2.34375,2.201839 2.34375,2.201839 0,-28.56967 c 0,-20.970854 0.29922,-28.868891 1.125,-29.694669 0.8164,-0.816406 7.70833,-1.125 25.125,-1.125 17.41667,0 24.3086,0.308594 25.125,1.125 0.8418,0.841798 1.125,11.786991 1.125,43.478958 0,38.244698 0.15034,42.478795 1.54954,43.640635 1.2617,1.04765 10.87252,1.33608 51.73895,1.55269 34.43686,0.18253 50.5754,0.58635 51.41921,1.28666 1.73863,1.44293 1.76478,33.45106 0.0292,35.8245 -1.12676,1.54093 -4.94292,1.6213 -62.10938,1.30813 -59.40702,-0.32545 -61.09187,-0.38468 -68.33092,-2.40178 -10.76176,-2.99868 -18.18384,-7.32603 -21.84957,-12.73913 -4.16207,-6.14604 -4.93585,-9.64585 -4.94189,-22.35244 l -0.005,-10.995525 -2.2524,1.026264 c -2.17504,0.991013 -2.26465,1.433119 -2.60883,12.870531 -0.29643,9.85045 -0.69491,12.48628 -2.3672,15.65821 -3.98501,7.55854 -14.0553,14.25106 -26.05282,17.31417 -5.36469,1.36967 -104.91746,2.18512 -113.90625,0.93303 z m -3.95552,-60.733025 0.26323,-11.484375 -3.3101,0 -3.31011,0 0,11.09375 c 0,6.101563 0.30062,11.394368 0.66804,11.76179 0.36742,0.367423 1.73851,0.543204 3.04688,0.390626 l 2.37883,-0.277416 0.26323,-11.484375 z m 127.53363,8.39609 0.29687,-3.088285 6.26563,0.275785 c 6.19461,0.272658 6.27595,0.310822 7.17502,3.366676 0.7996,2.717756 1.25231,3.057283 3.75,2.8125 2.52643,-0.247599 2.87204,-0.654344 3.12464,-3.677411 0.17729,-2.121739 -0.25326,-3.936291 -1.14574,-4.828774 -1.25678,-1.25677 -1.26278,-1.568335 -0.0497,-2.575147 1.81342,-1.505006 1.76669,-7.446695 -0.0793,-10.08221 C 381.53054,68.543668 380.814,68.4375 368.85309,68.4375 l -12.60309,0 0,11.09375 c 0,6.101563 0.30125,11.394994 0.66943,11.763182 0.36819,0.368187 1.95022,0.543968 3.51563,0.390624 2.46489,-0.241455 2.88596,-0.69254 3.14305,-3.367091 z M 363.75,76.875 l 0,-2.894643 6.79687,0.275446 c 6.55155,0.265505 6.79688,0.360042 6.79688,2.619197 0,2.259155 -0.24533,2.353692 -6.79688,2.619197 l -6.79687,0.275446 0,-2.894643 z m 65.44955,11.987784 0.2933,-2.543465 -9.19955,-0.269035 c -8.48488,-0.248133 -9.19955,-0.414695 -9.19955,-2.144034 0,-1.721451 0.71512,-1.89714 8.73236,-2.145356 8.40752,-0.260298 8.7214,-0.347487 8.4375,-2.34375 -0.2769,-1.947101 -0.82684,-2.089863 -9.02854,-2.343767 -7.65607,-0.237013 -8.6958,-0.468363 -8.42664,-1.875 0.2604,-1.360887 1.69384,-1.645385 9.4368,-1.872951 9.00504,-0.264658 9.12977,-0.299882 9.12977,-2.578125 l 0,-2.309801 -12.65625,0 -12.65625,0 0,11.09375 c 0,6.101563 0.29324,11.38699 0.65165,11.745394 0.35839,0.358404 5.94824,0.534185 12.42187,0.390625 l 11.77023,-0.261019 0.2933,-2.543466 z M 387.1875,82.3125 c 0,-1.514453 -0.27723,-1.785271 -1.04332,-1.019186 -0.57381,0.573822 -0.75986,1.501947 -0.41341,2.0625 0.96974,1.569075 1.45673,1.22029 1.45673,-1.043314 z m 164.25,58.125 c -0.81167,-0.81167 -1.125,-7.30903 -1.125,-23.32816 l 0,-22.203159 -2.10938,-0.57075 c -1.16015,-0.313912 -6.32812,-0.890463 -11.48437,-1.281218 l -9.375,-0.710463 12.96684,-0.469638 c 11.43518,-0.414162 13.12396,-0.684493 14.29688,-2.288558 1.84153,-2.518441 1.66341,-6.752175 -0.36961,-8.785194 -1.39507,-1.395067 -1.47907,-1.905685 -0.46875,-2.849462 1.7827,-1.665294 1.50985,-6.157838 -0.48355,-7.961847 -0.94295,-0.853354 -3.15779,-1.614761 -4.92188,-1.692019 -2.83613,-0.124207 -2.90899,-0.185678 -0.62931,-0.53102 l 2.57813,-0.390554 0,-26.000229 c 0,-18.9724 0.30409,-26.304315 1.125,-27.125229 1.60138,-1.601384 48.64862,-1.601384 50.25,0 0.81797,0.817966 1.125,7.854167 1.125,25.78125 0,16.109308 0.33096,24.65625 0.95474,24.65625 0.5251,0 11.96584,-10.230469 25.42384,-22.734375 13.45801,-12.503906 26.16587,-24.105469 28.23969,-25.78125 l 3.7706,-3.046875 30.61806,0 c 30.81581,0 32.86807,0.208052 32.86807,3.332059 0,0.595132 -13.6142,13.745493 -30.25376,29.223023 -16.63958,15.47753 -30.79252,28.790119 -31.45099,29.583532 -1.02903,1.239899 3.35309,5.682777 31.19126,31.623756 17.81367,16.59966 32.38849,30.68608 32.38849,31.30316 0,3.17431 -1.96139,3.37197 -33.45971,3.37197 l -31.20971,0 -18.99342,-17.50662 c -10.44637,-9.62864 -23.36246,-21.54661 -28.70241,-26.484377 -5.33996,-4.937766 -10.08605,-9.118378 -10.54688,-9.290253 -0.47964,-0.178892 -0.83787,10.90115 -0.83787,25.91532 0,23.05151 -0.17959,26.29674 -1.48293,26.79688 -0.8156,0.31298 -12.12185,0.56905 -25.125,0.56905 -17.13828,0 -23.95155,-0.30948 -24.76707,-1.125 z m 46.6875,-51.84375 0,-3.28125 -7.5,0 -7.5,0 0,-8.4375 0,-8.4375 -3.75,0 -3.75,0 0,11.09375 c 0,6.101563 0.28125,11.375 0.625,11.71875 0.34375,0.34375 5.40625,0.625 11.25,0.625 l 10.625,0 0,-3.28125 z m 45,0.46875 0,-2.8125 -8.90625,0 c -8.875,0 -8.90625,-0.0083 -8.90625,-2.34375 0,-2.326388 0.0625,-2.34375 8.4375,-2.34375 8.375,0 8.4375,-0.01736 8.4375,-2.34375 0,-2.327792 -0.0579,-2.34375 -8.50624,-2.34375 -7.59574,0 -8.47265,-0.175612 -8.19242,-1.640625 0.26729,-1.397308 1.59835,-1.680602 8.975,-1.910181 8.50539,-0.264707 8.66116,-0.311072 8.66116,-2.578125 l 0,-2.308569 -12.65625,0 -12.65625,0 0,11.09375 c 0,6.101563 0.28125,11.375 0.625,11.71875 0.34375,0.34375 6.03906,0.625 12.65625,0.625 l 12.03125,0 0,-2.8125 z m -361.64063,3.082551 5.39063,-0.363621 0,-11.203215 c 0,-7.066827 0.35679,-11.203215 0.96636,-11.203215 0.62521,0 0.87343,4.054264 0.70312,11.484375 l -0.26323,11.484375 -6.09375,0.08246 c -6.00862,0.08131 -6.01844,0.07738 -0.70313,-0.28116 z m 180.37096,-0.200072 c 17.00082,-0.690628 17.20717,-0.834408 17.20717,-11.989359 0,-5.013789 0.3409,-7.668085 0.9375,-7.29937 0.51562,0.318674 0.9375,3.948685 0.9375,8.066693 0,6.699463 -0.24213,7.729413 -2.30114,9.788421 -2.25288,2.252879 -2.59202,2.297689 -16.17188,2.13674 l -13.87073,-0.164397 13.26158,-0.538728 z m 41.34779,0.189337 3.04688,-0.378113 0,-11.190601 c 0,-6.835402 0.36486,-11.190602 0.9375,-11.190602 0.575,0 0.9375,4.53125 0.9375,11.71875 l 0,11.71875 -3.98438,-0.150035 c -3.45384,-0.130057 -3.57868,-0.200381 -0.9375,-0.528149 z m 30.9375,-6.425211 c -0.38671,-0.390008 -0.70312,-1.482542 -0.70312,-2.427855 0,-1.523438 0.85227,-1.71875 7.5,-1.71875 6.84368,0 7.5,0.162051 7.5,1.851796 0,1.600406 -0.32646,1.727677 -2.40478,0.9375 -3.96004,-1.505603 -10.53322,-1.157763 -10.88586,0.576058 -0.1667,0.819696 -0.61952,1.171258 -1.00624,0.781251 z M 455.625,79.6875 l 0,-5.625 7.44467,0 c 4.09457,0 7.70541,0.421875 8.02408,0.9375 0.36675,0.593418 -2.02151,0.9375 -6.50717,0.9375 l -7.08658,0 0,4.6875 c 0,2.578125 -0.42188,4.6875 -0.9375,4.6875 -0.52084,0 -0.9375,-2.5 -0.9375,-5.625 z M 276.5625,80.625 c -1.63353,-2.0625 -2.75912,-3.75 -2.50131,-3.75 0.25782,0 1.80528,1.6875 3.43881,3.75 1.63353,2.0625 2.75912,3.75 2.50131,3.75 -0.25782,0 -1.80528,-1.6875 -3.43881,-3.75 z m 256.87502,-5.43006 c -2e-5,-0.909437 1.81067,-1.143073 7.2656,-0.9375 9.25031,0.348604 8.86072,2.126934 -0.46873,2.13959 -4.93525,0.0067 -6.79686,-0.322549 -6.79687,-1.20209 z M 271.74411,74.296875 C 269.04697,71.040802 267.90423,69.375 268.36769,69.375 c 0.25974,0 1.59849,1.476562 2.975,3.28125 2.55442,3.34902 2.86374,4.613227 0.40142,1.640625 z"
       id="path3464"
       inkscape:connector-curvature="0" />
    <path
       style="fill:#95b43a"
       d="m 23.665134,78.984375 0.241116,-61.640625 23.90625,0 23.90625,0 0.251043,22.734375 0.251042,22.734375 38.872915,0 38.87291,0 0.25105,-22.734375 0.25104,-22.734375 23.90625,0 23.90625,0 0.24112,61.640625 0.24111,61.640625 -24.38174,0 -24.38174,0 0,-21.5625 0,-21.5625 -38.90625,0 -38.90625,0 0,21.5625 0,21.5625 -24.381741,0 -24.381739,0 0.241114,-61.640625 z m 67.073172,3.75 0.269555,-8.671875 4.652323,0 c 4.544246,0 4.652316,-0.06534 4.652316,-2.8125 l 0,-2.8125 -13.125,0 -13.125,0 0,2.8125 c 0,2.784091 0.05209,2.8125 5.15625,2.8125 l 5.15625,0 0,8.28125 c 0,4.554688 0.300618,8.581868 0.66804,8.94929 0.367422,0.367423 1.738516,0.543204 3.046875,0.390626 2.33287,-0.272055 2.384044,-0.444978 2.648391,-8.949291 z m 36.578684,4.21875 0.28574,-4.453125 6.92852,0 6.92852,0 0.28574,4.453125 c 0.28296,4.409858 0.31762,4.453125 3.56699,4.453125 l 3.28125,0 0.26323,-11.484375 0.26323,-11.484375 -3.77885,0 -3.77886,0 0,4.21875 0,4.21875 -7.03125,0 -7.03125,0 0,-4.21875 0,-4.21875 -3.75,0 -3.75,0 0,11.09375 c 0,6.101563 0.30125,11.394994 0.66943,11.763182 0.36819,0.368187 1.95022,0.543968 3.51563,0.390624 2.68424,-0.262942 2.86245,-0.532193 3.13193,-4.731931 z m 66.5734,1.875 0.29665,-2.578125 -9.43727,0 -9.43727,0 0,-2.34375 c 0,-2.326388 0.0625,-2.34375 8.4375,-2.34375 8.375,0 8.4375,-0.01736 8.4375,-2.34375 0,-2.327792 -0.0579,-2.34375 -8.50624,-2.34375 -7.59573,0 -8.47265,-0.175612 -8.19242,-1.640625 0.26729,-1.397308 1.59835,-1.680602 8.975,-1.910181 8.50539,-0.264707 8.66116,-0.311072 8.66116,-2.578125 l 0,-2.308569 -12.1875,0 -12.1875,0 0,11.745961 0,11.745961 12.42187,-0.261586 12.42188,-0.261586 0.29664,-2.578125 z m 41.42994,50.278835 c -12.10189,-2.64423 -21.78653,-8.58813 -25.59581,-15.70926 -2.06009,-3.85117 -2.06827,-4.06838 -2.06827,-54.9602 l 0,-51.09375 23.90625,0 23.90625,0 0.24518,37.321573 0.24518,37.321573 3.50482,-0.290323 3.50482,-0.290323 0.46875,-7.96875 c 0.32927,-5.597573 0.73766,-7.550307 1.37249,-6.5625 0.98362,1.53053 0.74436,15.053324 -0.28543,16.132538 -0.34837,0.365085 -2.44063,0.786956 -4.64949,0.9375 l -4.01611,0.273712 0.27364,4.679681 c 0.43466,7.433049 0.18616,7.385469 37.97311,7.271549 37.26219,-0.11234 37.13862,-0.0894 37.58281,-6.951758 0.32522,-5.024297 0.59261,-4.893572 -12.1829,-5.956005 -4.31831,-0.359116 -7.64231,-1.116966 -8.2825,-1.888356 -0.89251,-1.075401 -0.55335,-1.140511 2.0507,-0.393681 4.25976,1.221687 15.77643,1.128369 19.46572,-0.157728 1.7501,-0.610087 3.38531,-2.015088 3.88991,-3.342281 C 338.12396,83.549288 337.71481,82.5 334.6875,82.5 c -1.54688,0 -2.8125,-0.439515 -2.8125,-0.9767 0,-2.702225 -3.50512,-4.604055 -8.95248,-4.857495 l -5.57877,-0.259555 -0.28668,4.476127 c -0.16036,2.503743 -0.67674,4.235058 -1.17187,3.929046 -1.27728,-0.789396 -1.09029,-8.293839 0.2398,-9.623923 1.71472,-1.714722 12.8589,-1.483168 13.53597,0.28125 0.33296,0.867669 1.75791,1.40625 3.72058,1.40625 2.87931,0 3.18095,-0.255816 3.18095,-2.697708 0,-3.490553 -1.99373,-5.063903 -7.37201,-5.817616 -4.19119,-0.587353 -4.22148,-0.613635 -0.84642,-0.734414 l 3.5003,-0.125262 0.2497,-25.078125 0.24968,-25.078125 23.67187,-0.250473 23.67188,-0.250473 0,24.42865 0,24.428649 3.75,3.56729 c 3.14152,2.98846 3.75,4.168895 3.75,7.274948 0,2.039213 -0.46096,4.168617 -1.02435,4.73201 -0.7408,0.7408 -0.72579,1.582215 0.0542,3.03969 0.59322,1.108436 0.9487,3.566031 0.78997,5.461321 -0.26213,3.130008 -0.61096,3.521739 -3.80422,4.272191 l -3.51563,0.82621 0,12.131717 c 0,13.96976 -0.93824,16.79858 -7.55397,22.7755 -5.11334,4.61959 -12.07235,7.7514 -21.03385,9.46603 -10.2798,1.96685 -106.67036,1.85026 -115.77935,-0.14005 z m 0.72415,-59.185085 0.26323,-11.484375 -3.3101,0 -3.31011,0 0,11.09375 c 0,6.101563 0.30062,11.394368 0.66804,11.76179 0.36742,0.367423 1.73851,0.543204 3.04688,0.390626 l 2.37883,-0.277416 0.26323,-11.484375 z m 127.53363,8.39609 0.29687,-3.088285 6.26563,0.275785 c 6.19461,0.272658 6.27595,0.310822 7.17502,3.366676 0.7996,2.717756 1.25231,3.057283 3.75,2.8125 2.52643,-0.247599 2.87204,-0.654344 3.12464,-3.677411 0.17729,-2.121739 -0.25326,-3.936291 -1.14574,-4.828774 -1.25678,-1.25677 -1.26278,-1.568335 -0.0497,-2.575147 1.81342,-1.505006 1.76669,-7.446695 -0.0793,-10.08221 C 381.53054,68.543668 380.814,68.4375 368.85309,68.4375 l -12.60309,0 0,11.09375 c 0,6.101563 0.30125,11.394994 0.66943,11.763182 0.36819,0.368187 1.95022,0.543968 3.51563,0.390624 2.46489,-0.241455 2.88596,-0.69254 3.14305,-3.367091 z M 363.75,76.875 l 0,-2.894643 6.79687,0.275446 c 6.55155,0.265505 6.79688,0.360042 6.79688,2.619197 0,2.259155 -0.24533,2.353692 -6.79688,2.619197 l -6.79687,0.275446 0,-2.894643 z m 54.84375,62.19177 c -10.22891,-1.84655 -20.34256,-6.79602 -23.88812,-11.69051 -5.22562,-7.21377 -5.17438,-6.61615 -5.17438,-60.34501 l 0,-49.6875 23.90625,0 23.90625,0 0.24372,43.340135 0.24373,43.340135 2.75659,1.42549 c 2.36521,1.22309 9.81789,1.42549 52.49065,1.42549 l 49.73406,0 0,16.875 0,16.875 -58.35938,-0.10216 c -46.4337,-0.0813 -59.89199,-0.37883 -65.85937,-1.45607 z m 10.6058,-50.203986 0.2933,-2.543465 -9.19955,-0.269035 c -8.48488,-0.248133 -9.19955,-0.414695 -9.19955,-2.144034 0,-1.721451 0.71512,-1.89714 8.73236,-2.145356 8.40752,-0.260298 8.7214,-0.347487 8.4375,-2.34375 -0.2769,-1.947101 -0.82684,-2.089863 -9.02854,-2.343767 -7.65607,-0.237013 -8.6958,-0.468363 -8.42664,-1.875 0.2604,-1.360887 1.69384,-1.645385 9.4368,-1.872951 9.00504,-0.264658 9.12977,-0.299882 9.12977,-2.578125 l 0,-2.309801 -12.65625,0 -12.65625,0 0,11.09375 c 0,6.101563 0.29324,11.38699 0.65165,11.745394 0.35839,0.358404 5.94824,0.534185 12.42187,0.390625 l 11.77023,-0.261019 0.2933,-2.543466 z m 122.98795,28.895096 0,-22.867111 -2.10938,-0.527485 c -1.16015,-0.290109 -6.75,-0.863188 -12.42187,-1.273504 l -10.3125,-0.74603 12.96684,-0.469638 c 11.43518,-0.414162 13.12396,-0.684493 14.29688,-2.288558 1.84153,-2.518441 1.66341,-6.752175 -0.36961,-8.785194 -1.39507,-1.395067 -1.47907,-1.905685 -0.46875,-2.849462 1.75552,-1.639906 1.52135,-6.14859 -0.40974,-7.888554 -0.90234,-0.813042 -3.11718,-1.654662 -4.92187,-1.870267 l -3.28125,-0.392008 3.50032,-0.150034 3.5003,-0.150035 0.2497,-25.078125 0.24968,-25.078125 23.90625,0 23.90625,0 0.24844,27.962516 0.24843,27.962516 12.87657,-11.96256 c 7.08211,-6.579409 18.56339,-17.264104 25.51397,-23.743767 6.95056,-6.479662 14.79602,-13.785111 17.43433,-16.23433 l 4.79693,-4.453125 30.14379,0 c 16.57908,0 30.14379,0.364145 30.14379,0.809211 0,0.445066 -2.21484,2.834369 -4.92188,5.309562 -2.70703,2.475194 -8.08593,7.506696 -11.95312,11.181119 -6.21784,5.907905 -31.51911,29.400583 -34.36105,31.904855 -0.5939,0.523326 -3.66755,3.455973 -6.83035,6.516992 -5.47037,5.294332 -5.66898,5.641934 -4.07644,7.134522 0.92074,0.862967 11.79909,10.998614 24.17409,22.523659 12.375,11.52504 25.24219,23.57448 28.59375,26.77653 3.35156,3.20205 7.25391,6.72927 8.67187,7.83827 1.41797,1.10901 2.57813,2.40762 2.57813,2.88582 0,0.5165 -12.40822,0.86946 -30.56552,0.86946 l -30.56552,0 -16.54385,-15.22859 c -9.09913,-8.37573 -18.8608,-17.34057 -21.69262,-19.92188 -2.83181,-2.58131 -9.22059,-8.630564 -14.19728,-13.442798 l -9.04854,-8.749519 0.11875,4.530769 c 0.0654,2.491922 0.0205,15.394048 -0.0996,28.671398 l -0.21833,24.14062 -24.375,0 -24.375,0 0,-22.86712 z m 45.9375,-29.16413 0,-3.28125 -7.5,0 -7.5,0 0,-8.4375 0,-8.4375 -3.75,0 -3.75,0 0,11.09375 c 0,6.101563 0.28125,11.375 0.625,11.71875 0.34375,0.34375 5.40625,0.625 11.25,0.625 l 10.625,0 0,-3.28125 z m 45,0.46875 0,-2.8125 -8.90625,0 c -8.875,0 -8.90625,-0.0083 -8.90625,-2.34375 0,-2.326388 0.0625,-2.34375 8.4375,-2.34375 8.375,0 8.4375,-0.01736 8.4375,-2.34375 0,-2.327792 -0.0579,-2.34375 -8.50624,-2.34375 -7.59574,0 -8.47265,-0.175612 -8.19242,-1.640625 0.26729,-1.397308 1.59835,-1.680602 8.975,-1.910181 8.50539,-0.264707 8.66116,-0.311072 8.66116,-2.578125 l 0,-2.308569 -12.65625,0 -12.65625,0 0,11.09375 c 0,6.101563 0.28125,11.375 0.625,11.71875 0.34375,0.34375 6.03906,0.625 12.65625,0.625 l 12.03125,0 0,-2.8125 z m -361.64063,3.082551 5.39063,-0.363621 0,-11.203215 c 0,-7.066827 0.35679,-11.203215 0.96636,-11.203215 0.62521,0 0.87343,4.054264 0.70312,11.484375 l -0.26323,11.484375 -6.09375,0.08246 c -6.00862,0.08131 -6.01844,0.07738 -0.70313,-0.28116 z m 180.37096,-0.200072 c 17.00082,-0.690628 17.20717,-0.834408 17.20717,-11.989359 0,-5.013789 0.3409,-7.668085 0.9375,-7.29937 0.51562,0.318674 0.9375,3.948685 0.9375,8.066693 0,6.699463 -0.24213,7.729413 -2.30114,9.788421 -2.25288,2.252879 -2.59202,2.297689 -16.17188,2.13674 l -13.87073,-0.164397 13.26158,-0.538728 z m 41.34779,0.189337 3.04688,-0.378113 0,-11.190601 c 0,-6.835402 0.36486,-11.190602 0.9375,-11.190602 0.575,0 0.9375,4.53125 0.9375,11.71875 l 0,11.71875 -3.98438,-0.150035 c -3.45384,-0.130057 -3.57868,-0.200381 -0.9375,-0.528149 z m 30.9375,-6.425211 c -0.38671,-0.390008 -0.70312,-1.482542 -0.70312,-2.427855 0,-1.523438 0.85227,-1.71875 7.5,-1.71875 6.84368,0 7.5,0.162051 7.5,1.851796 0,1.600406 -0.32646,1.727677 -2.40478,0.9375 -3.96004,-1.505603 -10.53322,-1.157763 -10.88586,0.576058 -0.1667,0.819696 -0.61952,1.171258 -1.00624,0.781251 z M 455.625,79.6875 l 0,-5.625 7.44467,0 c 4.09457,0 7.70541,0.421875 8.02408,0.9375 0.36675,0.593418 -2.02151,0.9375 -6.50717,0.9375 l -7.08658,0 0,4.6875 c 0,2.578125 -0.42188,4.6875 -0.9375,4.6875 -0.52084,0 -0.9375,-2.5 -0.9375,-5.625 z M 276.5625,80.625 c -1.63353,-2.0625 -2.75912,-3.75 -2.50131,-3.75 0.25782,0 1.80528,1.6875 3.43881,3.75 1.63353,2.0625 2.75912,3.75 2.50131,3.75 -0.25782,0 -1.80528,-1.6875 -3.43881,-3.75 z m 256.87502,-5.43006 c -2e-5,-0.909437 1.81067,-1.143073 7.2656,-0.9375 9.25031,0.348604 8.86072,2.126934 -0.46873,2.13959 -4.93525,0.0067 -6.79686,-0.322549 -6.79687,-1.20209 z M 271.74411,74.296875 C 269.04697,71.040802 267.90423,69.375 268.36769,69.375 c 0.25974,0 1.59849,1.476562 2.975,3.28125 2.55442,3.34902 2.86374,4.613227 0.40142,1.640625 z m -13.69724,-6.505618 c 0.90235,-0.235807 2.37891,-0.235807 3.28125,0 0.90235,0.235807 0.16407,0.42874 -1.64062,0.42874 -1.80469,0 -2.54297,-0.192933 -1.64063,-0.42874 z"
       id="path3462"
       inkscape:connector-curvature="0" />
    <path
       style="fill:#778f2e"
       d="m 24.602634,78.984375 0.241116,-61.640625 22.96875,0 22.96875,0 0.251043,22.734375 0.251042,22.734375 39.810415,0 39.81041,0 0.25105,-22.734375 0.25104,-22.734375 22.96875,0 22.96875,0 0.24112,61.640625 0.24111,61.640625 -23.44424,0 -23.44424,0 0,-21.5625 0,-21.5625 -39.84375,0 -39.84375,0 0,21.5625 0,21.5625 -23.444241,0 -23.444239,0 0.241114,-61.640625 z m 66.135672,3.75 0.269555,-8.671875 4.652323,0 c 4.544246,0 4.652316,-0.06534 4.652316,-2.8125 l 0,-2.8125 -13.125,0 -13.125,0 0,2.8125 c 0,2.784091 0.05209,2.8125 5.15625,2.8125 l 5.15625,0 0,8.28125 c 0,4.554688 0.300618,8.581868 0.66804,8.94929 0.367422,0.367423 1.738516,0.543204 3.046875,0.390626 2.33287,-0.272055 2.384044,-0.444978 2.648391,-8.949291 z m 36.578684,4.21875 0.28574,-4.453125 6.92852,0 6.92852,0 0.28574,4.453125 c 0.28296,4.409858 0.31762,4.453125 3.56699,4.453125 l 3.28125,0 0.26323,-11.484375 0.26323,-11.484375 -3.77885,0 -3.77886,0 0,4.21875 0,4.21875 -7.03125,0 -7.03125,0 0,-4.21875 0,-4.21875 -3.75,0 -3.75,0 0,11.09375 c 0,6.101563 0.30125,11.394994 0.66943,11.763182 0.36819,0.368187 1.95022,0.543968 3.51563,0.390624 2.68424,-0.262942 2.86245,-0.532193 3.13193,-4.731931 z m 66.5734,1.875 0.29665,-2.578125 -9.43727,0 -9.43727,0 0,-2.34375 c 0,-2.326388 0.0625,-2.34375 8.4375,-2.34375 8.375,0 8.4375,-0.01736 8.4375,-2.34375 0,-2.327792 -0.0579,-2.34375 -8.50624,-2.34375 -7.59573,0 -8.47265,-0.175612 -8.19242,-1.640625 0.26729,-1.397308 1.59835,-1.680602 8.975,-1.910181 8.50539,-0.264707 8.66116,-0.311072 8.66116,-2.578125 l 0,-2.308569 -12.1875,0 -12.1875,0 0,11.745961 0,11.745961 12.42187,-0.261586 12.42188,-0.261586 0.29664,-2.578125 z m 48.92211,51.150795 c -16.20862,-1.99164 -28.92833,-8.7985 -32.93908,-17.62713 -1.58329,-3.48519 -1.70874,-7.45061 -1.72783,-54.617415 L 208.125,16.875 l 23.42675,0 23.42673,0 0.24514,37.265625 0.24513,37.265625 3.75,0 3.75,0 0.46875,-7.96875 c 0.33037,-5.61627 0.73679,-7.553606 1.3767,-6.5625 1.1487,1.779123 0.64238,14.138584 -0.64328,15.703125 -1.22672,1.492791 -6.56888,1.523916 -8.04592,0.04687 C 255.25,91.75 255,92.786864 255,97.290891 c 0,9.275789 -0.81638,9.053669 34.64421,9.425289 16.266,0.17045 31.82407,0.0303 34.57351,-0.31147 6.43765,-0.80023 8.59478,-2.88205 8.59478,-8.294707 l 0,-4.077497 -10.00099,-0.566349 c -7.14415,-0.40457 -10.41202,-0.977388 -11.43992,-2.005279 -1.29357,-1.293571 -1.11257,-1.345332 1.79168,-0.512403 4.35321,1.248485 15.84559,1.174502 19.57627,-0.126023 4.7055,-1.640344 6.64588,-8.322452 2.41671,-8.322452 -1.28906,0 -2.35701,-0.527344 -2.37321,-1.171875 -0.0638,-2.53516 -5.00803,-4.895404 -10.28304,-4.90879 l -5.15625,-0.01309 -0.28668,4.476127 c -0.16036,2.503743 -0.67674,4.235058 -1.17187,3.929046 -1.27728,-0.789396 -1.09029,-8.293839 0.2398,-9.623923 1.71472,-1.714722 12.8589,-1.483168 13.53597,0.28125 0.33296,0.867669 1.75791,1.40625 3.72058,1.40625 2.90392,0 3.18095,-0.243064 3.18095,-2.790888 0,-1.859993 -0.70358,-3.251602 -2.10938,-4.172142 l -2.10937,-1.381255 0.2634,-25.844172 0.2634,-25.844172 23.1741,0.25069 23.1741,0.250689 0.46875,25.547712 0.46875,25.547713 -11.98198,-8.38e-4 -11.98198,-8.37e-4 0.26323,11.484375 0.26323,11.484375 3.28125,0 c 3.02587,0 3.30436,-0.240362 3.57811,-3.088285 l 0.29687,-3.088285 6.26563,0.275785 c 6.19461,0.272658 6.27595,0.310822 7.17502,3.366676 0.7996,2.717756 1.25231,3.057283 3.75,2.8125 2.52643,-0.247599 2.87204,-0.654344 3.12464,-3.677411 0.17729,-2.121739 -0.25326,-3.936291 -1.14574,-4.828774 -1.25678,-1.25677 -1.26278,-1.568335 -0.0497,-2.575147 1.81342,-1.505006 1.76669,-7.446695 -0.0793,-10.08221 -1.82089,-2.599679 -0.3689,-2.746817 1.9391,-0.196501 1.95065,2.155439 2.37054,9.70017 0.63636,11.434346 -0.7459,0.745902 -0.77597,1.427467 -0.099,2.243213 0.53487,0.644474 0.84124,2.995918 0.68082,5.225432 -0.27466,3.817257 -0.46936,4.070794 -3.33854,4.347434 l -3.04688,0.293777 0,10.551695 c 0,13.40146 -1.48703,18.72096 -6.68695,23.92087 -4.196,4.19601 -12.60726,8.58686 -20.0318,10.45703 -3.42984,0.86395 -18.39592,1.23479 -55.78125,1.38223 -28.10156,0.11081 -52.57031,0.0201 -54.375,-0.2017 z m -6.76802,-60.057045 0.26323,-11.484375 -3.3101,0 -3.31011,0 0,11.09375 c 0,6.101563 0.30062,11.394368 0.66804,11.76179 0.36742,0.367423 1.73851,0.543204 3.04688,0.390626 l 2.37883,-0.277416 0.26323,-11.484375 z m 185.36177,59.317015 c -14.34979,-2.29711 -23.63963,-7.29221 -28.29669,-15.21499 l -2.64081,-4.49265 0,-51.09375 0,-51.09375 22.96875,0 22.96875,0 0.49221,43.59375 c 0.27071,23.976562 0.58711,43.65409 0.70312,43.72782 2.26755,1.4414 11.39566,1.81411 54.11717,2.20968 l 50.625,0.46875 0.26836,14.53125 c 0.1476,7.99219 0.0341,15.48047 -0.25224,16.64062 l -0.52059,2.10938 -56.46651,-0.0927 c -40.96384,-0.0673 -58.52562,-0.42237 -63.96652,-1.29336 z m 7.7933,-50.376106 0.2933,-2.543465 -9.19955,-0.269035 c -8.48488,-0.248133 -9.19955,-0.414695 -9.19955,-2.144034 0,-1.721451 0.71512,-1.89714 8.73236,-2.145356 8.40752,-0.260298 8.7214,-0.347487 8.4375,-2.34375 -0.2769,-1.947101 -0.82684,-2.089863 -9.02854,-2.343767 -7.65607,-0.237013 -8.6958,-0.468363 -8.42664,-1.875 0.2604,-1.360887 1.69384,-1.645385 9.4368,-1.872951 9.00504,-0.264658 9.12977,-0.299882 9.12977,-2.578125 l 0,-2.309801 -12.65625,0 -12.65625,0 0,11.09375 c 0,6.101563 0.29324,11.38699 0.65165,11.745394 0.35839,0.358404 5.94824,0.534185 12.42187,0.390625 l 11.77023,-0.261019 0.2933,-2.543466 z m 123.92545,28.437786 0,-23.324426 -12.89063,-0.798908 -12.89062,-0.798904 12.96684,-0.48693 c 11.4232,-0.42896 13.12519,-0.703463 14.29688,-2.305848 1.84153,-2.518441 1.66341,-6.752175 -0.36961,-8.785194 -1.39507,-1.395067 -1.47907,-1.905685 -0.46875,-2.849462 1.56212,-1.459236 1.59944,-6.165878 0.0591,-7.44251 -0.90715,-0.751811 -1.06598,-6.866264 -0.70312,-27.067917 l 0.4687,-26.096721 22.96875,0 22.96875,0 L 600,46.40625 c 0.42168,26.144092 0.60997,28.867454 1.875,27.120161 1.40272,-1.937461 52.04448,-49.181173 57.96256,-54.073286 l 3.1188,-2.578125 28.83432,0 c 15.85887,0 29.06875,0.234424 29.35526,0.520942 0.28652,0.286518 -2.70176,3.538141 -6.64063,7.22583 -3.93886,3.687688 -10.11469,9.497291 -13.72406,12.91023 -3.60938,3.412937 -12.67969,11.858969 -20.15625,18.768959 -7.47656,6.909989 -15.76851,14.682368 -18.42655,17.271953 l -4.83281,4.708336 33.24433,30.9375 33.24434,30.9375 -30.16744,0.24752 -30.16743,0.24751 -4.33784,-3.93874 C 631.89198,111.9337 608.05987,89.808902 604.45825,85.909506 l -4.448,-4.815756 0.21678,5.625 c 0.11923,3.09375 0.11692,16.48828 -0.005,29.76563 L 600,140.625 l -23.4375,0 -23.4375,0 0,-23.32443 z m 45,-28.70682 0,-3.28125 -7.5,0 -7.5,0 0,-8.4375 0,-8.4375 -3.75,0 -3.75,0 0,11.09375 c 0,6.101563 0.28125,11.375 0.625,11.71875 0.34375,0.34375 5.40625,0.625 11.25,0.625 l 10.625,0 0,-3.28125 z m 45,0.46875 0,-2.8125 -8.90625,0 c -8.875,0 -8.90625,-0.0083 -8.90625,-2.34375 0,-2.326388 0.0625,-2.34375 8.4375,-2.34375 8.375,0 8.4375,-0.01736 8.4375,-2.34375 0,-2.327792 -0.0579,-2.34375 -8.50624,-2.34375 -7.59574,0 -8.47265,-0.175612 -8.19242,-1.640625 0.26729,-1.397308 1.59835,-1.680602 8.975,-1.910181 8.50539,-0.264707 8.66116,-0.311072 8.66116,-2.578125 l 0,-2.308569 -12.65625,0 -12.65625,0 0,11.09375 c 0,6.101563 0.28125,11.375 0.625,11.71875 0.34375,0.34375 6.03906,0.625 12.65625,0.625 l 12.03125,0 0,-2.8125 z m -361.64063,3.082551 5.39063,-0.363621 0,-11.203215 c 0,-7.066827 0.35679,-11.203215 0.96636,-11.203215 0.62521,0 0.87343,4.054264 0.70312,11.484375 l -0.26323,11.484375 -6.09375,0.08246 c -6.00862,0.08131 -6.01844,0.07738 -0.70313,-0.28116 z m 180.37096,-0.200072 c 17.00082,-0.690628 17.20717,-0.834408 17.20717,-11.989359 0,-5.013789 0.3409,-7.668085 0.9375,-7.29937 0.51562,0.318674 0.9375,3.948685 0.9375,8.066693 0,6.699463 -0.24213,7.729413 -2.30114,9.788421 -2.25288,2.252879 -2.59202,2.297689 -16.17188,2.13674 l -13.87073,-0.164397 13.26158,-0.538728 z m 41.34779,0.189337 3.04688,-0.378113 0,-11.190601 c 0,-6.835402 0.36486,-11.190602 0.9375,-11.190602 0.575,0 0.9375,4.53125 0.9375,11.71875 l 0,11.71875 -3.98438,-0.150035 c -3.45384,-0.130057 -3.57868,-0.200381 -0.9375,-0.528149 z m 30.9375,-6.425211 c -0.38671,-0.390008 -0.70312,-1.482542 -0.70312,-2.427855 0,-1.523438 0.85227,-1.71875 7.5,-1.71875 5.37387,0 7.5006,0.332207 7.50211,1.171875 0.002,0.854348 -1.75414,1.088406 -6.47957,0.863821 -5.45415,-0.25922 -6.53198,-0.06011 -6.79898,1.255979 -0.17452,0.860219 -0.63372,1.244937 -1.02044,0.85493 z M 455.625,79.6875 l 0,-5.625 7.44467,0 c 4.09457,0 7.70541,0.421875 8.02408,0.9375 0.36675,0.593418 -2.02151,0.9375 -6.50717,0.9375 l -7.08658,0 0,4.6875 c 0,2.578125 -0.42188,4.6875 -0.9375,4.6875 -0.52084,0 -0.9375,-2.5 -0.9375,-5.625 z M 276.5625,80.625 c -1.63353,-2.0625 -2.75912,-3.75 -2.50131,-3.75 0.25782,0 1.80528,1.6875 3.43881,3.75 1.63353,2.0625 2.75912,3.75 2.50131,3.75 -0.25782,0 -1.80528,-1.6875 -3.43881,-3.75 z m 87.1875,-3.75 0,-2.894643 6.79687,0.275446 c 6.55155,0.265505 6.79688,0.360042 6.79688,2.619197 0,2.259155 -0.24533,2.353692 -6.79688,2.619197 l -6.79687,0.275446 0,-2.894643 z m 169.6875,-1.605612 c 0,-1.478696 13.62772,-1.731333 14.53125,-0.269388 0.31867,0.515625 0.23811,0.948892 -0.17904,0.962814 -0.41715,0.01392 -3.81705,0.135148 -7.55534,0.269388 -5.04405,0.181131 -6.79687,-0.06716 -6.79687,-0.962814 z M 271.74411,74.296875 C 269.04697,71.040802 267.90423,69.375 268.36769,69.375 c 0.25974,0 1.59849,1.476562 2.975,3.28125 2.55442,3.34902 2.86374,4.613227 0.40142,1.640625 z"
       id="path3460"
       inkscape:connector-curvature="0" />
    <path
       style="fill:#576922"
       d="m 25,140 c -0.34375,-0.34375 -0.625,-27.97656 -0.625,-61.40625 l 0,-60.78125 23.4375,0 23.4375,0 0,22.5 0,22.5 39.84375,0 39.84375,0 0,-22.5 0,-22.5 23.44429,0 23.44428,0 -0.24116,61.171875 -0.24116,61.171875 -23.20313,0.25075 -23.20312,0.25076 0,-21.57888 0,-21.57888 -39.84375,0 -39.84375,0 0,21.5625 0,21.5625 -22.8125,0 C 35.890625,140.625 25.34375,140.34375 25,140 Z m 65.9375,-57.03125 0,-8.90625 5.15625,0 c 5.10416,0 5.15625,-0.02841 5.15625,-2.8125 l 0,-2.8125 -13.59375,0 -13.59375,0 0,2.763506 c 0,2.672771 0.161602,2.772811 4.921875,3.046875 l 4.921875,0.283369 0.269556,8.671875 0.269555,8.671875 3.24607,0 3.246069,0 0,-8.90625 z m 36.37949,3.984375 0.28574,-4.453125 6.92852,0 6.92852,0 0.28574,4.453125 c 0.28296,4.409858 0.31762,4.453125 3.56699,4.453125 l 3.28125,0 0.26323,-11.484375 0.26323,-11.484375 -3.77885,0 -3.77886,0 0,4.21875 0,4.21875 -7.03125,0 -7.03125,0 0,-4.21875 0,-4.21875 -3.75,0 -3.75,0 0,11.775342 0,11.775343 3.51563,-0.290968 c 3.48173,-0.288162 3.51838,-0.333896 3.80136,-4.744092 z m 66.74551,2.143324 0,-2.778551 -9.14063,-0.268324 c -8.67123,-0.254546 -9.156,-0.376644 -9.4402,-2.377699 -0.29178,-2.054469 -0.0783,-2.109375 8.20313,-2.109375 8.44455,0 8.5027,-0.01603 8.5027,-2.34375 0,-2.326388 -0.0625,-2.34375 -8.4375,-2.34375 -6.875,0 -8.4375,-0.260417 -8.4375,-1.40625 0,-1.151316 1.61458,-1.40625 8.90625,-1.40625 l 8.90625,0 0,-2.8125 0,-2.8125 -12.1875,0 -12.1875,0 0,11.71875 0,11.71875 12.65625,0 12.65625,0 0,-2.778551 z M 429.375,139.99468 c -20.57348,-2.07065 -31.44964,-7.15341 -36.2574,-16.94419 l -2.64885,-5.39424 -0.28692,-49.921875 -0.28693,-49.921875 23.49005,0 23.49005,0 0,43.103388 0,43.103382 2.53568,1.66225 c 2.33344,1.52966 6.52051,1.684 52.49999,1.93521 l 49.96433,0.27298 0,16.36765 0,16.36764 -54.60938,-0.15004 c -30.03515,-0.0825 -56.08593,-0.29864 -57.89062,-0.48028 z m 0,-50.93218 0,-2.8125 -8.90625,0 c -8.875,0 -8.90625,-0.0083 -8.90625,-2.34375 0,-2.326388 0.0625,-2.34375 8.4375,-2.34375 8.375,0 8.4375,-0.01736 8.4375,-2.34375 0,-2.326388 -0.0625,-2.34375 -8.4375,-2.34375 -6.77878,0 -8.4375,-0.269538 -8.4375,-1.371069 0,-1.08485 1.81031,-1.427341 8.67187,-1.640625 l 8.67188,-0.269556 0.29664,-2.578125 0.29665,-2.578125 -12.71852,0 -12.71852,0 0,11.71875 0,11.71875 12.65625,0 12.65625,0 0,-2.8125 z m 124.67315,28.82813 c -0.007,-12.50391 -0.3243,-23.156255 -0.70313,-23.67188 -0.37882,-0.515625 -2.2708,-0.958594 -4.2044,-0.984375 -1.93359,-0.02578 -7.6289,-0.208594 -12.65625,-0.406251 l -9.14062,-0.359374 12.96801,-0.531251 c 11.39674,-0.46688 13.12901,-0.751744 14.29687,-2.351058 1.7488,-2.394883 1.69831,-7.487746 -0.089,-8.971035 -1.07078,-0.888675 -1.16004,-1.487266 -0.36468,-2.445629 0.57923,-0.697924 0.82967,-2.645857 0.55654,-4.32874 -0.2731,-1.682883 -0.59733,-3.6926 -0.72049,-4.466037 -0.12315,-0.773438 -0.15745,-12.691406 -0.0762,-26.484375 l 0.14768,-25.078125 22.96875,0 22.96875,0 0.0332,29.765625 c 0.0283,25.373335 0.21833,29.431515 1.28771,27.501432 0.68997,-1.245305 14.49142,-14.618471 30.6699,-29.718145 l 29.41545,-27.453954 30,-0.03738 30,-0.03738 -3.75,3.521098 c -2.0625,1.936604 -12.60938,11.726576 -23.4375,21.755493 -10.82813,10.028918 -22.64063,21.058558 -26.25,24.510311 -3.60938,3.451754 -7.61719,7.160219 -8.90625,8.241035 l -2.34375,1.965118 8.23883,7.727742 c 4.53136,4.250267 19.36651,18.063695 32.96699,30.696505 13.60049,12.63281 24.7641,23.28516 24.80805,23.67187 0.044,0.38672 -13.18809,0.70313 -29.4045,0.70313 l -29.48439,0 -29.77544,-27.42187 C 617.69179,98.121094 603.28799,84.304687 602.05983,82.5 l -2.23301,-3.28125 0.2757,6.09375 c 0.15163,3.351562 0.19059,17.16797 0.0866,30.70313 L 600,140.625 l -22.96875,0 -22.96875,0 -0.0143,-22.73437 z m 44.27761,-28.833465 c 0.22746,-1.54981 0.20504,-3.026372 -0.0499,-3.28125 -0.25484,-0.254878 -3.76806,-0.463415 -7.80713,-0.463415 l -7.34375,0 0,-8.4375 0,-8.4375 -3.75,0 -3.75,0 0,11.09375 c 0,6.101563 0.28125,11.375 0.625,11.71875 0.34375,0.34375 5.35837,0.625 11.1436,0.625 l 10.51859,0 0.41357,-2.817835 z m 45.56463,-0.22904 0.29665,-2.578125 -9.43727,0 -9.43727,0 0,-2.34375 c 0,-2.326388 0.0625,-2.34375 8.4375,-2.34375 8.375,0 8.4375,-0.01736 8.4375,-2.34375 0,-2.326388 -0.0625,-2.34375 -8.4375,-2.34375 -6.875,0 -8.4375,-0.260417 -8.4375,-1.40625 0,-1.151316 1.61458,-1.40625 8.90625,-1.40625 l 8.90625,0 0,-2.8125 0,-2.8125 -12.65625,0 -12.65625,0 0,11.09375 c 0,6.101563 0.29292,11.386674 0.65094,11.744692 0.35802,0.358018 6.1588,0.5338 12.89063,0.390625 l 12.23968,-0.260317 0.29664,-2.578125 z M 234.43012,138.25302 c -13.33019,-2.94344 -23.44542,-10.63597 -25.28894,-19.232 -0.65535,-3.05579 -1.01618,-21.865926 -1.01618,-52.973415 l 0,-48.235105 23.4375,0 23.4375,0 0,42.510949 c 0,42.027081 0.0225,42.531281 1.97343,44.296871 1.86634,1.68903 3.87024,1.78593 36.93282,1.78593 33.06258,0 35.06648,-0.0969 36.93282,-1.78593 1.4788,-1.33829 1.97343,-2.90248 1.97343,-6.240626 l 0,-4.45471 -9.14063,-0.608791 c -13.50595,-0.899533 -14.09599,-1.909943 -1.11533,-1.909943 10.803,0 11.44339,-0.107784 13.14975,-2.213235 C 336.69283,87.975736 337.5,85.97183 337.5,84.73989 337.5,82.975674 337.00227,82.5 335.15625,82.5 c -1.51712,0 -2.34375,-0.525643 -2.34375,-1.49035 0,-3.0538 -3.90014,-5.008069 -10.06027,-5.04096 -6.31899,-0.03374 -6.05566,-0.275031 -7.12772,6.53131 -0.20305,1.289062 -0.42662,0.354687 -0.49684,-2.07639 -0.10086,-3.491705 0.25322,-4.623987 1.6857,-5.390625 2.8367,-1.518157 10.94803,-1.200161 12.64387,0.495689 0.8924,0.892398 2.6613,1.351002 4.52009,1.171875 2.64859,-0.255239 3.01532,-0.605368 2.76314,-2.638049 -0.15994,-1.289063 -1.10916,-3.044186 -2.10938,-3.900275 -1.71672,-1.469338 -1.81859,-2.979066 -1.81859,-26.953125 l 0,-25.3966 22.93933,0 22.93933,0 0.2638,25.313121 0.26379,25.31312 -11.51323,-6.2e-4 -11.51323,-6.21e-4 0.26323,11.484375 0.26323,11.484375 3.28125,0 c 3.02587,0 3.30436,-0.240362 3.57811,-3.088285 l 0.29687,-3.088285 6.25954,0.275785 c 6.14581,0.270773 6.26827,0.326893 6.73861,3.088285 0.42059,2.469269 0.90757,2.848009 3.99045,3.103467 l 3.51142,0.290968 0,-4.304766 c 0,-3.015147 -0.43341,-4.47108 -1.44672,-4.859925 -1.28747,-0.494049 -1.27663,-0.743115 0.0985,-2.262626 1.09692,-1.212089 1.44601,-2.955036 1.20323,-6.007583 -0.28957,-3.640921 -0.16095,-4.052527 0.83899,-2.685017 1.4516,1.985186 1.55195,8.010774 0.15664,9.406083 -0.7408,0.7408 -0.7408,1.554168 0,2.938367 1.35728,2.536105 1.30378,7.007853 -0.10065,8.412282 -0.61875,0.61875 -2.30625,1.125 -3.75,1.125 l -2.625,0 0,12.21761 c 0,8.92437 -0.39246,13.15713 -1.45598,15.70313 -2.73197,6.54012 -8.84758,11.32055 -19.71269,15.40894 -5.4864,2.06447 -6.19012,2.09084 -61.33133,2.29758 -45.36382,0.17009 -56.909,-0.0398 -61.81987,-1.12424 z m 1.81988,-58.09677 0,-11.71875 -3.28125,0 -3.28125,0 0,11.71875 0,11.71875 3.28125,0 3.28125,0 0,-11.71875 z m 21.09375,12.65625 c -0.34481,-0.557923 0.77152,-0.9375 2.75717,-0.9375 l 3.33658,0 0,-8.024078 c 0,-5.110657 0.34039,-7.813705 0.9375,-7.444672 1.60326,0.990866 1.15817,14.176656 -0.53572,15.870535 -1.64857,1.648574 -5.60602,1.974965 -6.49553,0.535715 z m 24.60937,-0.664348 4.92188,-0.371139 0,-11.201007 c 0,-7.06531 0.3568,-11.201006 0.96636,-11.201006 0.62521,0 0.87343,4.054264 0.70312,11.484375 l -0.26323,11.484375 -5.625,0.08777 c -5.40528,0.08435 -5.43275,0.07328 -0.70313,-0.283368 z M 462.3983,91.937499 c 11.76525,-0.485758 13.0497,-0.71419 15,-2.667664 1.86497,-1.867995 2.12978,-3.069192 2.10777,-9.560601 -0.0139,-4.083303 0.29609,-6.918791 0.68876,-6.301086 0.39268,0.617706 0.72042,4.00321 0.72832,7.523342 0.0131,5.833281 -0.22841,6.642995 -2.72604,9.140625 L 475.45673,92.8125 462.49399,92.640624 449.53125,92.46875 462.3983,91.937499 Z m 40.80482,0.231868 3.04688,-0.413164 0,-11.190601 c 0,-7.058168 0.35685,-11.190602 0.96636,-11.190602 0.62521,0 0.87343,4.054264 0.70312,11.484375 l -0.26323,11.484375 -3.75,0.119392 c -3.02928,0.09644 -3.16442,0.03998 -0.70313,-0.293775 z M 455.625,79.6875 l 0,-5.625 7.44467,0 c 4.09457,0 7.70541,0.421875 8.02408,0.9375 0.36675,0.593418 -2.02151,0.9375 -6.50717,0.9375 l -7.08658,0 0,4.6875 c 0,2.578125 -0.42188,4.6875 -0.9375,4.6875 -0.52084,0 -0.9375,-2.5 -0.9375,-5.625 z m 78.82402,3.984375 c -0.0699,-1.992008 0.28804,-2.109375 6.43315,-2.109375 3.57894,0 6.76791,0.421875 7.08658,0.9375 0.36512,0.590777 -1.83923,0.9375 -5.9603,0.9375 -4.35456,0 -6.6977,0.391563 -7.01256,1.171875 -0.26007,0.644531 -0.50617,0.222656 -0.54687,-0.9375 z M 363.75,76.875 l 0,-2.894643 6.79687,0.275446 c 6.55155,0.265505 6.79688,0.360042 6.79688,2.619197 0,2.259155 -0.24533,2.353692 -6.79688,2.619197 l -6.79687,0.275446 0,-2.894643 z m 170.625,-1.21875 c 0,-1.348214 1.01103,-1.59375 6.5625,-1.59375 4.29553,0 6.5625,0.369987 6.5625,1.071052 0,0.74598 -1.65967,0.897585 -5.46826,0.499508 -3.6271,-0.379107 -5.83669,-0.203116 -6.5625,0.522697 -0.83399,0.833991 -1.09424,0.715189 -1.09424,-0.499507 z"
       id="path3458"
       inkscape:connector-curvature="0" />
    <path
       style="fill:#010100"
       d="m 25.3125,79.21875 0,-61.40625 22.483332,0 22.483333,0 0.251042,22.734375 0.251043,22.734375 40.3125,0 40.3125,0 0.25104,-22.734375 0.25105,-22.734375 22.48333,0 22.48333,0 0,61.40625 0,61.40625 -22.5,0 -22.5,0 0,-21.54464 0,-21.544641 -2.10938,-0.512878 c -1.16015,-0.282085 -19.40625,-0.395588 -40.54687,-0.252235 l -38.4375,0.260644 -0.251653,21.79688 -0.251654,21.79687 -22.482721,0 -22.482722,0 0,-61.40625 z m 65.824194,3.984375 0.269556,-8.671875 4.921875,-0.283369 C 101.08839,73.973817 101.25,73.873777 101.25,71.201006 l 0,-2.763506 -13.59375,0 -13.59375,0 0,2.8125 c 0,2.75 0.104167,2.8125 4.6875,2.8125 l 4.6875,0 0,8.90625 0,8.90625 3.714819,0 3.71482,0 0.269555,-8.671875 z M 127.5,87.65625 l 0,-4.21875 7.03125,0 7.03125,0 0,4.21875 0,4.21875 3.75,0 3.75,0 0,-11.71875 0,-11.71875 -3.75,0 -3.75,0 0,4.21875 0,4.21875 -7.03125,0 -7.03125,0 0,-4.21875 0,-4.21875 -3.75,0 -3.75,0 0,11.71875 0,11.71875 3.75,0 3.75,0 0,-4.21875 z m 66.5625,0.9375 0,-3.28125 -8.90625,0 c -8.28125,0 -8.90625,-0.131579 -8.90625,-1.875 0,-1.736111 0.625,-1.875 8.4375,-1.875 8.375,0 8.4375,-0.01736 8.4375,-2.34375 0,-2.326388 -0.0625,-2.34375 -8.4375,-2.34375 -6.875,0 -8.4375,-0.260417 -8.4375,-1.40625 0,-1.151316 1.61458,-1.40625 8.90625,-1.40625 l 8.90625,0 0,-2.8125 0,-2.8125 -13.125,0 -13.125,0 0,11.09375 c 0,6.101563 0.28125,11.375 0.625,11.71875 0.34375,0.34375 6.25,0.625 13.125,0.625 l 12.5,0 0,-3.28125 z m 234.88219,50.97106 c -15.80895,-1.51856 -27.34141,-5.78767 -32.5088,-12.03417 -5.37067,-6.49224 -5.49839,-7.91235 -5.49839,-61.138297 l 0,-48.579843 22.5,0 22.5,0 0,42.249132 c 0,26.700836 0.34907,42.901388 0.94853,44.021488 1.82232,3.40502 6.59228,3.71878 56.61802,3.72415 l 48.6603,0.006 -0.60962,11.95313 c -0.3353,6.57422 -0.61133,13.95703 -0.61342,16.40625 l -0.004,4.45273 -51.79688,-0.1267 c -28.48828,-0.0697 -55.57645,-0.48975 -60.19593,-0.93349 z m 0.43031,-50.97106 0,-3.28125 -8.90625,0 c -8.28125,0 -8.90625,-0.131579 -8.90625,-1.875 0,-1.736111 0.625,-1.875 8.4375,-1.875 8.375,0 8.4375,-0.01736 8.4375,-2.34375 0,-2.326388 -0.0625,-2.34375 -8.4375,-2.34375 -6.875,0 -8.4375,-0.260417 -8.4375,-1.40625 0,-1.151316 1.61458,-1.40625 8.90625,-1.40625 l 8.90625,0 0,-2.8125 0,-2.8125 -12.65625,0 -12.65625,0 0,11.71875 0,11.71875 12.65625,0 12.65625,0 0,-3.28125 z m 124.6875,28.125 0,-23.90625 -5.39063,-0.131998 -5.39062,-0.131998 4.7947,-0.585163 c 2.63709,-0.32184 5.48474,-1.157848 6.32813,-1.857794 1.76694,-1.466434 2.1213,-8.51767 0.50907,-10.129898 -0.7408,-0.7408 -0.72183,-1.589622 0.0685,-3.066448 0.79952,-1.493926 0.82284,-2.81679 0.0868,-4.928047 -0.62147,-1.782921 -1.00599,-12.686226 -1.00599,-28.527301 l 0,-25.641353 22.5,0 22.5,0 0,33.75 0,33.75 -7.96875,0 -7.96875,0 0,-8.4375 0,-8.4375 -3.75,0 -3.75,0 0,11.71875 0,11.71875 11.65935,0 11.65935,0 0.41071,-2.578125 c 0.22589,-1.417969 0.25629,-0.46875 0.0675,2.109375 -0.18874,2.578125 -0.34683,14.70703 -0.35131,26.95313 l -0.008,22.26562 -22.5,0 -22.5,0 0,-23.90625 z m 82.71612,-1.73541 c -36.95489,-33.997281 -37.6703,-34.813749 -34.9532,-39.890693 0.48835,-0.9125 8.80566,-9.005859 18.4829,-17.985243 9.67724,-8.979385 20.77377,-19.302523 24.65896,-22.940309 3.88518,-3.637785 9.43158,-8.811935 12.32532,-11.498111 l 5.26137,-4.883955 28.79761,0.248111 28.79762,0.24811 -24.21522,22.47691 C 682.6156,53.120462 668.20962,66.617799 663.92069,70.752246 l -7.79807,7.517174 3.57932,3.226648 c 1.96862,1.774656 9.48556,8.772751 16.70431,15.551316 7.21875,6.778576 20.29687,18.988666 29.0625,27.133546 8.76562,8.14489 16.07812,15.1768 16.25,15.62648 0.17358,0.45412 -12.44205,0.81759 -28.37763,0.81759 l -28.69014,0 -27.87236,-25.64166 z m 7.1089,-26.155215 -0.29377,-3.046875 -9.14063,-0.268324 c -8.36834,-0.245653 -9.14062,-0.423871 -9.14062,-2.109375 0,-1.693361 0.67687,-1.841051 8.4375,-1.841051 8.375,0 8.4375,-0.01736 8.4375,-2.34375 0,-2.326388 -0.0625,-2.34375 -8.4375,-2.34375 -6.875,0 -8.4375,-0.260417 -8.4375,-1.40625 0,-1.151316 1.61458,-1.40625 8.90625,-1.40625 l 8.90625,0 0,-2.8125 0,-2.8125 -12.65625,0 -12.65625,0 0,11.71875 0,11.71875 13.1844,0 13.1844,0 -0.29378,-3.046875 z M 239.53125,138.67897 c -12.5744,-1.88376 -23.96949,-7.94366 -28.07261,-14.92897 -1.87207,-3.18707 -1.93499,-4.75447 -2.19231,-54.609375 L 209.0014,17.8125 l 22.53056,0 22.53054,0 0,41.978901 c 0,47.696389 -0.38379,45.305249 7.54467,47.005599 5.65438,1.21265 58.44375,1.31594 64.60881,0.12641 5.50444,-1.06205 7.53402,-3.6286 7.53402,-9.527266 l 0,-4.583644 -5.85938,-0.142957 -5.85937,-0.142956 5.76232,-0.560169 c 3.73113,-0.362712 6.45747,-1.189698 7.73438,-2.346094 2.34112,-2.120159 2.72215,-7.120324 0.5426,-7.120324 -0.7862,0 -1.84089,-1.082152 -2.34375,-2.404781 -1.23141,-3.238844 -1.23968,-3.220219 1.42945,-3.220219 2.92906,0 3.12832,-2.499731 0.46875,-5.880817 -1.77021,-2.25045 -1.875,-3.803235 -1.875,-27.782679 l 0,-25.399004 22.5,0 22.5,0 0,25.3125 0,25.3125 -11.25,0 -11.25,0 0,11.71875 0,11.71875 3.75,0 c 3.54167,0 3.75,-0.15625 3.75,-2.8125 l 0,-2.8125 6.5625,0 6.5625,0 0,2.8125 c 0,2.660288 0.21563,2.82062 3.98437,2.962535 3.28557,0.123721 3.46804,0.215005 1.04042,0.520472 l -2.94396,0.370439 -0.38041,13.307654 c -0.42787,14.96793 -1.04887,16.90064 -7.22248,22.47812 -4.56837,4.12725 -9.1487,6.54094 -16.54966,8.72118 -4.98397,1.46822 -11.18004,1.66953 -57.61578,1.87195 -28.61719,0.12474 -54.5625,-0.15239 -57.65625,-0.61588 z m -2.54927,-58.757095 0.26323,-11.484375 -3.77885,0 -3.77886,0 0,11.775342 0,11.775343 3.51562,-0.290968 3.51563,-0.290967 0.26323,-11.484375 z m 21.5158,12.275684 c 0.63472,-0.256803 1.90035,-0.272435 2.8125,-0.03473 0.91216,0.237697 0.39285,0.447809 -1.15403,0.466914 -1.54688,0.01911 -2.29318,-0.175373 -1.65847,-0.432176 z m 5.26729,-8.760059 c 0,-4.382813 0.1615,-6.175781 0.35888,-3.984375 0.19737,2.191406 0.19737,5.777344 0,7.96875 -0.19738,2.191406 -0.35888,0.398437 -0.35888,-3.984375 z M 363.75,76.875 l 0,-2.8125 5.97896,0 c 6.29731,0 8.61893,1.263957 7.53066,4.099924 -0.46214,1.204334 -1.9443,1.525076 -7.04742,1.525076 l -6.4622,0 0,-2.8125 z M 315,76.930331 c 0,-0.485194 0.41705,-1.139918 0.92677,-1.454942 0.53143,-0.328442 0.68859,0.04787 0.36844,0.882172 C 315.67197,77.981699 315,78.278858 315,76.930328 Z"
       id="path3456"
       inkscape:connector-curvature="0" />
  </g>
</svg>
