<?xml version="1.0" encoding="utf-8"?>
<!-- Generator: Adobe Illustrator 27.0.0, SVG Export Plug-In . SVG Version: 6.00 Build 0)  -->
<svg version="1.1" id="Layer_1" xmlns="http://www.w3.org/2000/svg" xmlns:xlink="http://www.w3.org/1999/xlink" x="0px" y="0px"
	 viewBox="0 0 512 512" style="enable-background:new 0 0 512 512;" xml:space="preserve">
<style type="text/css">
	.st0{fill:#FFFFFF;}
	.st1{fill:#FFFF00;}
	.st2{fill:#FF0000;}
</style>
<g id="XMLID_1_">
	<rect id="XMLID_18_" x="3.51" y="3.36" class="st0" width="505.12" height="505.12"/>
	<path class="st1" d="M474.99,213.43c-0.88,15.8-5.85,35.4-10.24,48.42c-17.7,52.81-38.33,85.43-86.02,85.43
		c-14.04,0-38.91-3.66-48.13-28.67l-2.19-6l-3.95,4.97c-14.92,18.87-37.01,29.84-60.85,29.84c-18.14,0.15-32.77-6-42.28-17.55
		l-2.63-3.22l-2.78,3.07c-10.09,11.12-27.65,17.55-48.27,17.55c-16.09,0-30.13-5.41-39.35-15.36l-2.49-2.78l-2.63,2.63
		c-10.24,10.24-26.33,15.51-46.52,15.07c-24.58-0.59-39.5-14.34-39.94-36.57c-0.73-34.52,32.62-107.08,46.37-129.02
		c8.92-14.77,21.36-21.94,37.74-21.94c11.12,0,18.87,2.34,23.41,7.17c4.1,4.39,4.97,8.05,5.27,16.97l0.44,11.41l6-9.8
		c14.63-23.55,38.91-26.92,62.9-26.92c16.68,0,31.31,6.14,37.16,15.65l2.19,3.51l3.07-2.63c12.43-10.53,29.84-16.38,49.3-16.38
		c21.07,0,36.43,5.27,45.64,15.65c2.05,2.34,3.51,3.95,5.41,8.05l2.34,4.97l3.51-4.24c13.46-15.8,31.74-23.84,54.42-23.84
		c17.99,0,31.6,4.83,40.52,14.19C474.11,184.91,475.72,201.58,474.99,213.43 M3.51,508.64h505.12V3.36H3.51V508.64z"/>
	<path class="st2" d="M489.33,232.74c-2.34,18.43-14.77,52.37-21.36,65.97c-17.7,36.43-41.4,64.51-87.04,64.51
		c-24.28,0-44.32-7.75-56.17-22.67c-17.12,15.07-38.33,22.97-61.29,22.97c-17.7,0-33.21-5.12-45.06-14.48
		c-13.17,9.22-30.72,14.34-50.32,14.34c-16.38,0-31.01-4.53-42.57-12.73c-12.73,8.48-29.4,12.73-49.01,12.14
		c-32.62-0.73-55.15-21.5-55.88-51.49c-0.88-39.94,32.77-112.93,48.57-138.24c11.85-19.46,29.99-29.99,52.08-29.99
		c24.14,0,32.77,6.88,37.16,15.65c18.58-15.8,43.15-16.68,60.71-16.68c19.31,0,31.45,5.12,41.84,13.31
		c14.34-8.48,30.57-13.02,50.18-13.02c24.87,0,43.45,5.85,56.32,18.58c15.07-12.58,33.94-18.29,55-18.29
		c27.94,0,46.23,10.09,57.05,25.01C494.74,189,492.11,210.21,489.33,232.74 M3.51,508.64h505.12V3.36H3.51V508.64z"/>
	<path d="M7.02,7.02h497.96v497.96H7.02V7.02z M0,512h512V0H0V512z"/>
	<path d="M489.03,142.19c-6.73,0-12.29,5.41-12.29,12.29c0,6.73,5.41,12.29,12.29,12.29c6.88,0,12.29-5.41,12.29-12.29
		C501.32,147.75,495.76,142.19,489.03,142.19 M489.03,144.68c5.41,0,9.95,4.39,9.95,9.8s-4.39,9.8-9.95,9.8
		c-5.41,0-9.8-4.39-9.8-9.8C479.23,149.07,483.62,144.68,489.03,144.68z M495.32,160.91l-1.46-2.49c-1.32-2.19-1.61-2.63-2.78-2.93
		l0,0c2.19-0.29,3.36-1.61,3.36-3.51c0-2.05-1.32-3.51-3.95-3.51h-6.29v12.73h2.63v-5.27h0.44c1.17,0,1.61,0.15,2.05,0.59
		c0.44,0.59,1.32,1.61,1.76,2.49l1.02,2.05L495.32,160.91L495.32,160.91z M486.84,153.6v-3.51h2.34c1.76,0,2.63,0.59,2.63,1.76
		c0,0.88-0.59,1.76-2.34,1.76H486.84L486.84,153.6z"/>
	<path d="M425.69,212.41c-0.59,13.02-19.75,65.39-26.48,76.95c-2.93,4.97-6.29,9.22-12.29,9.07c-5.27,0-7.61-3.66-7.75-7.9
		c-0.44-11.85,21.21-70.95,28.67-80.6c3.22-5.12,7.02-5.85,11.12-5.85C425.11,204.21,425.84,208.6,425.69,212.41 M460.51,233.76
		c-4.39,21.65-14.19,47.4-24.72,66.41c-17.41,31.16-38.47,35.55-56.76,35.4c-18.43-0.29-39.06-7.02-39.2-35.4
		c-0.15-20.33,8.63-49.15,16.09-68.02c13.02-34.23,26.33-62.03,68.32-61.59C473.09,171.15,464.46,214.75,460.51,233.76z
		 M305.01,203.34c-7.17,0-11.7,4.53-15.21,9.36c-7.61,10.68-23.99,53.39-26.62,70.95c-1.76,12,3.51,14.48,9.07,14.48
		c9.07,0,19.31-9.65,22.82-25.45c0,0-17.26-0.44-12.58-15.8c4.68-14.92,13.46-18.14,28.09-18.72c28.82-1.17,25.89,20.04,23.55,31.45
		c-7.46,36.72-33.65,66.27-70.66,66.27c-25.31,0-41.11-14.04-41.11-39.94c0-18.43,9.07-47.25,16.38-64.22
		c15.36-35.99,31.6-61.29,72.7-61.29c24.72,0,44.18,8.92,41.4,32.04c-2.05,16.97-10.53,26.92-26.04,28.23
		c-4.39,0.29-21.94-0.15-16.09-16.82C312.91,208.02,313.78,203.34,305.01,203.34z M176.13,267.12c-1.76,4.53-4.97,14.19-7.46,24.43
		c8.34-2.05,14.77-3.51,25.45-3.36c12.29,0.29,20.19,5.41,20.19,15.65c0,24.72-27.21,31.89-46.23,31.89
		c-20.77,0-39.06-11.85-39.06-34.52c0-26.62,14.48-67,27.94-93.92c16.68-33.06,33.65-37.45,62.9-37.45
		c12.87,0,27.65,5.56,27.65,17.7c0,16.82-14.34,23.26-28.38,24.14c-6,0.29-15.36,0.73-20.92,0.29c0,0-4.68,7.17-9.65,19.89
		c26.19-3.66,37.3,2.19,32.91,17.41C215.63,269.6,197.92,270.92,176.13,267.12z M92.75,290.67c25.6-4.39,32.04,4.83,31.31,13.31
		c-2.34,25.75-26.04,31.45-46.37,31.01c-14.77-0.29-28.23-7.17-28.53-24.43c-0.59-30.13,30.13-99.91,44.62-123.03
		c6.73-10.97,14.77-16.38,27.79-16.38c12.29,0,15.36,6.29,15.21,13.9C136.05,205.39,103.42,266.83,92.75,290.67z M422.33,155.36
		c-26.48,0-44.76,10.53-57.05,25.16c-2.05-4.39-3.66-6.29-5.85-8.78c-10.09-11.41-26.48-16.82-48.27-16.82
		c-21.36,0-39.2,6.73-51.49,17.12c-6.44-10.39-21.65-17.41-40.23-17.41c-24.14,0-50.32,3.36-65.97,28.53
		c-0.29-9.07-1.17-13.75-6.29-19.16c-6.14-6.58-16.24-8.19-25.89-8.19c-17.7,0-31.16,7.75-40.67,23.55
		c-13.9,22.24-47.69,95.52-46.96,130.93c0.44,22.97,15.8,39.5,43.45,40.08c21.5,0.59,38.33-5.27,49.15-16.09
		c9.65,10.39,24.28,16.53,41.84,16.53c19.6,0,39.2-5.85,50.91-18.72c9.8,12,25.16,19.02,45.06,18.87
		c25.89-0.15,48.71-12.43,63.49-31.31c8.19,22.24,28.82,31.01,51.49,31.01c49.59,0,71.24-34.08,89.38-87.92
		c4.1-12.14,9.51-32.33,10.39-49.44C480.11,185.34,468.11,155.36,422.33,155.36z"/>
</g>
</svg>
