<?xml version="1.0" encoding="utf-8"?>
<!-- Generator: Adobe Illustrator 15.1.0, SVG Export Plug-In . SVG Version: 6.00 Build 0)  -->
<!DOCTYPE svg PUBLIC "-//W3C//DTD SVG 1.1//EN" "http://www.w3.org/Graphics/SVG/1.1/DTD/svg11.dtd">
<svg version="1.1" id="Layer_1" xmlns="http://www.w3.org/2000/svg" xmlns:xlink="http://www.w3.org/1999/xlink" x="0px" y="0px"
	 width="588px" height="122px" viewBox="0 0 588 122" enable-background="new 0 0 588 122" xml:space="preserve">
<g>
	<polygon fill="#ED1C24" points="549.108,119.468 24.509,119.468 29.197,96.921 542.57,96.921 	"/>
	<g>
		<path fill="#ED1C24" d="M1.361,119.827l21.363-97.382l21.866-0.037l0.074,36.543l21.533-36.543l23.904,0.037L74.907,91.194H54.375
			l6.264-27.796L46.11,91.194H31.693L31.656,64.25l-12.136,55.688L1.361,119.827z"/>
		<path fill="#ED1C24" d="M96.063,44.2h47.809l-3.706,17.456h-29.278l-2.298,10.118h29.241l-4.262,19.383l-47.92,0.037L96.063,44.2z
			 M96.063,44.2h47.809l-3.706,17.456h-29.278l-2.298,10.118h29.241l-4.262,19.383l-47.92,0.037L96.063,44.2z M100.844,22.445
			l47.957-0.037l-3.595,15.862H97.286L100.844,22.445z M100.844,22.445l47.957-0.037l-3.595,15.862H97.286L100.844,22.445z"/>
		<path fill="#ED1C24" d="M154.002,22.445l55.222-0.037l-3.559,15.908l-17.418,0.037l-11.6,52.804l-20.235,0.037l11.6-52.804
			l-17.493-0.037L154.002,22.445z"/>
		<path fill="#ED1C24" d="M210.372,44.349h37.358l6.338,46.845l-22.497-0.037l-2.372-27.796h-7.042l-14.454,27.833h-23.905
			l25.239-44.881L210.372,44.349z M246.878,38.234l-2.558-15.825h-22.756l-8.895,15.825H246.878z"/>
		<path fill="#ED1C24" d="M272.87,22.445l19.346-0.037l-11.341,51.033l28.426-0.037l-3.928,17.753l-47.772,0.037L272.87,22.445z"/>
		<path fill="#ED1C24" d="M350.692,61.879l3.965-17.642h32.207l-10.378,46.919h-44.028l-12.194-37.674l26.537-31.038l44.918-0.037
			l-3.633,15.974h-30.5l-15.492,16.252l4.929,17.362h15.418l2.224-10.117H350.692z"/>
		<path fill="#ED1C24" d="M395.185,44.2h47.809l-3.706,17.456h-29.278l-2.298,10.118h29.241l-4.262,19.383l-47.921,0.037
			L395.185,44.2z M395.185,44.2h47.809l-3.706,17.456h-29.278l-2.298,10.118h29.241l-4.262,19.383l-47.921,0.037L395.185,44.2z
			 M399.965,22.445l47.958-0.037l-3.595,15.862h-47.921L399.965,22.445z M399.965,22.445l47.958-0.037l-3.595,15.862h-47.921
			L399.965,22.445z"/>
		<path fill="#ED1C24" d="M463.644,44.349h37.357l6.337,46.845l-22.496-0.037l-2.371-27.796h-7.043l-14.453,27.833H437.07
			l25.238-44.881L463.644,44.349z M500.149,38.234l-2.559-15.825h-22.755l-8.896,15.825H500.149z"/>
		<path fill="#ED1C24" d="M524.498,22.445h34.281l3.483,0.371c5.634,0.593,9.118,3.424,10.452,8.492
			c0.913,3.461,1.371,6.675,1.371,9.641c0,7.737-3.225,13.449-9.674,17.132l-7.708,3.3l20.211,58.558l-20.05-0.037l-21.435-57.504
			l-6.375,28.797h-19.79l10.34-47.067h34.208l2.372-0.334l1.223-0.481l1.001-0.631l0.52-1.111v-0.927l-0.52-1.111l-1.223-0.815
			l-1.335-0.408l-34.801-0.147L524.498,22.445z"/>
	</g>
	<g>
		<path fill="#FFFFFF" d="M186.243,104.303l-4.84-0.031c-0.15-0.496-0.514-0.884-1.092-1.164c-0.578-0.279-1.212-0.421-1.902-0.421
			c-1.306,0-1.958,0.367-1.958,1.099c0,0.238,0.094,0.437,0.281,0.599c0.188,0.161,0.702,0.371,1.542,0.631l3.152,0.937
			c0.811,0.238,1.568,0.593,2.273,1.066c0.705,0.475,1.212,0.992,1.52,1.553c0.307,0.56,0.461,1.162,0.461,1.81
			c0,1.659-0.785,3.033-2.352,4.12c-1.569,1.089-3.658,1.634-6.27,1.634c-2.236,0-4.187-0.377-5.853-1.132
			c-1.666-0.755-2.552-2.23-2.656-4.429l4.884,0.033c0.496,1.163,1.711,1.745,3.647,1.745c0.811,0,1.396-0.124,1.756-0.372
			c0.36-0.247,0.54-0.521,0.54-0.825c0-0.214-0.071-0.397-0.214-0.548c-0.143-0.151-0.292-0.259-0.45-0.324
			c-0.158-0.064-0.904-0.312-2.24-0.742c-1.816-0.539-3.088-0.976-3.815-1.31c-0.728-0.334-1.336-0.824-1.824-1.471
			c-0.487-0.646-0.731-1.4-0.731-2.263c0-1.509,0.664-2.785,1.992-3.831c1.328-1.044,3.358-1.566,6.089-1.566
			c2.086,0,3.872,0.367,5.358,1.099C185.027,100.931,185.928,102.299,186.243,104.303z"/>
		<path fill="#FFFFFF" d="M229.148,115.842c-2.296,0-4.285-0.614-5.966-1.842c-1.681-1.229-2.521-2.994-2.521-5.301
			c0-2.651,0.941-4.907,2.825-6.771s4.348-2.796,7.395-2.796c2.431,0,4.427,0.651,5.987,1.955c1.561,1.305,2.342,3.001,2.342,5.091
			c0,2.694-0.927,4.977-2.78,6.853C234.576,114.905,232.148,115.842,229.148,115.842z M229.192,112.157
			c1.005,0,1.771-0.35,2.296-1.051c0.525-0.699,0.938-1.724,1.238-3.069c0.3-1.347,0.45-2.258,0.45-2.732
			c0-0.797-0.229-1.406-0.687-1.826s-1.069-0.63-1.834-0.63c-1.441,0-2.458,0.824-3.05,2.474c-0.593,1.647-0.889,3.108-0.889,4.379
			C226.717,111.338,227.542,112.157,229.192,112.157z"/>
		<path fill="#FFFFFF" d="M293.145,111.803l-0.968,4.008h-16.567l4.051-16.711h7.361l-3.084,12.703H293.145z"/>
		<path fill="#FFFFFF" d="M339.921,99.132l-4.164,16.679h-7.091l4.164-16.679H339.921z"/>
		<path fill="#FFFFFF" d="M373.305,115.811l3.601-16.679h7.181c1.727,0,3.129,0.097,4.209,0.291c1.081,0.192,2.128,0.614,3.141,1.26
			c1.014,0.646,1.778,1.477,2.297,2.489c0.518,1.013,0.775,2.155,0.775,3.426c0,1.639-0.397,3.115-1.192,4.428
			c-0.796,1.315-1.842,2.355-3.141,3.119c-1.298,0.767-2.565,1.234-3.804,1.406c-1.237,0.173-2.968,0.26-5.188,0.26H373.305z
			 M380.552,112.061h1.441c1.53,0,2.659-0.166,3.388-0.502c0.728-0.333,1.354-0.952,1.88-1.857c0.524-0.905,0.787-2.004,0.787-3.298
			c0-2.455-1.207-3.685-3.624-3.685h-1.867L380.552,112.061z"/>
	</g>
	<g>
		<path fill="#ED1C24" d="M73.989,4.296l-3.655,8.801h-8.167l3.655-8.801h-6.023l1.083-2.609h20.395l-1.083,2.609H73.989z"/>
		<path fill="#ED1C24" d="M88.247,1.687h7.287l4.376,11.432h-6.993l-0.293-1.438H86.69l-1.354,1.438h-7.287L88.247,1.687z
			 M91.45,5.578l-3.813,4.688h4.76L91.45,5.578z"/>
		<path fill="#ED1C24" d="M113.987,8.674h6.971c-0.918,1.445-2.339,2.55-4.264,3.317c-1.926,0.767-4.354,1.15-7.287,1.15
			c-3.174,0-5.697-0.468-7.569-1.404C99.966,10.8,99.03,9.603,99.03,8.143c0-1.695,1.154-3.195,3.463-4.5s5.486-1.957,9.532-1.957
			c2.948,0,5.332,0.391,7.151,1.172s2.572,1.894,2.256,3.339l-6.61-0.022c-0.015-0.664-0.251-1.161-0.71-1.494
			c-0.459-0.331-1.229-0.497-2.313-0.497c-1.88,0-3.166,0.601-3.857,1.803c-0.692,1.202-1.038,2.149-1.038,2.841
			c0,1.121,1.015,1.681,3.046,1.681c1.007,0,1.819-0.144,2.436-0.431C113.002,9.791,113.536,9.323,113.987,8.674z"/>
		<path fill="#ED1C24" d="M135.848,4.296l-3.655,8.801h-8.167l3.654-8.801h-6.023l1.083-2.609h20.394l-1.083,2.609H135.848z"/>
		<path fill="#ED1C24" d="M153.421,1.687l-4.173,11.41h-7.106l4.174-11.41H153.421z"/>
		<path fill="#ED1C24" d="M168.739,8.674h6.971c-0.917,1.445-2.339,2.55-4.264,3.317s-4.354,1.15-7.287,1.15
			c-3.173,0-5.696-0.468-7.569-1.404c-1.872-0.936-2.809-2.134-2.809-3.593c0-1.695,1.154-3.195,3.463-4.5
			c2.309-1.305,5.485-1.957,9.532-1.957c2.947,0,5.332,0.391,7.151,1.172c1.819,0.781,2.572,1.894,2.256,3.339l-6.61-0.022
			c-0.016-0.664-0.252-1.161-0.711-1.494c-0.459-0.331-1.229-0.497-2.313-0.497c-1.88,0-3.166,0.601-3.857,1.803
			c-0.692,1.202-1.038,2.149-1.038,2.841c0,1.121,1.015,1.681,3.045,1.681c1.008,0,1.819-0.144,2.437-0.431
			C167.754,9.791,168.288,9.323,168.739,8.674z"/>
		<path fill="#ED1C24" d="M186.787,1.687h7.287l4.376,11.432h-6.993l-0.293-1.438h-5.933l-1.354,1.438h-7.287L186.787,1.687z
			 M189.99,5.578l-3.813,4.688h4.76L189.99,5.578z"/>
		<path fill="#ED1C24" d="M217.062,10.354l-0.97,2.742h-16.604l4.061-11.433h7.377l-3.091,8.69H217.062z"/>
		<path fill="#ED1C24" d="M254.398,10.465l-0.767,2.632h-14.483l3.271-11.41h14.145l-0.722,2.498h-8.437l-0.497,1.792h7.084
			l-0.723,2.477h-7.083l-0.564,2.012H254.398z"/>
		<path fill="#ED1C24" d="M273.348,5.224l-4.851-0.021c-0.15-0.339-0.515-0.604-1.094-0.796c-0.58-0.191-1.214-0.288-1.906-0.288
			c-1.309,0-1.963,0.25-1.963,0.752c0,0.162,0.094,0.298,0.282,0.409c0.188,0.111,0.703,0.254,1.545,0.432l3.159,0.641
			c0.812,0.162,1.571,0.405,2.279,0.729c0.707,0.325,1.214,0.678,1.522,1.062c0.308,0.383,0.463,0.796,0.463,1.238
			c0,1.135-0.787,2.075-2.358,2.82c-1.572,0.744-3.666,1.116-6.283,1.116c-2.241,0-4.196-0.258-5.865-0.774
			s-2.557-1.526-2.662-3.029l4.896,0.022c0.496,0.796,1.714,1.194,3.655,1.194c0.812,0,1.398-0.084,1.76-0.254
			c0.36-0.169,0.542-0.357,0.542-0.564c0-0.147-0.072-0.273-0.214-0.376c-0.143-0.103-0.293-0.177-0.452-0.221
			c-0.158-0.044-0.906-0.213-2.244-0.508c-1.82-0.369-3.095-0.667-3.824-0.896c-0.73-0.229-1.339-0.564-1.828-1.006
			c-0.488-0.443-0.733-0.959-0.733-1.549c0-1.031,0.665-1.904,1.997-2.62c1.331-0.715,3.365-1.073,6.103-1.073
			c2.09,0,3.88,0.25,5.369,0.752C272.13,2.917,273.032,3.853,273.348,5.224z"/>
		<path fill="#ED1C24" d="M280.883,8.895l-1.15,4.202h-5.438l3.136-11.41h6.204c1.459,0,2.52,0.037,3.181,0.11
			s1.346,0.254,2.053,0.542c0.706,0.288,1.271,0.67,1.692,1.149c0.421,0.479,0.631,0.999,0.631,1.559
			c0,1.062-0.575,1.968-1.726,2.72c-1.15,0.752-2.794,1.128-4.929,1.128H280.883z M281.56,6.462h1.286
			c1.985,0,2.978-0.405,2.978-1.216c0-0.737-0.827-1.105-2.481-1.105h-1.151L281.56,6.462z"/>
		<path fill="#ED1C24" d="M301.277,1.687l-4.174,11.41h-7.106l4.173-11.41H301.277z"/>
		<path fill="#ED1C24" d="M308.812,13.118c-2.301,0-4.294-0.419-5.978-1.26c-1.686-0.84-2.527-2.049-2.527-3.626
			c0-1.813,0.943-3.357,2.832-4.632c1.887-1.275,4.357-1.913,7.41-1.913c2.437,0,4.438,0.445,6.001,1.338
			c1.563,0.892,2.347,2.053,2.347,3.482c0,1.843-0.929,3.405-2.786,4.688C314.252,12.477,311.819,13.118,308.812,13.118z
			 M308.857,10.598c1.007,0,1.773-0.24,2.301-0.719c0.526-0.479,0.939-1.18,1.241-2.101c0.301-0.921,0.451-1.544,0.451-1.869
			c0-0.545-0.229-0.961-0.688-1.249s-1.072-0.432-1.839-0.432c-1.443,0-2.463,0.564-3.057,1.691
			c-0.594,1.128-0.891,2.127-0.891,2.997C306.376,10.037,307.203,10.598,308.857,10.598z"/>
		<path fill="#ED1C24" d="M339.967,1.687l-3.654,11.41h-4.851l-6.339-7.231l-2.009,7.231h-5.324l3.655-11.41h5.866l5.662,6.7
			l1.76-6.7H339.967z"/>
		<path fill="#ED1C24" d="M348.246,1.687h7.287l4.377,11.432h-6.994l-0.293-1.438h-5.934l-1.354,1.438h-7.287L348.246,1.687z
			 M351.449,5.578l-3.813,4.688h4.762L351.449,5.578z"/>
		<path fill="#ED1C24" d="M370.332,7.016h10.062l-2.075,6.125h-3.315l-0.204-1.238c-1.323,0.811-3.398,1.216-6.227,1.216
			c-2.075,0-3.771-0.217-5.088-0.652c-1.314-0.435-2.326-0.958-3.033-1.569c-0.707-0.612-1.061-1.39-1.061-2.333
			c0-1.872,1.09-3.486,3.271-4.843c2.181-1.356,5.083-2.034,8.708-2.034c5.113,0,8.189,1.371,9.227,4.112l-5.888-0.022
			c-0.437-0.987-1.58-1.481-3.43-1.481c-1.669,0-2.868,0.508-3.598,1.525s-1.094,2.012-1.094,2.985c0,1.297,1.052,1.946,3.158,1.946
			c1.639,0,2.804-0.465,3.496-1.394h-3.744L370.332,7.016z"/>
		<path fill="#ED1C24" d="M395.847,10.465l-0.767,2.632h-14.483l3.271-11.41h14.146l-0.723,2.498h-8.438l-0.496,1.792h7.084
			l-0.722,2.477h-7.084l-0.563,2.012H395.847z"/>
		<path fill="#ED1C24" d="M428.401,1.687h7.287l4.376,11.432h-6.994l-0.293-1.438h-5.934l-1.353,1.438h-7.287L428.401,1.687z
			 M431.604,5.578l-3.813,4.688h4.76L431.604,5.578z"/>
		<path fill="#ED1C24" d="M454.142,8.674h6.971c-0.918,1.445-2.339,2.55-4.263,3.317c-1.927,0.767-4.354,1.15-7.288,1.15
			c-3.173,0-5.695-0.468-7.569-1.404c-1.872-0.936-2.809-2.134-2.809-3.593c0-1.695,1.154-3.195,3.464-4.5
			c2.309-1.305,5.485-1.957,9.531-1.957c2.948,0,5.332,0.391,7.152,1.172c1.818,0.781,2.571,1.894,2.255,3.339l-6.609-0.022
			c-0.016-0.664-0.252-1.161-0.711-1.494c-0.459-0.331-1.229-0.497-2.313-0.497c-1.88,0-3.166,0.601-3.857,1.803
			c-0.692,1.202-1.038,2.149-1.038,2.841c0,1.121,1.016,1.681,3.046,1.681c1.007,0,1.819-0.144,2.437-0.431
			C453.156,9.791,453.69,9.323,454.142,8.674z"/>
		<path fill="#ED1C24" d="M476.002,4.296l-3.654,8.801h-8.168l3.655-8.801h-6.023l1.083-2.609h20.395l-1.083,2.609H476.002z"/>
		<path fill="#ED1C24" d="M493.576,1.687l-4.174,11.41h-7.106l4.174-11.41H493.576z"/>
		<path fill="#ED1C24" d="M501.11,13.118c-2.301,0-4.294-0.419-5.979-1.26c-1.685-0.84-2.525-2.049-2.525-3.626
			c0-1.813,0.942-3.357,2.831-4.632c1.887-1.275,4.357-1.913,7.41-1.913c2.437,0,4.437,0.445,6.001,1.338
			c1.563,0.892,2.347,2.053,2.347,3.482c0,1.843-0.93,3.405-2.786,4.688C506.552,12.477,504.118,13.118,501.11,13.118z
			 M501.156,10.598c1.007,0,1.773-0.24,2.301-0.719c0.526-0.479,0.939-1.18,1.24-2.101c0.301-0.921,0.451-1.544,0.451-1.869
			c0-0.545-0.229-0.961-0.688-1.249s-1.072-0.432-1.839-0.432c-1.443,0-2.462,0.564-3.057,1.691
			c-0.594,1.128-0.891,2.127-0.891,2.997C498.675,10.037,499.502,10.598,501.156,10.598z"/>
		<path fill="#ED1C24" d="M532.266,1.687l-3.654,11.41h-4.851l-6.339-7.231l-2.008,7.231h-5.324l3.655-11.41h5.864l5.663,6.7
			l1.76-6.7H532.266z"/>
	</g>
	<g>
		<path fill="#ED1C24" d="M574.606,27.701v-6.949h-2.596v-0.929h6.245v0.929h-2.606v6.949H574.606z"/>
		<path fill="#ED1C24" d="M579.293,27.701v-7.878h1.569l1.864,5.578c0.173,0.52,0.298,0.908,0.377,1.167
			c0.089-0.287,0.229-0.708,0.419-1.263l1.886-5.481h1.403v7.878h-1.005v-6.594l-2.29,6.594h-0.94l-2.278-6.707v6.707H579.293z"/>
	</g>
</g>
</svg>
