<?xml version="1.0" encoding="utf-8"?>
<!-- Generator: Adobe Illustrator 16.0.0, SVG Export Plug-In . SVG Version: 6.00 Build 0)  -->
<!DOCTYPE svg PUBLIC "-//W3C//DTD SVG 1.1//EN" "http://www.w3.org/Graphics/SVG/1.1/DTD/svg11.dtd">
<svg version="1.1" id="Calque_1" xmlns="http://www.w3.org/2000/svg" xmlns:xlink="http://www.w3.org/1999/xlink" x="0px" y="0px"
	 width="589.037px" height="185.965px" viewBox="0 0 589.037 185.965" enable-background="new 0 0 589.037 185.965"
	 xml:space="preserve">
<g>
	<g>
		<path fill-rule="evenodd" clip-rule="evenodd" fill="#FF5727" d="M24.396,182.89C16.352,186.15,8.611,185.668,0,184.259
			c0-27.579,0-54.86,0-83.035c10.845-2.006,21.832-4.039,33.516-6.198c5.031,16.33,9.812,31.853,15.706,50.987
			c5.808-21.19,10.677-38.958,15.576-56.83c11.353-2.082,21.878-4.011,33.303-6.105c0,29.407,0,57.64,0,86.821
			c-7.437,1.452-14.869,2.902-23.55,4.6c0-16.336,0-31.895,0-47.453c-0.61-0.057-1.222-0.112-1.833-0.171
			c-4.477,16.589-8.956,33.176-13.555,50.215c-6.343,1.339-12.342,2.606-19.364,4.09c-5.004-16.146-9.733-31.397-15.403-49.69
			C24.396,150.506,24.396,166.318,24.396,182.89z"/>
		<path fill-rule="evenodd" clip-rule="evenodd" fill="#FF5727" d="M275.961,50.285c20.325-3.431,40.024-9.224,60.623-9.142
			c6.664,0.026,13.445,1.739,16.089,8.748c3.685,9.769,2.951,19.418-3.964,27.868c-1.646,2.011-3.737,3.653-6.313,6.129
			c20.056,7.078,8.081,25.031,14.977,38.087c-9.699,1.828-18.411,3.471-28.083,5.292c-2.337-15.077,2.162-37.071-25.979-23.809
			c0,8.937,0,18.428,0,28.516c-9.516,1.829-17.873,3.435-27.35,5.257C275.961,107.857,275.961,79.688,275.961,50.285z
			 M304.163,82.566c8.994-2.605,18.439-0.964,23.699-9.81c1.58-2.657,0.918-6.064-1.539-7.931
			c-7.456-5.664-14.548-0.437-22.16,0.835C304.163,71.186,304.163,76.276,304.163,82.566z"/>
		<path fill-rule="evenodd" clip-rule="evenodd" fill="#FF5727" d="M505.204,94.859c0-29.782,0-57.806,0-86.741
			c19.298-2.854,37.714-9.594,57.141-7.828c23.137,2.104,33.106,28.045,22.385,56.43c-4.005,10.605-10.943,18.551-20.917,23.792
			C545.732,90.017,525.579,90.536,505.204,94.859z M533.709,23.817c0,15.299,0,30.053,0,45.126
			c11.44-1.129,20.896-4.144,24.218-15.709c2.827-9.839,4.983-20.416-2.88-28.73C549.347,18.478,541.65,21.464,533.709,23.817z"/>
		<path fill-rule="evenodd" clip-rule="evenodd" fill="#FF5727" d="M418.019,22.917c21.155,0.011,35.577,14.502,35.667,35.836
			c0.14,33.509-23.077,57.026-56.429,57.163c-21.722,0.087-34.847-14.101-34.978-37.811C362.102,46.156,385.588,22.9,418.019,22.917
			z M425.603,66.297c-1.732-9.267-0.715-21.32-14.217-21.29c-16.958,0.037-20.208,13.139-20.363,26.67
			c-0.114,10.024-0.019,22.399,14.231,22.061C422.193,93.332,423.742,79.233,425.603,66.297z"/>
		<path fill-rule="evenodd" clip-rule="evenodd" fill="#FF5727" d="M112.119,167.655c0-29.416,0-57.661,0-87.246
			c22.566-4.204,45.338-8.448,68.465-12.757c2.271,6.844,1.681,12.89,0.471,19.927c-13.5,2.694-27.056,5.398-41.018,8.186
			c0,3.892,0,7.14,0,11.861c11.479-1.819,22.673-3.591,34.623-5.484c0,6.688,0,12.54,0,19.498
			c-11.368,2.337-22.786,4.684-34.643,7.118c0,4.288,0,7.994,0,13.326c14.355-2.508,28.107-4.91,42.204-7.373
			c2.793,6.53,1.801,12.542,0.82,19.697C159.702,158.768,136.429,163.114,112.119,167.655z"/>
		<path fill-rule="evenodd" clip-rule="evenodd" fill="#FF5727" d="M242.491,143.357c-9.778,1.777-18.126,3.296-27.979,5.088
			c0-21.696,0-41.976,0-63.747c-9.081,1.345-16.706,2.476-25.191,3.733c0-7.479,0-14.035,0-22.326
			c25.501-4.685,51.328-9.432,78.001-14.334c0,7.859,0,14.678,0,22.165c-8.026,1.739-15.918,3.449-24.831,5.381
			C242.491,100.513,242.491,121.312,242.491,143.357z"/>
		<path fill-rule="evenodd" clip-rule="evenodd" fill="#FF5727" d="M491.295,10.911c0,29.283,0,57.252,0,86.355
			c-8.721,1.723-17.265,3.413-26.978,5.333c0-29.171,0-57.479,0-86.891C472.927,14.178,481.726,12.612,491.295,10.911z"/>
	</g>
</g>
</svg>
