<?xml version="1.0" encoding="UTF-8" standalone="no"?>
<!-- Created with Inkscape (http://www.inkscape.org/) -->

<svg
   xmlns:svg="http://www.w3.org/2000/svg"
   xmlns="http://www.w3.org/2000/svg"
   version="1.1"
   width="200.3925"
   height="31.4275"
   id="svg2"
   xml:space="preserve"><defs
     id="defs6"><clipPath
       id="clipPath18"><path
         d="m 21,21 595.276,0 0,297.638 L 21,318.638 21,21 z"
         id="path20" /></clipPath><clipPath
       id="clipPath26"><path
         d="m 11.847,11.562 612.96,0 0,316.08 -612.96,0 0,-316.08 z"
         id="path28" /></clipPath><clipPath
       id="clipPath34"><path
         d="m 19.767,20.202 597.36,0 0,299.52 -597.36,0 0,-299.52 z"
         id="path36" /></clipPath><clipPath
       id="clipPath196"><path
         d="m 215.109,28.85 -107.669,0 0,45.348 107.669,0 0,-45.348 z"
         id="path198" /></clipPath><clipPath
       id="clipPath204"><path
         d="m 94.25,33.888 130,0 0,41 -130,0 0,-41 z"
         id="path206" /></clipPath><clipPath
       id="clipPath560"><path
         d="m 0,0 637.276,0 0,339.638 L 0,339.638 0,0 z"
         id="path562" /></clipPath></defs><g
     transform="matrix(1.25,0,0,-1.25,-485.61125,349.285)"
     id="g12"><g
       id="g14"><g
         clip-path="url(#clipPath18)"
         id="g16"><g
           id="g22"><g
             clip-path="url(#clipPath26)"
             id="g24"><g
               id="g30"><g
                 clip-path="url(#clipPath34)"
                 id="g32"><g
                   id="g38"><g
                     transform="matrix(597.35994,0,0,299.51999,19.766571,20.202331)"
                     id="g40" /></g></g></g></g></g><g
           id="g192"><g
             clip-path="url(#clipPath196)"
             id="g194"><g
               id="g200"><g
                 clip-path="url(#clipPath204)"
                 id="g202" /></g></g></g><path
           d="m 407.093,278.764 130.532,-0.544 c 0,0 10.166,-1.27 10.166,-11.8 0,0 -1.816,-11.256 -10.53,-11.256 l -131.438,0 1.27,23.6 z"
           id="path432"
           style="fill:#ffe4b8;fill-opacity:1;fill-rule:nonzero;stroke:none" /><path
           d="m 388.489,266.839 c 0,-6.923 5.629,-12.553 12.552,-12.553 6.924,0 12.555,5.63 12.555,12.553 0,6.922 -5.631,12.551 -12.555,12.551 -6.923,0 -12.552,-5.629 -12.552,-12.551"
           id="path434"
           style="fill:#632b26;fill-opacity:1;fill-rule:nonzero;stroke:none" /><path
           d="m 391.83,260.707 c 0.27,-0.405 1.027,-1.181 1.627,-1.556 0.911,-0.571 2.677,-0.885 4.168,-0.642 2.301,0.372 3.384,1.142 4.527,1.825 1.394,0.83 2.477,1.65 4.232,1.901 0.437,0.062 1.022,0.1 1.846,-0.135 1.087,-0.309 1.874,-1.059 1.925,-1.537 l 0,0.002 c 1.223,1.785 1.95,3.961 1.95,6.268 0,6.103 -4.963,11.067 -11.069,11.067 -2.949,0 -5.728,-1.15 -7.823,-3.244 -2.09,-2.091 -3.24,-4.871 -3.24,-7.823 0,-1.674 0.372,-3.89 1.857,-6.126"
           id="path436"
           style="fill:#ffe4b8;fill-opacity:1;fill-rule:nonzero;stroke:none" /><path
           d="m 395.63,261.801 c 0,0 0.112,0.456 0.189,0.922 0.162,1.147 0.207,2.495 0.104,4.648 -0.104,2.297 -0.224,4.09 -0.582,5.758 -0.351,1.65 -0.23,2.018 0.594,2.358 1.009,0.415 2.399,1.154 5.09,1.047 3.04,-0.121 5.672,-1.128 6.724,-1.812 1.043,-0.683 1.112,-0.771 0.625,-2.087 -0.492,-1.318 -1.07,-4.002 -1.158,-5.504 -0.069,-1.286 -0.176,-2.921 -0.183,-3.914 l -0.015,-0.024 c -0.312,-0.013 -0.865,-0.126 -1.204,-0.242 -1.349,-0.452 -2.503,-1.044 -3.745,-1.908 -1.482,-1.028 -2.808,-1.823 -4.492,-2.067 -2.32,-0.329 -3.418,0.138 -4.241,0.798 -0.88,0.708 -1.265,1.693 -0.888,2.264 0.357,0.537 1.106,0.667 2.025,0.416 0.344,-0.162 0.851,-0.297 1.157,-0.653"
           id="path438"
           style="fill:#632b26;fill-opacity:1;fill-rule:nonzero;stroke:none" /><path
           d="m 398.399,271.943 c 0.343,-1.183 0.031,-5.241 0.013,-5.749 -0.014,-0.551 -0.096,-1.192 -0.486,-1.632 -0.328,-0.372 -0.611,-0.53 -0.611,-0.53 l 0.611,-0.938 c 0,0 0.901,0.495 1.662,0.635 1.173,0.218 1.435,-0.476 2.757,-0.586 1.543,-0.127 2.473,0.948 2.659,2.122 0.2,1.24 -0.401,2.238 -1.364,2.595 -1.016,0.378 -2.241,0.052 -2.516,-0.946 -0.181,-0.661 0.246,-1.249 0.688,-1.359 0.941,-0.242 1.143,0.63 1.143,0.63 0,0 -0.222,-0.305 -0.627,-0.116 -0.211,0.104 -0.272,0.466 -0.174,0.695 0.164,0.396 0.738,0.676 1.377,0.47 0.752,-0.244 1.108,-1.028 1.063,-1.719 -0.059,-0.898 -0.529,-1.677 -1.497,-1.772 -0.784,-0.078 -1.57,0.671 -2.201,0.856 -0.861,0.253 -1.535,0.028 -2.402,-0.527 0,0 1.274,1.853 1.265,3.249 -0.01,1.378 -0.683,4.021 -0.551,4.871 0.045,0.287 0.215,0.818 0.959,1.08 0.842,0.292 1.32,-0.309 1.186,-0.631 -0.106,-0.253 0.557,0.085 0.557,0.557 0,0.844 -1.269,1.552 -2.46,0.664 -1.142,-0.852 -1.78,-0.954 -1.78,-0.954 0,0 0.588,-0.468 0.729,-0.965"
           id="path440"
           style="fill:#ffe4b8;fill-opacity:1;fill-rule:nonzero;stroke:none" /><path
           d="m 416.401,277.585 119.14,0 0.208,0.002 c 5.919,0 11.213,-4.798 11.213,-10.717 0,-5.92 -4.797,-10.717 -10.716,-10.717 l -0.122,-0.01 -119.723,0 -5.98,0 c -0.345,0.004 -0.666,0.029 -1.33,0.029 -0.384,0 -0.543,0.285 -0.35,0.57 0.225,0.341 1.11,1.301 1.11,1.301 l -8.864,-3.731 135.265,0 -0.006,-0.001 c 6.934,0 12.557,5.623 12.557,12.559 0,6.935 -5.623,12.558 -12.557,12.558 l -0.36,-0.011 -134.899,0 8.864,-3.731 c 0,0 -0.885,0.958 -1.11,1.298 -0.193,0.285 -0.034,0.57 0.35,0.57 0.664,0 0.985,0.028 1.33,0.031 l 5.98,0 z"
           id="path442"
           style="fill:#632b26;fill-opacity:1;fill-rule:nonzero;stroke:none" /><path
           d="m 500.134,263.687 c 0.006,0.098 -0.121,0.177 -0.233,0.199 -0.16,0.03 -0.21,-0.006 -0.3,-0.221 -0.186,-0.453 -0.664,-1.665 -1.017,-2.02 -0.597,-0.597 -1.157,-0.675 -1.635,-0.783 -0.191,-0.042 -0.731,-0.02 -1.211,-0.031 -0.678,-0.014 -0.93,0.209 -0.93,0.209 -0.323,0.743 -0.154,4.549 -0.079,8.658 0.069,3.643 0.095,4.108 0.198,4.269 0.113,0.168 0.173,0.156 0.688,0.184 0.434,0.025 0.643,0.048 0.789,0.487 l 0.084,0.471 -6.266,0 c 0,0 -0.091,-0.588 0.358,-0.842 0.062,-0.035 0.31,-0.046 0.515,-0.046 0.434,0 0.649,-0.315 0.787,-0.737 0.112,-0.333 0.433,-4.137 0.393,-8.96 l -0.246,-3.615 c 0,-0.484 -0.067,-0.995 -1.006,-1.155 -0.094,-0.015 -0.334,-0.083 -0.432,-0.181 -0.193,-0.192 -0.157,-0.344 0.021,-0.503 0.119,-0.109 0.857,-0.056 4.101,-0.056 3.317,0 3.851,0.007 3.779,-0.609 -0.035,-0.292 0.083,-0.417 0.201,-0.441 0.398,-0.073 0.559,0.57 0.559,0.57 0.252,0.989 0.852,4.517 0.882,5.153"
           id="path444"
           style="fill:#632b26;fill-opacity:1;fill-rule:nonzero;stroke:none" /><path
           d="m 499.801,259.105 3.39,0 c 0,0 0.023,0.188 0.023,0.306 0,0.191 -0.116,0.23 -0.339,0.23 -0.652,0 -0.736,0.6 -0.736,0.993 0,0.552 0.119,1.63 0.27,1.817 0.275,0.346 1.933,0.14 1.933,0.14 0.595,0.027 0.719,-0.33 0.917,-1.153 0.108,-0.449 0.13,-0.742 0.142,-0.991 0.023,-0.436 -0.061,-0.602 -0.185,-0.739 -0.088,-0.098 -0.205,-0.143 -0.314,-0.121 -0.213,0.04 -0.348,-0.108 -0.313,-0.343 l 0.024,-0.139 3.834,0 c 0,0 0.105,0.196 0.105,0.316 0,0.192 -0.029,0.22 -0.224,0.22 -0.503,0 -0.92,0.963 -1.683,3.892 -0.093,0.355 -0.197,0.733 -0.231,0.837 -0.035,0.106 -0.138,0.5 -0.227,0.878 -0.09,0.378 -0.229,0.962 -0.308,1.297 -0.183,0.763 -0.456,2.09 -0.719,3.46 -0.131,0.692 -0.226,1.105 -0.368,1.107 -0.051,0 -0.398,-0.271 -0.768,-0.388 -0.749,-0.231 -0.828,-0.314 -0.968,-0.993 -0.132,-0.642 -0.384,-1.804 -0.465,-2.117 -0.344,-1.363 -1.267,-4.871 -1.36,-5.227 -0.181,-0.708 -0.432,-1.552 -0.535,-1.793 -0.035,-0.084 -0.084,-0.273 -0.155,-0.398 -0.322,-0.555 -0.413,-0.462 -0.665,-0.555 -0.253,-0.092 -0.075,-0.536 -0.075,-0.536 m 2.848,4.567 c -0.151,0.167 -0.154,0.372 -0.014,0.928 0.058,0.231 0.239,0.949 0.402,1.597 0.182,0.722 0.342,1.206 0.416,1.252 0.195,0.123 0.356,10e-4 0.408,-0.308 0.026,-0.16 0.459,-1.604 0.735,-2.64 0.085,-0.318 0.134,-0.75 -0.091,-0.852 -0.462,-0.207 -1.331,-0.138 -1.476,-0.138 -0.049,0 -0.31,0.084 -0.38,0.161"
           id="path446"
           style="fill:#632b26;fill-opacity:1;fill-rule:nonzero;stroke:none" /><path
           d="m 538.755,263.672 c -0.119,0.148 -0.324,0.345 -0.905,1.233 -0.145,0.221 -0.312,0.556 -0.41,0.725 -0.516,0.881 -1.444,2.959 -1.747,3.657 -0.265,0.613 -0.268,0.834 -0.017,0.93 0.154,0.058 0.306,0.125 0.306,0.342 l 0,0.26 -4.02,0 c 0,0 -0.208,-0.446 0.239,-0.602 0.117,-0.04 0.32,-0.083 0.445,-0.188 0.421,-0.355 0.437,-0.811 0.42,-4.971 -0.008,-2.078 -0.04,-4.12 -0.04,-4.539 0,-0.395 -0.154,-0.73 -0.392,-0.815 -0.113,-0.041 -0.339,-0.098 -0.42,-0.178 -0.173,-0.172 -0.141,-0.393 -0.141,-0.393 l 3.069,0 c 0,0 0.021,0.393 -0.19,0.458 -0.295,0.093 -0.536,0.145 -0.77,0.686 -0.168,0.386 -0.173,0.452 -0.178,3.522 l -0.007,3.658 c 0,0.2 0.267,0.014 0.267,0.014 0.161,-0.229 0.322,-0.65 0.853,-1.681 0.107,-0.21 2.268,-4.135 2.754,-4.853 0.241,-0.356 0.497,-0.734 0.565,-0.839 0.285,-0.436 0.595,-0.911 0.884,-1.282 0.148,-0.188 0.325,-0.442 0.586,-0.442 0.116,0 0.27,0.088 0.251,0.389 -0.011,0.168 -0.053,1.146 -0.097,2.174 -0.081,2.043 0.024,8.247 0.151,8.783 0.085,0.349 0.268,0.558 0.571,0.608 0.276,0.045 0.292,0.491 0.292,0.491 l -3.356,0 c 0,0 -0.206,-0.375 0.506,-0.515 0.459,-0.088 0.779,-0.322 0.779,-1.25 0,-0.266 0.063,-1.818 0.05,-3.119 l -0.019,-2.365 c 0,-0.216 -0.189,-0.014 -0.279,0.102"
           id="path448"
           style="fill:#632b26;fill-opacity:1;fill-rule:nonzero;stroke:none" /><path
           d="m 513.257,259.411 c -0.07,0.23 -0.242,0.198 -0.416,0.23 -0.108,0.021 -0.345,-0.045 -0.507,0.323 -0.17,0.382 -0.183,0.511 -0.223,2.597 l 0.017,2.147 c 0,0 0.023,0.244 0.208,0.508 0.368,0.529 0.797,1.192 0.99,1.566 0.379,0.741 0.806,1.727 1.242,2.766 0.197,0.473 0.271,0.715 0.433,0.715 0.112,0 0.188,0.168 0.188,0.413 l 0,0.143 -3.159,0 c 0,0 -0.185,-0.147 -0.156,-0.352 0.021,-0.14 0.19,-0.225 0.462,-0.231 0.552,-0.013 0.561,-0.158 0.598,-0.553 0.03,-0.323 -0.169,-1.171 -0.276,-1.52 -0.3,-0.967 -0.912,-1.972 -1.105,-1.991 -0.182,-0.017 -0.206,0.042 -0.285,0.115 -0.148,0.134 -0.229,0.289 -0.306,0.458 -0.277,0.617 -0.431,0.925 -0.621,1.538 -0.194,0.625 -0.477,1.578 -0.451,1.761 0.021,0.142 0.079,0.187 0.274,0.205 0.277,0.026 0.361,0.57 0.361,0.57 l -3.597,0 c 0,0 -0.134,-0.573 0.196,-0.64 0.133,-0.028 0.311,-0.114 0.396,-0.191 0.157,-0.141 0.714,-1.812 1.111,-2.534 0.415,-0.754 1.268,-2.234 1.354,-2.423 0.145,-0.314 0.271,-0.91 0.26,-2.339 -0.004,-0.86 -0.032,-1.85 -0.061,-2.201 -0.048,-0.606 -0.059,-0.642 -0.289,-0.783 -0.134,-0.086 -0.324,-0.09 -0.484,-0.159 -0.269,-0.115 -0.184,-0.429 -0.184,-0.429 l 3.986,0 0.044,0.291 z"
           id="path450"
           style="fill:#632b26;fill-opacity:1;fill-rule:nonzero;stroke:none" /><path
           d="m 437.88,259.094 c 1.139,0.526 1.841,1.274 2.361,2.506 0.183,0.438 0.436,1.06 0.572,1.933 0.113,0.736 0.113,2.148 -0.085,3.051 -0.097,0.441 -0.255,1.118 -0.465,1.58 -0.306,0.676 -0.834,1.301 -1.246,1.671 -0.506,0.457 -1.31,0.817 -2.379,0.862 -0.312,0.013 -1.114,-0.056 -1.606,-0.342 -1.632,-0.947 -2.123,-2.501 -2.254,-2.836 -0.25,-0.636 -0.403,-1.468 -0.483,-2.428 -0.063,-0.744 0.173,-2.314 0.463,-3.083 0.622,-1.649 1.9,-2.89 3.232,-3.134 0.55,-0.101 1.233,-0.107 1.89,0.22 m -2.345,1.465 c -0.295,0.295 -0.594,0.659 -0.753,1.064 -0.386,0.986 -0.568,2.521 -0.459,4.045 0.172,2.4 1.029,3.893 2.232,3.891 0.972,-0.002 1.692,-0.8 2.106,-2.335 0.226,-0.834 0.285,-3.411 0.126,-4.379 -0.135,-0.83 -0.321,-1.367 -0.432,-1.564 -0.371,-0.671 -1.033,-1.128 -1.296,-1.184 -0.618,-0.132 -1.011,-0.051 -1.524,0.462"
           id="path452"
           style="fill:#632b26;fill-opacity:1;fill-rule:nonzero;stroke:none" /><path
           d="m 474.778,259.094 c 1.139,0.526 1.841,1.274 2.359,2.506 0.185,0.438 0.439,1.06 0.572,1.933 0.114,0.736 0.114,2.148 -0.085,3.051 -0.095,0.441 -0.253,1.118 -0.464,1.58 -0.308,0.676 -0.834,1.301 -1.246,1.671 -0.506,0.457 -1.31,0.817 -2.378,0.862 -0.313,0.013 -1.115,-0.056 -1.608,-0.342 -1.631,-0.947 -2.123,-2.501 -2.253,-2.836 -0.25,-0.636 -0.403,-1.468 -0.483,-2.428 -0.063,-0.744 0.173,-2.314 0.463,-3.083 0.62,-1.649 1.901,-2.89 3.232,-3.134 0.55,-0.101 1.233,-0.107 1.891,0.22 m -2.346,1.465 c -0.296,0.295 -0.594,0.659 -0.754,1.064 -0.384,0.986 -0.567,2.521 -0.458,4.045 0.172,2.4 1.029,3.893 2.233,3.891 0.971,-0.002 1.691,-0.8 2.106,-2.335 0.226,-0.834 0.284,-3.411 0.125,-4.379 -0.135,-0.83 -0.321,-1.367 -0.431,-1.564 -0.372,-0.671 -1.035,-1.128 -1.298,-1.184 -0.618,-0.132 -1.009,-0.051 -1.523,0.462"
           id="path454"
           style="fill:#632b26;fill-opacity:1;fill-rule:nonzero;stroke:none" /><path
           d="m 459.389,259.041 c 1.236,0.463 2.047,1.748 2.042,3.411 -0.002,0.681 -0.134,1.32 -0.39,1.805 -0.391,0.744 -0.789,1.117 -1.946,1.83 -1.87,1.149 -1.94,1.209 -2.057,1.729 -0.185,0.823 0.161,1.498 0.859,1.679 0.814,0.21 1.636,-0.237 2.106,-1.399 0.131,-0.327 0.145,-0.757 0.185,-0.853 0.091,-0.222 0.433,-0.201 0.46,0.069 0.02,0.206 0,0.675 0,0.83 0,0.553 0.083,1.019 0.159,1.785 0.091,0.895 -0.054,1.104 -0.343,0.725 -0.216,-0.282 -0.531,-0.377 -0.715,-0.276 -0.17,0.093 -0.783,0.299 -1.346,0.321 -0.227,0.008 -0.937,-0.029 -1.326,-0.229 -0.402,-0.208 -0.826,-0.548 -1.196,-1.175 -0.301,-0.506 -0.387,-1.196 -0.393,-1.75 -0.005,-0.638 0.157,-1.165 0.415,-1.681 0.208,-0.415 1.013,-1.175 1.912,-1.751 0.411,-0.264 0.804,-0.494 0.997,-0.607 0.492,-0.284 0.83,-0.623 1.008,-0.936 0.206,-0.369 0.355,-0.776 0.298,-1.175 -0.092,-0.645 -0.323,-0.967 -0.621,-1.151 -0.323,-0.199 -0.647,-0.256 -1.112,-0.245 -0.376,0.01 -0.686,0.176 -1.005,0.406 -0.624,0.449 -1,1.037 -1.253,1.685 -0.089,0.227 -0.236,0.833 -0.269,0.922 -0.08,0.201 -0.408,0.164 -0.506,-0.058 -0.037,-0.084 0.01,-0.883 0.048,-1.387 0.048,-0.607 -0.059,-1.539 -0.118,-2.107 -0.05,-0.482 -0.3,-0.714 0.068,-0.921 0.167,-0.094 0.364,0.383 0.449,0.646 0.066,0.206 0.179,0.456 0.339,0.476 0.115,0.013 0.264,-0.024 0.334,-0.084 0.19,-0.161 0.82,-0.484 1.205,-0.577 0.759,-0.185 1.438,-0.06 1.712,0.043"
           id="path456"
           style="fill:#632b26;fill-opacity:1;fill-rule:nonzero;stroke:none" /><path
           d="m 466.276,259.041 c 1.235,0.463 2.047,1.748 2.041,3.411 -0.002,0.681 -0.135,1.32 -0.389,1.805 -0.391,0.744 -0.789,1.117 -1.948,1.83 -1.868,1.149 -1.939,1.209 -2.056,1.729 -0.185,0.823 0.161,1.498 0.859,1.679 0.814,0.21 1.636,-0.237 2.106,-1.399 0.133,-0.327 0.145,-0.757 0.185,-0.853 0.091,-0.222 0.433,-0.201 0.461,0.069 0.019,0.206 0,0.675 0,0.83 0,0.553 0.082,1.019 0.159,1.785 0.088,0.895 -0.055,1.104 -0.344,0.725 -0.216,-0.282 -0.53,-0.377 -0.714,-0.276 -0.17,0.093 -0.783,0.299 -1.346,0.321 -0.228,0.008 -0.937,-0.029 -1.326,-0.229 -0.403,-0.208 -0.827,-0.548 -1.198,-1.175 -0.299,-0.506 -0.385,-1.196 -0.391,-1.75 -0.006,-0.638 0.156,-1.165 0.414,-1.681 0.208,-0.415 1.013,-1.175 1.912,-1.751 0.411,-0.264 0.805,-0.494 0.997,-0.607 0.493,-0.284 0.83,-0.623 1.007,-0.936 0.207,-0.369 0.356,-0.776 0.3,-1.175 -0.093,-0.645 -0.323,-0.967 -0.622,-1.151 -0.321,-0.199 -0.646,-0.256 -1.112,-0.245 -0.375,0.01 -0.685,0.176 -1.004,0.406 -0.625,0.449 -1,1.037 -1.253,1.685 -0.089,0.227 -0.236,0.833 -0.27,0.922 -0.079,0.201 -0.407,0.164 -0.506,-0.058 -0.038,-0.084 0.011,-0.883 0.049,-1.387 0.048,-0.607 -0.06,-1.539 -0.119,-2.107 -0.051,-0.482 -0.299,-0.714 0.069,-0.921 0.167,-0.094 0.364,0.383 0.449,0.646 0.066,0.206 0.179,0.456 0.339,0.476 0.113,0.013 0.264,-0.024 0.334,-0.084 0.188,-0.161 0.819,-0.484 1.205,-0.577 0.759,-0.185 1.439,-0.06 1.712,0.043"
           id="path458"
           style="fill:#632b26;fill-opacity:1;fill-rule:nonzero;stroke:none" /><path
           d="m 419.708,260.157 c -0.262,0.508 -0.352,0.896 -0.352,3.993 l 0,2.63 0.61,0.053 c 2.098,0.178 3.781,1.231 4.611,3.126 0.433,0.989 0.584,2.697 0.311,3.642 -0.17,0.582 -0.394,1.117 -0.911,1.511 -0.376,0.285 -0.807,0.372 -1.531,0.392 -0.559,0.017 -0.766,-0.04 -1.656,-0.144 -1.427,-0.167 -2.606,-0.321 -3.559,-0.321 l -1.767,0 -0.074,-0.176 c -0.114,-0.151 -0.171,-0.306 -0.104,-0.455 0.075,-0.165 0.111,-0.118 0.527,-0.118 0.562,0 0.717,-0.073 0.829,-0.396 0.172,-0.492 0.239,-2.95 0.229,-8.344 l -0.011,-4.612 c 0,-0.622 -0.123,-0.873 -0.228,-0.954 -0.16,-0.124 -0.327,-0.122 -0.477,-0.122 -0.372,0 -0.57,-0.094 -0.683,-0.269 -0.144,-0.227 0.09,-0.445 0.09,-0.445 l 5.665,0 c 0.103,0.126 0.039,0.458 -0.064,0.528 -0.125,0.083 -0.232,0.148 -0.585,0.148 -0.212,0 -0.74,0.079 -0.87,0.333 m -0.231,7.736 -0.115,0.073 -0.02,2.862 c 0,1.262 -0.013,2.021 0.014,2.357 0.046,0.581 0.162,0.613 0.381,0.72 0.366,0.177 1.351,0.224 1.757,0.069 1.053,-0.402 1.445,-1.149 1.366,-2.877 -0.035,-0.749 -0.332,-1.457 -0.477,-1.696 -0.266,-0.446 -0.534,-0.691 -0.827,-0.911 -0.249,-0.186 -0.724,-0.517 -1.242,-0.6 -0.252,-0.04 -0.558,-0.062 -0.837,0.003"
           id="path460"
           style="fill:#632b26;fill-opacity:1;fill-rule:nonzero;stroke:none" /><path
           d="m 429.306,264.976 c 0.762,0.439 1.32,0.982 1.7,1.85 0.307,0.702 0.414,1.914 0.22,2.584 -0.12,0.413 -0.279,0.793 -0.646,1.072 -0.266,0.202 -0.572,0.263 -1.086,0.278 -0.397,0.012 -0.543,-0.03 -1.174,-0.102 -1.013,-0.118 -1.85,-0.228 -2.525,-0.228 l -1.254,0 -0.052,-0.125 c -0.081,-0.107 -0.122,-0.216 -0.074,-0.323 0.053,-0.115 0.078,-0.082 0.373,-0.082 0.399,0 0.509,-0.053 0.59,-0.282 0.121,-0.349 0.169,-2.093 0.161,-5.92 l -0.008,-3.272 c 0,-0.44 -0.087,-0.618 -0.161,-0.675 -0.114,-0.089 -0.232,-0.088 -0.339,-0.088 -0.263,0 -0.404,-0.066 -0.483,-0.191 -0.104,-0.161 0.063,-0.314 0.063,-0.314 l 4.018,0 c 0.074,0.088 0.029,0.325 -0.045,0.373 -0.088,0.059 -0.164,0.105 -0.415,0.105 -0.151,0 -0.525,0.057 -0.618,0.236 -0.185,0.361 -0.249,0.637 -0.249,2.834 l 0,1.866 0.299,0.022 c 0.347,-0.046 0.697,-0.703 0.991,-1.313 0.322,-0.668 1.041,-2.288 1.728,-4.653 0.414,-1.428 1.381,-2.049 2.119,-2.049 0.439,0 1.128,0.322 1.359,1.428 0.059,0.285 -0.231,0.506 -0.438,0.414 -0.123,-0.054 -0.159,-0.233 -0.207,-0.414 -0.092,-0.345 -0.434,-0.599 -0.691,-0.599 -0.53,0 -1.29,1.313 -1.267,3.017 0.027,2.027 -0.299,3.271 -0.806,3.709 -0.67,0.578 -0.862,0.404 -1.06,0.483 -0.115,0.045 -0.158,0.282 -0.023,0.359 m -1.918,0.385 -0.081,0.052 -0.015,2.03 c 0,0.896 -0.009,1.434 0.01,1.672 0.033,0.412 0.115,0.436 0.269,0.51 0.261,0.126 0.959,0.159 1.248,0.049 0.747,-0.285 1.025,-0.815 0.968,-2.039 -0.024,-0.533 -0.235,-1.034 -0.337,-1.204 -0.19,-0.316 -0.38,-0.491 -0.588,-0.647 -0.176,-0.131 -0.513,-0.367 -0.88,-0.426 -0.18,-0.029 -0.396,-0.043 -0.594,0.003"
           id="path462"
           style="fill:#632b26;fill-opacity:1;fill-rule:nonzero;stroke:none" /><path
           d="m 447.058,267.358 c 0,0 -0.414,0.184 -0.599,-0.207 -0.089,-0.188 0.047,-0.554 -0.093,-0.83 -0.137,-0.276 -1.035,-0.299 -1.404,-0.299 -0.369,0 -0.852,-0.115 -0.99,0.299 -0.139,0.414 0.092,2.35 0.092,2.464 0,0.116 -0.046,0.208 0.207,0.278 0.253,0.068 1.566,0.092 2.004,-0.094 0.437,-0.184 0.092,-0.575 0.345,-0.782 0.254,-0.208 0.415,-0.161 0.484,0.231 0.069,0.391 0.023,0.645 0.023,0.99 -0.005,1.591 0.153,1.868 -0.029,1.868 -0.097,0 -0.139,-0.101 -0.231,-0.256 -0.178,-0.299 -0.195,-0.459 -3.087,-0.466 -2.397,-0.005 -2.633,-0.017 -2.727,-0.137 -0.056,-0.073 -0.093,-0.201 -0.084,-0.285 0.016,-0.123 0.129,-0.156 0.446,-0.195 0.216,-0.026 0.39,-0.083 0.438,-0.102 0.368,-0.152 0.283,-6.166 0.283,-6.166 l -0.007,-3.272 c 0,-0.439 -0.087,-0.619 -0.161,-0.676 -0.114,-0.087 -0.232,-0.087 -0.339,-0.087 -0.264,0 -0.405,-0.066 -0.484,-0.191 -0.103,-0.161 0.063,-0.315 0.063,-0.315 l 4.019,0 c 0.072,0.089 0.027,0.326 -0.046,0.374 -0.088,0.058 -0.164,0.105 -0.415,0.105 -0.151,0 -0.524,0.056 -0.617,0.236 -0.185,0.361 -0.249,0.636 -0.249,2.834 l 0.025,0.396 c 0,1.193 0.02,1.448 0.118,1.529 0.162,0.134 2.228,0.208 2.37,0.061 0.054,-0.055 0.02,-0.301 0.138,-0.505 0.093,-0.163 0.161,-0.301 0.453,-0.377 l 0.219,0.025 -0.104,1.103 c -0.053,0.845 -0.061,2.449 -0.061,2.449"
           id="path464"
           style="fill:#632b26;fill-opacity:1;fill-rule:nonzero;stroke:none" /><path
           d="m 453.092,259.124 c 0.588,-0.035 0.476,-0.62 0.485,-0.703 0.021,-0.206 0.368,-0.39 0.46,-0.068 0.427,1.493 0.553,3.132 0.553,3.317 0,0.183 -0.022,0.414 -0.185,0.39 -0.273,-0.039 -0.321,-0.322 -0.46,-0.644 -0.118,-0.275 -0.253,-0.576 -0.507,-0.737 -0.432,-0.274 -2.233,-0.3 -2.441,-0.254 -0.208,0.046 -0.184,1.704 -0.166,2.252 l 0.027,0.396 c 0,1.193 0.019,1.448 0.117,1.529 0.161,0.134 2.229,0.208 2.37,0.061 0.055,-0.055 0.021,-0.301 0.138,-0.505 0.092,-0.163 0.162,-0.301 0.453,-0.377 l 0.22,0.025 -0.104,1.103 c -0.054,0.845 -0.061,2.449 -0.061,2.449 0,0 -0.416,0.184 -0.6,-0.207 -0.088,-0.188 0.047,-0.554 -0.091,-0.83 -0.14,-0.276 -1.037,-0.299 -1.406,-0.299 -0.368,0 -0.852,-0.115 -0.99,0.299 -0.139,0.414 0.093,2.35 0.093,2.464 0,0.116 -0.047,0.208 0.206,0.278 0.254,0.068 1.567,0.092 2.004,-0.094 0.438,-0.184 0.093,-0.575 0.346,-0.782 0.253,-0.208 0.414,-0.161 0.483,0.231 0.07,0.391 0.023,0.645 0.022,0.99 -0.003,1.591 0.155,1.868 -0.027,1.868 -0.097,0 -0.139,-0.101 -0.231,-0.256 -0.178,-0.299 -0.195,-0.459 -3.087,-0.466 -2.397,-0.005 -2.633,-0.017 -2.727,-0.137 -0.056,-0.073 -0.093,-0.201 -0.083,-0.285 0.013,-0.123 0.128,-0.156 0.444,-0.195 0.216,-0.026 0.391,-0.083 0.437,-0.102 0.37,-0.152 0.285,-6.166 0.285,-6.166 l -0.009,-3.272 c 0,-0.439 -0.086,-0.619 -0.16,-0.676 -0.114,-0.087 -0.231,-0.087 -0.339,-0.087 -0.263,0 -0.405,-0.066 -0.484,-0.191 -0.102,-0.161 0.063,-0.315 0.063,-0.315 l 4.019,0 c 0,0 0.632,0.013 0.933,-0.004"
           id="path466"
           style="fill:#632b26;fill-opacity:1;fill-rule:nonzero;stroke:none" /><path
           d="m 482.761,264.976 c 0.761,0.439 1.32,0.982 1.699,1.85 0.307,0.702 0.415,1.914 0.221,2.584 -0.121,0.413 -0.28,0.793 -0.646,1.072 -0.267,0.202 -0.572,0.263 -1.086,0.278 -0.397,0.012 -0.543,-0.03 -1.175,-0.102 -1.014,-0.118 -1.848,-0.228 -2.524,-0.228 l -1.253,0 -0.052,-0.125 c -0.083,-0.107 -0.123,-0.216 -0.075,-0.323 0.054,-0.115 0.078,-0.082 0.373,-0.082 0.4,0 0.51,-0.053 0.59,-0.282 0.12,-0.349 0.169,-2.093 0.161,-5.92 l -0.009,-3.272 c 0,-0.44 -0.087,-0.618 -0.16,-0.675 -0.112,-0.089 -0.232,-0.088 -0.339,-0.088 -0.264,0 -0.404,-0.066 -0.484,-0.191 -0.104,-0.161 0.063,-0.314 0.063,-0.314 l 4.02,0 c 0.072,0.088 0.027,0.325 -0.046,0.373 -0.089,0.059 -0.164,0.105 -0.415,0.105 -0.152,0 -0.526,0.057 -0.617,0.236 -0.186,0.361 -0.251,0.637 -0.251,2.834 l 0,1.866 0.3,0.022 c 0.347,-0.046 0.697,-0.703 0.992,-1.313 0.322,-0.668 1.041,-2.288 1.725,-4.653 0.415,-1.428 1.383,-2.049 2.12,-2.049 0.441,0 1.129,0.322 1.36,1.428 0.059,0.285 -0.231,0.506 -0.439,0.414 -0.123,-0.054 -0.159,-0.233 -0.206,-0.414 -0.092,-0.345 -0.434,-0.599 -0.691,-0.599 -0.531,0 -1.289,1.313 -1.267,3.017 0.026,2.027 -0.3,3.271 -0.807,3.709 -0.669,0.578 -0.862,0.404 -1.059,0.483 -0.114,0.045 -0.159,0.282 -0.023,0.359 m -1.919,0.385 -0.082,0.052 -0.013,2.03 c 0,0.896 -0.009,1.434 0.009,1.672 0.033,0.412 0.116,0.436 0.27,0.51 0.261,0.126 0.959,0.159 1.248,0.049 0.747,-0.285 1.025,-0.815 0.968,-2.039 -0.026,-0.533 -0.235,-1.034 -0.337,-1.204 -0.19,-0.316 -0.379,-0.491 -0.588,-0.647 -0.176,-0.131 -0.514,-0.367 -0.881,-0.426 -0.178,-0.029 -0.395,-0.043 -0.594,0.003"
           id="path468"
           style="fill:#632b26;fill-opacity:1;fill-rule:nonzero;stroke:none" /><path
           d="m 520.302,265.456 c -0.003,1.996 0.025,3.721 0.025,3.721 0,0 0.578,0.009 0.968,0 0.354,-0.008 0.56,-0.189 0.69,-0.277 0.229,-0.154 0.331,-0.323 0.378,-0.984 0.037,-0.513 0.083,-0.789 0.299,-0.874 0.284,-0.113 0.341,0.172 0.322,1.628 -0.013,0.915 0.008,1.151 0.038,1.635 0.022,0.369 0.018,0.611 0.018,0.691 0,0.222 -0.212,0.183 -0.432,-0.079 -0.106,-0.126 -0.328,-0.175 -0.507,-0.232 -0.068,-0.022 -0.256,-0.032 -0.762,-0.034 -0.394,-0.002 -1.065,0.097 -1.956,0.104 -0.533,0.003 -0.76,-0.07 -1.128,-0.104 -0.254,-0.023 -0.572,-0.081 -0.971,-0.081 -0.575,0 -0.918,0.058 -1.152,0.308 -0.153,0.164 -0.278,0.234 -0.319,0.234 -0.157,-0.002 -0.229,-0.166 -0.15,-0.464 0.042,-0.158 0.085,-0.996 0.097,-1.863 0.013,-0.867 0.045,-1.613 0.074,-1.659 0.028,-0.048 0.132,-0.084 0.233,-0.084 0.224,0 0.183,0.157 0.336,0.95 0.078,0.401 0.055,0.615 0.306,0.783 0.34,0.229 0.786,0.351 1.304,0.359 l 0.42,0.005 0.02,-3.891 c -0.011,-0.818 -0.015,-1.946 0.005,-2.541 0.029,-0.86 -0.034,-1.85 -0.061,-2.201 -0.049,-0.607 -0.06,-0.643 -0.289,-0.784 -0.136,-0.084 -0.325,-0.088 -0.486,-0.158 -0.269,-0.115 -0.183,-0.43 -0.183,-0.43 l 4.063,0 -0.035,0.292 c -0.068,0.23 -0.24,0.196 -0.414,0.23 -0.107,0.021 -0.346,-0.044 -0.509,0.324 -0.168,0.38 -0.191,0.51 -0.221,2.596 -0.005,0.286 -0.02,2.316 -0.021,2.88"
           id="path470"
           style="fill:#632b26;fill-opacity:1;fill-rule:nonzero;stroke:none" /><path
           d="m 528.935,259.276 c 1.139,0.525 1.84,1.275 2.36,2.507 0.184,0.438 0.438,1.059 0.571,1.931 0.114,0.737 0.114,2.15 -0.085,3.052 -0.097,0.44 -0.254,1.12 -0.464,1.58 -0.308,0.676 -0.836,1.3 -1.245,1.672 -0.507,0.457 -1.312,0.816 -2.378,0.862 -0.315,0.012 -1.118,-0.057 -1.608,-0.343 -1.633,-0.946 -2.123,-2.501 -2.254,-2.835 -0.249,-0.637 -0.404,-1.47 -0.484,-2.429 -0.061,-0.743 0.175,-2.313 0.464,-3.083 0.621,-1.649 1.901,-2.889 3.232,-3.134 0.55,-0.101 1.234,-0.106 1.891,0.22 m -2.346,1.466 c -0.295,0.294 -0.596,0.658 -0.752,1.063 -0.387,0.986 -0.569,2.522 -0.461,4.045 0.173,2.4 1.03,3.893 2.232,3.891 0.973,-10e-4 1.693,-0.799 2.106,-2.334 0.228,-0.835 0.287,-3.412 0.127,-4.38 -0.136,-0.83 -0.323,-1.366 -0.431,-1.564 -0.373,-0.671 -1.035,-1.127 -1.298,-1.183 -0.619,-0.133 -1.009,-0.053 -1.523,0.462"
           id="path472"
           style="fill:#632b26;fill-opacity:1;fill-rule:nonzero;stroke:none" /><path
           d="m 407.223,258.669 c -1.823,-1.858 -4.403,-2.997 -7.22,-3.024 -3.548,-0.035 -5.93,1.933 -5.93,1.933 0,0 0.626,-0.214 1.493,-0.207 3.027,0.023 5.277,1.468 6.602,1.99 1.55,0.602 3.018,0.977 4.061,-0.195 0.243,-0.271 0.627,-0.52 0.994,-0.499 l 0,0.002 z"
           id="path478"
           style="fill:#ffe4b8;fill-opacity:1;fill-rule:nonzero;stroke:none" /></g></g><g
       id="g556"><g
         clip-path="url(#clipPath560)"
         id="g558"><path
           d="m 15,318.638 -15,0 m 622.276,0 15,0 M 15,21 0,21 m 622.276,0 15,0 M 21,324.638 l 0,15 M 21,15 21,0 m 595.276,324.638 0,15 m 0,-324.638 0,-15"
           id="path564"
           style="fill:none;stroke:#ffffff;stroke-width:1.25;stroke-linecap:butt;stroke-linejoin:miter;stroke-miterlimit:10;stroke-opacity:1;stroke-dasharray:none" /><path
           d="m 31.486,6 1.722,0 c 1.416,0 1.836,1.248 1.836,2.214 0,1.242 -0.69,2.094 -1.812,2.094 l -1.746,0 0,-4.308 z m 0.582,3.81 1.086,0 c 0.792,0 1.29,-0.546 1.29,-1.632 0,-1.086 -0.492,-1.68 -1.248,-1.68 l -1.128,0 0,3.312 z"
           id="path568"
           style="fill:none;stroke:#ffffff;stroke-width:0.40000001;stroke-linecap:butt;stroke-linejoin:miter;stroke-miterlimit:10;stroke-opacity:1;stroke-dasharray:none" /><path
           d="m 38.932,9.048 c -0.024,0.474 -0.174,1.374 -1.68,1.374 -1.044,0 -1.482,-0.66 -1.482,-1.332 0,-0.75 0.636,-0.948 0.918,-1.014 L 37.57,7.872 c 0.708,-0.168 0.918,-0.312 0.918,-0.762 0,-0.618 -0.708,-0.726 -1.128,-0.726 -0.552,0 -1.188,0.228 -1.188,1.008 l -0.546,0 c 0,-0.402 0.072,-0.762 0.438,-1.092 0.192,-0.174 0.504,-0.414 1.302,-0.414 0.738,0 1.686,0.282 1.686,1.302 0,0.684 -0.42,1.02 -0.978,1.152 l -1.23,0.282 c -0.252,0.06 -0.51,0.18 -0.51,0.546 0,0.654 0.618,0.756 0.984,0.756 0.486,0 1.038,-0.21 1.068,-0.876 l 0.546,0 z"
           id="path570"
           style="fill:none;stroke:#ffffff;stroke-width:0.40000001;stroke-linecap:butt;stroke-linejoin:miter;stroke-miterlimit:10;stroke-opacity:1;stroke-dasharray:none" /><path
           d="m 42.67,5.55 -3.336,0 0,-0.3 3.336,0 0,0.3 z"
           id="path572"
           style="fill:none;stroke:#ffffff;stroke-width:0.40000001;stroke-linecap:butt;stroke-linejoin:miter;stroke-miterlimit:10;stroke-opacity:1;stroke-dasharray:none" /><path
           d="m 43.768,9.81 1.182,0 c 0.48,0 0.852,-0.174 0.852,-0.72 0,-0.582 -0.354,-0.774 -0.876,-0.774 l -1.158,0 0,1.494 z m 0,-1.992 1.356,0 c 0.936,0 1.278,0.678 1.278,1.278 0,0.696 -0.48,1.212 -1.278,1.212 l -1.938,0 0,-4.308 0.582,0 0,1.818 z"
           id="path574"
           style="fill:none;stroke:#ffffff;stroke-width:0.40000001;stroke-linecap:butt;stroke-linejoin:miter;stroke-miterlimit:10;stroke-opacity:1;stroke-dasharray:none" /><path
           d="m 47.662,7.824 c 0,0.456 0.312,0.84 0.804,0.84 l 0.198,0 0,0.546 c -0.042,0.012 -0.072,0.018 -0.138,0.018 -0.396,0 -0.672,-0.246 -0.882,-0.612 l -0.012,0 0,0.522 -0.498,0 0,-3.138 0.528,0 0,1.824 z"
           id="path576"
           style="fill:none;stroke:#ffffff;stroke-width:0.40000001;stroke-linecap:butt;stroke-linejoin:miter;stroke-miterlimit:10;stroke-opacity:1;stroke-dasharray:none" /><path
           d="m 48.88,7.572 c 0,-0.81 0.456,-1.656 1.458,-1.656 1.002,0 1.458,0.846 1.458,1.656 0,0.81 -0.456,1.656 -1.458,1.656 -1.002,0 -1.458,-0.846 -1.458,-1.656 z m 0.546,0 c 0,0.42 0.156,1.2 0.912,1.2 0.756,0 0.912,-0.78 0.912,-1.2 0,-0.42 -0.156,-1.2 -0.912,-1.2 -0.756,0 -0.912,0.78 -0.912,1.2 z"
           id="path578"
           style="fill:none;stroke:#ffffff;stroke-width:0.40000001;stroke-linecap:butt;stroke-linejoin:miter;stroke-miterlimit:10;stroke-opacity:1;stroke-dasharray:none" /><path
           d="m 53.578,8.7 0,0.438 -0.528,0 0,0.39 c 0,0.252 0.084,0.366 0.312,0.366 0.066,0 0.15,-0.006 0.216,-0.012 l 0,0.474 c -0.084,0.006 -0.162,0.012 -0.24,0.012 -0.516,0 -0.816,-0.216 -0.816,-0.69 l 0,-0.54 -0.432,0 0,-0.438 0.432,0 0,-2.7 0.528,0 0,2.7 0.528,0 z"
           id="path580"
           style="fill:none;stroke:#ffffff;stroke-width:0.40000001;stroke-linecap:butt;stroke-linejoin:miter;stroke-miterlimit:10;stroke-opacity:1;stroke-dasharray:none" /><path
           d="m 57.01,5.55 -3.336,0 0,-0.3 3.336,0 0,0.3 z"
           id="path582"
           style="fill:none;stroke:#ffffff;stroke-width:0.40000001;stroke-linecap:butt;stroke-linejoin:miter;stroke-miterlimit:10;stroke-opacity:1;stroke-dasharray:none" /><path
           d="m 58.048,10.308 -0.582,0 0,-4.308 2.766,0 0,0.516 -2.184,0 0,3.792 z"
           id="path584"
           style="fill:none;stroke:#ffffff;stroke-width:0.40000001;stroke-linecap:butt;stroke-linejoin:miter;stroke-miterlimit:10;stroke-opacity:1;stroke-dasharray:none" /><path
           d="m 61.204,8.184 c 0.036,0.24 0.12,0.606 0.72,0.606 0.498,0 0.738,-0.18 0.738,-0.51 0,-0.312 -0.15,-0.36 -0.276,-0.372 L 61.516,7.8 C 60.64,7.692 60.562,7.08 60.562,6.816 c 0,-0.54 0.408,-0.906 0.984,-0.906 0.612,0 0.93,0.288 1.134,0.51 0.018,-0.24 0.09,-0.48 0.558,-0.48 0.12,0 0.198,0.036 0.288,0.06 l 0,0.384 C 63.466,6.372 63.4,6.36 63.352,6.36 c -0.108,0 -0.174,0.054 -0.174,0.186 l 0,1.806 c 0,0.804 -0.912,0.876 -1.164,0.876 -0.774,0 -1.272,-0.294 -1.296,-1.044 l 0.486,0 z M 62.65,7.086 c 0,-0.42 -0.48,-0.738 -0.972,-0.738 -0.396,0 -0.57,0.204 -0.57,0.546 0,0.396 0.414,0.474 0.672,0.51 0.654,0.084 0.786,0.132 0.87,0.198 l 0,-0.516 z"
           id="path586"
           style="fill:none;stroke:#ffffff;stroke-width:0.40000001;stroke-linecap:butt;stroke-linejoin:miter;stroke-miterlimit:10;stroke-opacity:1;stroke-dasharray:none" /><path
           d="m 65.194,6.582 -0.012,0 -0.834,2.556 -0.6,0 1.164,-3.222 C 64.66,5.268 64.63,5.19 64.354,5.19 c -0.144,0 -0.252,0.03 -0.318,0.054 l 0,-0.48 C 64.12,4.74 64.18,4.716 64.258,4.716 c 0.678,0 0.732,0.072 1.23,1.344 0.402,1.026 0.762,2.052 1.128,3.078 l -0.582,0 -0.84,-2.556 z"
           id="path588"
           style="fill:none;stroke:#ffffff;stroke-width:0.40000001;stroke-linecap:butt;stroke-linejoin:miter;stroke-miterlimit:10;stroke-opacity:1;stroke-dasharray:none" /><path
           d="m 68.224,8.7 0,0.438 -0.504,0 0,0.876 -0.528,0 0,-0.876 -0.426,0 0,-0.438 0.426,0 0,-2.07 c 0,-0.378 0.114,-0.672 0.636,-0.672 0.054,0 0.204,0.024 0.396,0.042 l 0,0.414 -0.186,0 c -0.108,0 -0.318,0 -0.318,0.246 l 0,2.04 0.504,0 z"
           id="path590"
           style="fill:none;stroke:#ffffff;stroke-width:0.40000001;stroke-linecap:butt;stroke-linejoin:miter;stroke-miterlimit:10;stroke-opacity:1;stroke-dasharray:none" /><path
           d="m 68.56,7.572 c 0,-0.81 0.456,-1.656 1.458,-1.656 1.002,0 1.458,0.846 1.458,1.656 0,0.81 -0.456,1.656 -1.458,1.656 -1.002,0 -1.458,-0.846 -1.458,-1.656 z m 0.546,0 c 0,0.42 0.156,1.2 0.912,1.2 0.756,0 0.912,-0.78 0.912,-1.2 0,-0.42 -0.156,-1.2 -0.912,-1.2 -0.756,0 -0.912,0.78 -0.912,1.2 z"
           id="path592"
           style="fill:none;stroke:#ffffff;stroke-width:0.40000001;stroke-linecap:butt;stroke-linejoin:miter;stroke-miterlimit:10;stroke-opacity:1;stroke-dasharray:none" /><path
           d="m 74.632,8.136 c 0,0.894 -0.612,1.092 -1.098,1.092 -0.54,0 -0.834,-0.366 -0.948,-0.534 l -0.012,0 0,0.444 -0.498,0 0,-3.138 0.528,0 0,1.71 c 0,0.852 0.528,1.044 0.828,1.044 0.516,0 0.672,-0.276 0.672,-0.822 l 0,-1.932 0.528,0 0,2.136 z"
           id="path594"
           style="fill:none;stroke:#ffffff;stroke-width:0.40000001;stroke-linecap:butt;stroke-linejoin:miter;stroke-miterlimit:10;stroke-opacity:1;stroke-dasharray:none" /><path
           d="m 78.358,5.55 -3.336,0 0,-0.3 3.336,0 0,0.3 z"
           id="path596"
           style="fill:none;stroke:#ffffff;stroke-width:0.40000001;stroke-linecap:butt;stroke-linejoin:miter;stroke-miterlimit:10;stroke-opacity:1;stroke-dasharray:none" /><path
           d="m 79.216,8.184 c 0.036,0.24 0.12,0.606 0.72,0.606 0.498,0 0.738,-0.18 0.738,-0.51 0,-0.312 -0.15,-0.36 -0.276,-0.372 L 79.528,7.8 C 78.652,7.692 78.574,7.08 78.574,6.816 c 0,-0.54 0.408,-0.906 0.984,-0.906 0.612,0 0.93,0.288 1.134,0.51 0.018,-0.24 0.09,-0.48 0.558,-0.48 0.12,0 0.198,0.036 0.288,0.06 l 0,0.384 C 81.478,6.372 81.412,6.36 81.364,6.36 81.256,6.36 81.19,6.414 81.19,6.546 l 0,1.806 c 0,0.804 -0.912,0.876 -1.164,0.876 -0.774,0 -1.272,-0.294 -1.296,-1.044 l 0.486,0 z m 1.446,-1.098 c 0,-0.42 -0.48,-0.738 -0.972,-0.738 -0.396,0 -0.57,0.204 -0.57,0.546 0,0.396 0.414,0.474 0.672,0.51 0.654,0.084 0.786,0.132 0.87,0.198 l 0,-0.516 z"
           id="path598"
           style="fill:none;stroke:#ffffff;stroke-width:0.40000001;stroke-linecap:butt;stroke-linejoin:miter;stroke-miterlimit:10;stroke-opacity:1;stroke-dasharray:none" /><path
           d="m 83.236,8.7 0,0.438 -0.504,0 0,0.876 -0.528,0 0,-0.876 -0.426,0 0,-0.438 0.426,0 0,-2.07 c 0,-0.378 0.114,-0.672 0.636,-0.672 0.054,0 0.204,0.024 0.396,0.042 l 0,0.414 -0.186,0 c -0.108,0 -0.318,0 -0.318,0.246 l 0,2.04 0.504,0 z"
           id="path600"
           style="fill:none;stroke:#ffffff;stroke-width:0.40000001;stroke-linecap:butt;stroke-linejoin:miter;stroke-miterlimit:10;stroke-opacity:1;stroke-dasharray:none" /><path
           d="m 87.406,9.012 c -0.084,0.72 -0.66,1.41 -1.77,1.41 -1.254,0 -2.01,-0.918 -2.01,-2.244 0,-1.656 0.96,-2.292 1.938,-2.292 0.324,0 1.644,0.072 1.884,1.698 l -0.564,0 c -0.198,-1.002 -0.852,-1.182 -1.23,-1.182 -1.068,0 -1.428,0.78 -1.428,1.794 0,1.134 0.63,1.71 1.41,1.71 0.414,0 1.044,-0.138 1.206,-0.894 l 0.564,0 z"
           id="path602"
           style="fill:none;stroke:#ffffff;stroke-width:0.40000001;stroke-linecap:butt;stroke-linejoin:miter;stroke-miterlimit:10;stroke-opacity:1;stroke-dasharray:none" /><path
           d="m 89.704,6.636 -0.012,0 -1.23,3.672 -0.648,0 1.572,-4.308 0.618,0 1.572,4.308 -0.654,0 -1.218,-3.672 z"
           id="path604"
           style="fill:none;stroke:#ffffff;stroke-width:0.40000001;stroke-linecap:butt;stroke-linejoin:miter;stroke-miterlimit:10;stroke-opacity:1;stroke-dasharray:none" /><path
           d="m 95.032,5.55 -3.336,0 0,-0.3 3.336,0 0,0.3 z"
           id="path606"
           style="fill:none;stroke:#ffffff;stroke-width:0.40000001;stroke-linecap:butt;stroke-linejoin:miter;stroke-miterlimit:10;stroke-opacity:1;stroke-dasharray:none" /><path
           d="m 99.076,9.012 c -0.084,0.72 -0.66,1.41 -1.77,1.41 -1.254,0 -2.01,-0.918 -2.01,-2.244 0,-1.656 0.96,-2.292 1.938,-2.292 0.324,0 1.644,0.072 1.884,1.698 l -0.564,0 c -0.198,-1.002 -0.852,-1.182 -1.23,-1.182 -1.068,0 -1.428,0.78 -1.428,1.794 0,1.134 0.63,1.71 1.41,1.71 0.414,0 1.044,-0.138 1.206,-0.894 l 0.564,0 z"
           id="path608"
           style="fill:none;stroke:#ffffff;stroke-width:0.40000001;stroke-linecap:butt;stroke-linejoin:miter;stroke-miterlimit:10;stroke-opacity:1;stroke-dasharray:none" /><path
           d="m 102.358,10.308 -0.528,0 0,-1.572 -0.012,-0.042 c -0.126,0.18 -0.366,0.534 -0.936,0.534 -0.834,0 -1.308,-0.684 -1.308,-1.566 0,-0.75 0.312,-1.752 1.38,-1.752 0.306,0 0.666,0.096 0.894,0.522 l 0.012,0 0,-0.432 0.498,0 0,4.308 z m -2.238,-2.73 c 0,0.402 0.042,1.176 0.858,1.176 0.762,0 0.846,-0.822 0.846,-1.332 0,-0.834 -0.522,-1.056 -0.858,-1.056 -0.576,0 -0.846,0.522 -0.846,1.212 z"
           id="path610"
           style="fill:none;stroke:#ffffff;stroke-width:0.40000001;stroke-linecap:butt;stroke-linejoin:miter;stroke-miterlimit:10;stroke-opacity:1;stroke-dasharray:none" /><path
           d="m 105.646,8.136 c 0,0.894 -0.612,1.092 -1.098,1.092 -0.54,0 -0.834,-0.366 -0.948,-0.534 l -0.012,0 0,0.444 -0.498,0 0,-3.138 0.528,0 0,1.71 c 0,0.852 0.528,1.044 0.828,1.044 0.516,0 0.672,-0.276 0.672,-0.822 l 0,-1.932 0.528,0 0,2.136 z"
           id="path612"
           style="fill:none;stroke:#ffffff;stroke-width:0.40000001;stroke-linecap:butt;stroke-linejoin:miter;stroke-miterlimit:10;stroke-opacity:1;stroke-dasharray:none" /><path
           d="m 110.602,6 0,4.308 -0.828,0 -1.224,-3.642 -0.012,0 -1.23,3.642 -0.834,0 0,-4.308 0.564,0 0,2.544 c 0,0.126 -0.012,0.672 -0.012,1.068 l 0.012,0 1.212,-3.612 0.576,0 1.212,3.618 0.012,0 c 0,-0.402 -0.012,-0.948 -0.012,-1.074 l 0,-2.544 0.564,0 z"
           id="path614"
           style="fill:none;stroke:#ffffff;stroke-width:0.40000001;stroke-linecap:butt;stroke-linejoin:miter;stroke-miterlimit:10;stroke-opacity:1;stroke-dasharray:none" /><path
           d="m 111.891,8.184 c 0.036,0.24 0.12,0.606 0.72,0.606 0.498,0 0.738,-0.18 0.738,-0.51 0,-0.312 -0.15,-0.36 -0.276,-0.372 L 112.203,7.8 c -0.876,-0.108 -0.954,-0.72 -0.954,-0.984 0,-0.54 0.408,-0.906 0.984,-0.906 0.612,0 0.93,0.288 1.134,0.51 0.018,-0.24 0.09,-0.48 0.558,-0.48 0.12,0 0.198,0.036 0.288,0.06 l 0,0.384 c -0.06,-0.012 -0.126,-0.024 -0.174,-0.024 -0.108,0 -0.174,0.054 -0.174,0.186 l 0,1.806 c 0,0.804 -0.912,0.876 -1.164,0.876 -0.774,0 -1.272,-0.294 -1.296,-1.044 l 0.486,0 z m 1.446,-1.098 c 0,-0.42 -0.48,-0.738 -0.972,-0.738 -0.396,0 -0.57,0.204 -0.57,0.546 0,0.396 0.414,0.474 0.672,0.51 0.654,0.084 0.786,0.132 0.87,0.198 l 0,-0.516 z"
           id="path616"
           style="fill:none;stroke:#ffffff;stroke-width:0.40000001;stroke-linecap:butt;stroke-linejoin:miter;stroke-miterlimit:10;stroke-opacity:1;stroke-dasharray:none" /><path
           d="m 117.315,8.136 c 0,0.894 -0.612,1.092 -1.098,1.092 -0.54,0 -0.834,-0.366 -0.948,-0.534 l -0.012,0 0,0.444 -0.498,0 0,-3.138 0.528,0 0,1.71 c 0,0.852 0.528,1.044 0.828,1.044 0.516,0 0.672,-0.276 0.672,-0.822 l 0,-1.932 0.528,0 0,2.136 z"
           id="path618"
           style="fill:none;stroke:#ffffff;stroke-width:0.40000001;stroke-linecap:butt;stroke-linejoin:miter;stroke-miterlimit:10;stroke-opacity:1;stroke-dasharray:none" /><path
           d="m 120.639,6 0,3.138 -0.528,0 0,-1.728 c 0,-0.456 -0.198,-1.044 -0.864,-1.044 -0.342,0 -0.606,0.174 -0.606,0.69 l 0,2.082 -0.528,0 0,-2.256 c 0,-0.75 0.558,-0.972 1.02,-0.972 0.504,0 0.774,0.192 0.996,0.558 l 0.012,-0.012 0,-0.456 0.498,0 z"
           id="path620"
           style="fill:none;stroke:#ffffff;stroke-width:0.40000001;stroke-linecap:butt;stroke-linejoin:miter;stroke-miterlimit:10;stroke-opacity:1;stroke-dasharray:none" /><path
           d="m 121.899,8.184 c 0.036,0.24 0.12,0.606 0.72,0.606 0.498,0 0.738,-0.18 0.738,-0.51 0,-0.312 -0.15,-0.36 -0.276,-0.372 L 122.211,7.8 c -0.876,-0.108 -0.954,-0.72 -0.954,-0.984 0,-0.54 0.408,-0.906 0.984,-0.906 0.612,0 0.93,0.288 1.134,0.51 0.018,-0.24 0.09,-0.48 0.558,-0.48 0.12,0 0.198,0.036 0.288,0.06 l 0,0.384 c -0.06,-0.012 -0.126,-0.024 -0.174,-0.024 -0.108,0 -0.174,0.054 -0.174,0.186 l 0,1.806 c 0,0.804 -0.912,0.876 -1.164,0.876 -0.774,0 -1.272,-0.294 -1.296,-1.044 l 0.486,0 z m 1.446,-1.098 c 0,-0.42 -0.48,-0.738 -0.972,-0.738 -0.396,0 -0.57,0.204 -0.57,0.546 0,0.396 0.414,0.474 0.672,0.51 0.654,0.084 0.786,0.132 0.87,0.198 l 0,-0.516 z"
           id="path622"
           style="fill:none;stroke:#ffffff;stroke-width:0.40000001;stroke-linecap:butt;stroke-linejoin:miter;stroke-miterlimit:10;stroke-opacity:1;stroke-dasharray:none" /><path
           d="m 125.307,10.308 -0.528,0 0,-4.308 0.528,0 0,4.308 z"
           id="path624"
           style="fill:none;stroke:#ffffff;stroke-width:0.40000001;stroke-linecap:butt;stroke-linejoin:miter;stroke-miterlimit:10;stroke-opacity:1;stroke-dasharray:none" /><path
           d="m 126.855,6.636 -0.624,0 0,-0.636 0.624,0 0,0.636 z"
           id="path626"
           style="fill:none;stroke:#ffffff;stroke-width:0.40000001;stroke-linecap:butt;stroke-linejoin:miter;stroke-miterlimit:10;stroke-opacity:1;stroke-dasharray:none" /><path
           d="m 128.307,9.138 -0.528,0 0,-3.138 0.528,0 0,3.138 z m 0,1.17 -0.528,0 0,-0.6 0.528,0 0,0.6 z"
           id="path628"
           style="fill:none;stroke:#ffffff;stroke-width:0.40000001;stroke-linecap:butt;stroke-linejoin:miter;stroke-miterlimit:10;stroke-opacity:1;stroke-dasharray:none" /><path
           d="m 131.655,8.136 c 0,0.894 -0.612,1.092 -1.098,1.092 -0.54,0 -0.834,-0.366 -0.948,-0.534 l -0.012,0 0,0.444 -0.498,0 0,-3.138 0.528,0 0,1.71 c 0,0.852 0.528,1.044 0.828,1.044 0.516,0 0.672,-0.276 0.672,-0.822 l 0,-1.932 0.528,0 0,2.136 z"
           id="path630"
           style="fill:none;stroke:#ffffff;stroke-width:0.40000001;stroke-linecap:butt;stroke-linejoin:miter;stroke-miterlimit:10;stroke-opacity:1;stroke-dasharray:none" /><path
           d="m 132.837,8.706 c 0.018,0.294 0.054,1.038 0.852,1.038 0.618,0 0.834,-0.426 0.834,-0.762 0,-0.552 -0.324,-0.726 -0.774,-0.984 L 133.191,7.674 C 132.627,7.344 132.231,6.876 132.201,6 l 2.886,0 0,0.498 -2.292,0 c 0.024,0.162 0.15,0.492 0.726,0.81 l 0.438,0.24 c 0.63,0.336 1.128,0.654 1.128,1.41 0,0.786 -0.588,1.26 -1.32,1.26 -0.456,0 -1.458,-0.138 -1.458,-1.512 l 0.528,0 z"
           id="path632"
           style="fill:none;stroke:#ffffff;stroke-width:0.40000001;stroke-linecap:butt;stroke-linejoin:miter;stroke-miterlimit:10;stroke-opacity:1;stroke-dasharray:none" /><path
           d="m 137.115,7.932 -1.47,0 0,-0.54 1.47,0 0,0.54 z"
           id="path634"
           style="fill:none;stroke:#ffffff;stroke-width:0.40000001;stroke-linecap:butt;stroke-linejoin:miter;stroke-miterlimit:10;stroke-opacity:1;stroke-dasharray:none" /><path
           d="m 139.533,10.218 -0.414,0 c -0.168,-0.69 -0.45,-0.756 -1.134,-0.804 l 0,-0.42 0.984,0 0,-2.994 0.564,0 0,4.218 z"
           id="path636"
           style="fill:none;stroke:#ffffff;stroke-width:0.40000001;stroke-linecap:butt;stroke-linejoin:miter;stroke-miterlimit:10;stroke-opacity:1;stroke-dasharray:none" /><path
           d="m 146.511,8.706 c 0.018,0.294 0.054,1.038 0.852,1.038 0.618,0 0.834,-0.426 0.834,-0.762 0,-0.552 -0.324,-0.726 -0.774,-0.984 L 146.865,7.674 C 146.301,7.344 145.905,6.876 145.875,6 l 2.886,0 0,0.498 -2.292,0 c 0.024,0.162 0.15,0.492 0.726,0.81 l 0.438,0.24 c 0.63,0.336 1.128,0.654 1.128,1.41 0,0.786 -0.588,1.26 -1.32,1.26 -0.456,0 -1.458,-0.138 -1.458,-1.512 l 0.528,0 z"
           id="path638"
           style="fill:none;stroke:#ffffff;stroke-width:0.40000001;stroke-linecap:butt;stroke-linejoin:miter;stroke-miterlimit:10;stroke-opacity:1;stroke-dasharray:none" /><path
           d="m 150.789,7.932 -1.47,0 0,-0.54 1.47,0 0,0.54 z"
           id="path640"
           style="fill:none;stroke:#ffffff;stroke-width:0.40000001;stroke-linecap:butt;stroke-linejoin:miter;stroke-miterlimit:10;stroke-opacity:1;stroke-dasharray:none" /><path
           d="m 153.207,10.218 -0.414,0 c -0.168,-0.69 -0.45,-0.756 -1.134,-0.804 l 0,-0.42 0.984,0 0,-2.994 0.564,0 0,4.218 z"
           id="path642"
           style="fill:none;stroke:#ffffff;stroke-width:0.40000001;stroke-linecap:butt;stroke-linejoin:miter;stroke-miterlimit:10;stroke-opacity:1;stroke-dasharray:none" /><path
           d="m 558.43,10.218 -0.414,0 c -0.168,-0.69 -0.45,-0.756 -1.134,-0.804 l 0,-0.42 0.984,0 0,-2.994 0.564,0 0,4.218 z"
           id="path648"
           style="fill:none;stroke:#ffffff;stroke-width:0.40000001;stroke-linecap:butt;stroke-linejoin:miter;stroke-miterlimit:10;stroke-opacity:1;stroke-dasharray:none" /><path
           d="m 561.382,10.422 -0.396,0 -1.476,-4.536 0.402,0 1.47,4.536 z"
           id="path650"
           style="fill:none;stroke:#ffffff;stroke-width:0.40000001;stroke-linecap:butt;stroke-linejoin:miter;stroke-miterlimit:10;stroke-opacity:1;stroke-dasharray:none" /><path
           d="m 563.434,10.218 -0.414,0 c -0.168,-0.69 -0.45,-0.756 -1.135,-0.804 l 0,-0.42 0.985,0 0,-2.994 0.564,0 0,4.218 z"
           id="path652"
           style="fill:none;stroke:#ffffff;stroke-width:0.40000001;stroke-linecap:butt;stroke-linejoin:miter;stroke-miterlimit:10;stroke-opacity:1;stroke-dasharray:none" /><path
           d="m 565.678,9.612 1.788,0 0,0.516 -2.184,0 -0.318,-2.262 0.456,-0.024 c 0.198,0.258 0.474,0.402 0.78,0.402 0.522,0 0.936,-0.33 0.936,-0.936 0,-0.528 -0.342,-0.966 -0.888,-0.966 -0.474,0 -0.84,0.216 -0.894,0.708 l -0.546,0 c 0.102,-0.942 0.81,-1.164 1.362,-1.164 1.32,0 1.53,1.014 1.53,1.482 0,0.87 -0.702,1.35 -1.386,1.35 -0.378,0 -0.636,-0.126 -0.816,-0.264 l 0.18,1.158 z"
           id="path654"
           style="fill:none;stroke:#ffffff;stroke-width:0.40000001;stroke-linecap:butt;stroke-linejoin:miter;stroke-miterlimit:10;stroke-opacity:1;stroke-dasharray:none" /><path
           d="m 569.721,10.422 -0.395,0 -1.477,-4.536 0.403,0 1.469,4.536 z"
           id="path656"
           style="fill:none;stroke:#ffffff;stroke-width:0.40000001;stroke-linecap:butt;stroke-linejoin:miter;stroke-miterlimit:10;stroke-opacity:1;stroke-dasharray:none" /><path
           d="m 572.17,8.052 c 0,-1.056 -0.276,-1.692 -0.882,-1.692 -0.606,0 -0.882,0.636 -0.882,1.692 0,1.056 0.276,1.692 0.882,1.692 0.606,0 0.882,-0.636 0.882,-1.692 z m 0.564,0 c 0,0.876 -0.234,2.166 -1.446,2.166 -1.212,0 -1.446,-1.29 -1.446,-2.166 0,-0.876 0.234,-2.166 1.446,-2.166 1.212,0 1.446,1.29 1.446,2.166 z"
           id="path658"
           style="fill:none;stroke:#ffffff;stroke-width:0.40000001;stroke-linecap:butt;stroke-linejoin:miter;stroke-miterlimit:10;stroke-opacity:1;stroke-dasharray:none" /><path
           d="m 575.908,9.132 c 0,0.492 -0.366,1.086 -1.302,1.086 -1.008,0 -1.278,-0.72 -1.278,-1.158 0,-0.396 0.21,-0.684 0.57,-0.822 -0.444,-0.18 -0.714,-0.51 -0.714,-1.026 0,-0.204 0,-0.66 0.432,-1.002 0.336,-0.264 0.78,-0.324 1.014,-0.324 0.996,0 1.428,0.654 1.428,1.332 0,0.318 -0.12,0.786 -0.69,1.026 0.186,0.096 0.54,0.282 0.54,0.888 z m -1.29,-1.152 c 0.48,0 0.876,-0.252 0.876,-0.822 0,-0.66 -0.462,-0.798 -0.846,-0.798 -0.732,0 -0.9,0.504 -0.9,0.84 0,0.39 0.276,0.78 0.87,0.78 z m -0.006,0.456 c -0.384,0 -0.738,0.246 -0.738,0.648 0,0.27 0.138,0.66 0.702,0.66 0.618,0 0.786,-0.372 0.786,-0.63 0,-0.384 -0.294,-0.678 -0.75,-0.678 z"
           id="path660"
           style="fill:none;stroke:#ffffff;stroke-width:0.40000001;stroke-linecap:butt;stroke-linejoin:miter;stroke-miterlimit:10;stroke-opacity:1;stroke-dasharray:none" /><path
           d="m 581.518,9.612 2.322,0 C 583.03,8.67 582.262,7.158 582.117,6 l 0.583,0 c 0.305,1.884 1.314,3.228 1.734,3.666 l 0,0.462 -2.916,0 0,-0.516 z"
           id="path662"
           style="fill:none;stroke:#ffffff;stroke-width:0.40000001;stroke-linecap:butt;stroke-linejoin:miter;stroke-miterlimit:10;stroke-opacity:1;stroke-dasharray:none" /><path
           d="m 585.778,6.636 -0.624,0 0,-0.636 0.624,0 0,0.636 z m 0,2.46 -0.624,0 0,-0.636 0.624,0 0,0.636 z"
           id="path664"
           style="fill:none;stroke:#ffffff;stroke-width:0.40000001;stroke-linecap:butt;stroke-linejoin:miter;stroke-miterlimit:10;stroke-opacity:1;stroke-dasharray:none" /><path
           d="m 589.438,7.026 0,0.456 -0.618,0 0,2.736 -0.438,0 -1.932,-2.676 0,-0.516 1.842,0 0,-1.026 0.528,0 0,1.026 0.618,0 z m -1.158,2.37 0.012,0 0,-1.914 -1.356,0 1.344,1.914 z"
           id="path666"
           style="fill:none;stroke:#ffffff;stroke-width:0.40000001;stroke-linecap:butt;stroke-linejoin:miter;stroke-miterlimit:10;stroke-opacity:1;stroke-dasharray:none" /><path
           d="m 590.698,9.612 1.788,0 0,0.516 -2.184,0 -0.318,-2.262 0.456,-0.024 c 0.198,0.258 0.474,0.402 0.78,0.402 0.522,0 0.936,-0.33 0.936,-0.936 0,-0.528 -0.342,-0.966 -0.888,-0.966 -0.474,0 -0.84,0.216 -0.894,0.708 l -0.546,0 c 0.102,-0.942 0.81,-1.164 1.362,-1.164 1.32,0 1.53,1.014 1.53,1.482 0,0.87 -0.702,1.35 -1.386,1.35 -0.378,0 -0.636,-0.126 -0.816,-0.264 l 0.18,1.158 z"
           id="path668"
           style="fill:none;stroke:#ffffff;stroke-width:0.40000001;stroke-linecap:butt;stroke-linejoin:miter;stroke-miterlimit:10;stroke-opacity:1;stroke-dasharray:none" /><path
           d="m 594.118,6.636 -0.624,0 0,-0.636 0.624,0 0,0.636 z m 0,2.46 -0.624,0 0,-0.636 0.624,0 0,0.636 z"
           id="path670"
           style="fill:none;stroke:#ffffff;stroke-width:0.40000001;stroke-linecap:butt;stroke-linejoin:miter;stroke-miterlimit:10;stroke-opacity:1;stroke-dasharray:none" /><path
           d="m 595.432,8.706 c 0.018,0.294 0.053,1.038 0.852,1.038 0.617,0 0.833,-0.426 0.833,-0.762 0,-0.552 -0.323,-0.726 -0.773,-0.984 L 595.786,7.674 C 595.221,7.344 594.826,6.876 594.795,6 l 2.887,0 0,0.498 -2.292,0 c 0.024,0.162 0.149,0.492 0.725,0.81 l 0.439,0.24 c 0.63,0.336 1.128,0.654 1.128,1.41 0,0.786 -0.588,1.26 -1.32,1.26 -0.456,0 -1.458,-0.138 -1.458,-1.512 l 0.528,0 z"
           id="path672"
           style="fill:none;stroke:#ffffff;stroke-width:0.40000001;stroke-linecap:butt;stroke-linejoin:miter;stroke-miterlimit:10;stroke-opacity:1;stroke-dasharray:none" /><path
           d="m 599.32,7.944 c 0.078,0 0.162,0.006 0.24,0.006 0.36,0 0.984,-0.066 0.984,-0.774 0,-0.486 -0.378,-0.816 -0.918,-0.816 -0.786,0 -0.882,0.534 -0.9,0.93 l -0.546,0 c 0.036,-0.486 0.162,-0.972 0.63,-1.218 0.204,-0.108 0.468,-0.186 0.78,-0.186 1.074,0 1.518,0.666 1.518,1.356 0,0.564 -0.294,0.852 -0.702,0.984 l 0,0.012 c 0.228,0.072 0.54,0.33 0.54,0.87 0,0.642 -0.486,1.11 -1.302,1.11 -1.11,0 -1.362,-0.762 -1.362,-1.38 l 0.516,0 c 0.024,0.294 0.072,0.906 0.822,0.906 0.63,0 0.78,-0.414 0.78,-0.666 0,-0.528 -0.396,-0.69 -0.804,-0.69 -0.09,0 -0.186,0.006 -0.276,0.012 l 0,-0.456 z"
           id="path674"
           style="fill:none;stroke:#ffffff;stroke-width:0.40000001;stroke-linecap:butt;stroke-linejoin:miter;stroke-miterlimit:10;stroke-opacity:1;stroke-dasharray:none" /><path
           d="M 605.842,7.254 606.268,6 l 0.636,0 -1.56,4.308 -0.66,0 -1.62,-4.308 0.6,0 0.45,1.254 1.728,0 z m -1.548,0.516 0.69,1.896 0.012,0 0.636,-1.896 -1.338,0 z"
           id="path676"
           style="fill:none;stroke:#ffffff;stroke-width:0.40000001;stroke-linecap:butt;stroke-linejoin:miter;stroke-miterlimit:10;stroke-opacity:1;stroke-dasharray:none" /><path
           d="m 611.547,6 0,4.308 -0.828,0 -1.224,-3.642 -0.011,0 -1.231,3.642 -0.834,0 0,-4.308 0.564,0 0,2.544 c 0,0.126 -0.012,0.672 -0.012,1.068 l 0.012,0 1.212,-3.612 0.576,0 1.213,3.618 0.011,0 c 0,-0.402 -0.011,-0.948 -0.011,-1.074 l 0,-2.544 0.563,0 z"
           id="path678"
           style="fill:none;stroke:#ffffff;stroke-width:0.40000001;stroke-linecap:butt;stroke-linejoin:miter;stroke-miterlimit:10;stroke-opacity:1;stroke-dasharray:none" /></g></g></g></svg>