<svg version="1.1" xmlns="http://www.w3.org/2000/svg" viewBox="0 0 283.5 85" enable-background="new 0 0 283.5 85"><path d="m128.7 74.1c-2.9 0-6.5 0-9.6 0-.2-.5-3.6-19.5-5-27.4-2.2 9.1-4.4 18-6.7 27.4-2.7 0-5.4 0-8.3 0 5-21 10.5-42.1 15.5-63.1 9.5 0 10.4 0 20.5 0 3.4 0 5 1.6 4.9 5-.1 1.5-.2 2-.5 3.4-2 8.1-2.6 10.4-5.6 22.8-4.6 1.1-5.1 1.2-10.5 2.4 1.8 10.5 2.7 15.3 5.3 29.5m-7.9-54.6c-1.6 6.5-2.1 8.7-4.3 17.7 4.6-1.1 7.3-1.8 9.2-2.1 2-8.3 2.2-8.8 3.8-15.6-3.7 0-4.3 0-8.7 0" fill="#f9ce3a"/><path d="m200 74.1c-2.9 0-6.5 0-9.6 0-.2-.5-3.6-19.5-5-27.4-2.2 9.1-4.4 18-6.7 27.4-2.7 0-5.4 0-8.3 0 5-21 10.5-42.1 15.5-63.1 9.5 0 10.4 0 20.5 0 3.4 0 5 1.6 4.9 5-.1 1.5-.2 2-.5 3.4-2 8.1-2.6 10.4-5.6 22.8-4.6 1.1-5.1 1.2-10.5 2.4 1.8 10.5 2.7 15.3 5.3 29.5m-7.9-54.6c-1.6 6.5-2.1 8.7-4.3 17.7 4.6-1.1 7.3-1.8 9.2-2.1 2-8.3 2.2-8.8 3.8-15.6-3.7 0-4.3 0-8.7 0" fill="#f9ce3a"/><path d="m13.6 54.6c4.6-1.1 5.3-1.2 10.1-2.3-1.1 4.6-1.6 6.7-3 12.4 3.2 0 3.7 0 7.5 0 1.5-6 4.5-18.4 4.9-20.1-6.2 1.4-8.9 2-18 4.1 1.1-4.6.3-.9.4-1.3 1.8-7.5 3.5-15 5.3-22.4.7-2.9 1.3-5.8 2.3-8.5 1.4-3.6 4.1-5.7 8.3-5.5 4.2.2 8.3 0 12.5.1 1.8 0 3 .5 3.8 1.4.5.6.7 1.1 1 1.9.1.5.2 1.2-.2 3.1-.9 3.7-1.7 6.8-2.5 10.3-3.5.8-5.4 1.2-9.2 2.1.8-3.5 1.8-7 2.6-10.4-3.6 0-3.7 0-7.5 0-1.5 5.9-2.7 11.1-4.2 17 8.2-1.9 8-1.8 17.1-3.9-.4 1.4-.6 2.6-.9 3.8-.7 3-1.5 6-2.2 9.1-.8 3.4-1.5 5.9-2.6 10.3-1 3.9-1.7 6.8-2.8 11.6-.5 1.7-1.1 3.4-2.4 4.7-1.6 1.6-3 2-4.8 2-4.7 0-9.4 0-14.1 0-2.8 0-4.5-1.8-4.5-4.2 0-1.6.4-3.6.7-5.2.7-3.4 1.6-6.5 2.4-10.1" fill="#f9ce3a"/><path d="m64.3 74.1c1.2-5 12.7-51.3 13.7-55.8.5-2.2 1.5-3.9 3-5.5 1.2-1.3 2.8-1.8 4.5-1.8 4.9 0 9.7 0 14.6 0 2.9 0 4.4 1.4 4.6 4.4.1 1.8-.1 2.5-.4 3.7-2.1 9.2-13.3 54.5-13.5 55-2.6 0-5.4 0-8.3 0 .3-1.4 4.3-17.6 7.1-29-4.6 1.1-10.2 2.4-10.5 2.4-2.4 9.8-5.3 21.7-6.5 26.6-2.6 0-5.5 0-8.3 0m31.6-54.6c-3.9 0-5.4 0-9.9 0-1.1 4.7-2.5 10.2-4.3 17.6 4.7-1.1 10.5-2.4 10.5-2.4s3.7-14.6 3.7-15.2" fill="#f9ce3a"/><path d="m249.5 51.1c-3.5 5.1-4.1 6.3-7.5 11.1-1.4 5.8-1.9 7.8-2.9 11.8-2.7 0-5.3 0-8.2 0 5-21.1 10.5-42.1 15.5-63.1 2.8 0 5.5 0 8.2 0-2.1 8.5-3.4 13.9-5.2 21.2 8.1-12.1 8.5-12.7 14.1-21.2 3 0 6.1 0 9.4 0-6.8 10.3-7.3 11-16.6 25 3.5 19.4 6.8 37.4 6.8 38-4.4 0-5.2 0-9.6 0-1.5-8.7-2.1-12.5-4-22.8" fill="#f9ce3a"/><path d="m203.4 74.1c.3-1.5 3.2-12.8 4.2-16.9 1.1-4.5 2.2-9.1 3.3-13.6 2-8.3 3.9-15.7 5.9-24 .6-2.7 1.7-5.8 4-7.3.9-.6 1.6-1.2 3.9-1.2 6.7 0 7.1 0 14.2 0-.9 3.8-1.2 4.7-2.1 8.5-4.5 0-6.5 0-11 0-1.3 5.5-2.6 10.6-4 16.4 4.8-1.1 5.8-1.4 11.6-2.7-.8 3.2-1.7 6.9-2.5 10.1-5.1 1.2-7.1 1.6-11.6 2.7-1.5 6.1-1.7 6.8-4.6 18.8 4.9 0 5.9 0 11 0-.7 2.8-1.7 6.6-2.3 9.4-6.7-.2-13.3-.2-20-.2" fill="#f9ce3a"/><path d="m58.3 19.5c-3.5 0-3.8 0-7 0 .6-2.7 1.4-5.7 2.1-8.5 7.4 0 14.7 0 22.4 0-.7 2.8-1.4 5.7-2.1 8.5-3.3 0-4.1 0-7.1 0-1.7 7.2-13.2 54.2-13.4 54.6-2.5 0-5.4 0-8.3 0 4.3-18.1 8.9-36.5 13.4-54.6" fill="#f9ce3a"/><path d="m164.8 19.5c-3.5 0-3.8 0-7 0 .6-2.7 1.4-5.7 2.1-8.5 7.4 0 14.7 0 22.4 0-.7 2.8-1.4 5.7-2.1 8.5-3.3 0-4.1 0-7.1 0-1.7 7.2-13.2 54.2-13.4 54.6-2.5 0-5.4 0-8.3 0 4.3-18.1 9-36.5 13.4-54.6" fill="#f9ce3a"/></svg>