<?xml version="1.0" encoding="UTF-8" standalone="no"?>
<svg xmlns:rdf="http://www.w3.org/1999/02/22-rdf-syntax-ns#" xmlns="http://www.w3.org/2000/svg" height="139.769" width="228.552" version="1.1" xmlns:cc="http://creativecommons.org/ns#" xmlns:dc="http://purl.org/dc/elements/1.1/">
 <g transform="translate(-235.506 -922.647)">
  <path d="m344.19 935.453h4.08213c-0.9165 2.9175-3.94738 5.025-7.54201 5.025-4.31199 0-7.80912-3.03125-7.80912-6.7675 0-3.74 3.49713-6.77 7.80912-6.77 3.42626 0.0175 6.5215 1.9425 7.50051 4.895h-4.13338c-0.76025-1.0275-2.041-1.59125-3.36713-1.5975-2.21 0-4.00399 1.5525-4.00399 3.4725 0 1.91625 1.79399 3.46875 4.00399 3.46875 1.46875 0 2.75288-0.6875 3.45988-1.72625" fill-rule="evenodd" fill="#ef3120"/>
  <g transform="matrix(.124919 0 0 -.125081 226.109 1112.95)">
   <path d="m945.267 1419.07h32.677c-7.337-23.32-31.599-40.18-60.375-40.18-34.519 0-62.513 24.23-62.513 54.11 0 29.9 27.994 54.13 62.513 54.13 27.428-0.14 52.206-15.54 60.043-39.14h-33.088c-6.086 8.21-16.339 12.72-26.955 12.77-17.691 0-32.052-12.42-32.052-27.76 0-15.32 14.361-27.74 32.052-27.74 11.758 0 22.038 5.5 27.698 13.81z" stroke="#231f20" stroke-miterlimit="2.6131" stroke-width="4.66893" fill="none"/>
  </g>
  <path d="m380.516 940.263h-3.325l-7.1225-8.43875v8.43875h-3.48125v-13.255h3.44875l6.99875 8.2925v-8.2925h3.48125v13.255" fill-rule="evenodd" fill="#ef3120"/>
  <g transform="matrix(.124919 0 0 -.125081 226.109 1112.95)">
   <path d="m1236.06 1380.61h-26.62l-57.01 67.46v-67.46h-27.87v105.97h27.61l56.02-66.29v66.29h27.87v-105.97z" stroke="#231f20" stroke-miterlimit="2.6131" stroke-width="4.66893" fill="none"/>
  </g>
  <path d="m397.106 940.263h-3.325l-7.12125-8.43875v8.43875h-3.4825v-13.255h3.44875l6.99875 8.2925v-8.2925h3.48125v13.255" fill-rule="evenodd" fill="#ef3120"/>
  <g transform="matrix(.124919 0 0 -.125081 226.109 1112.95)">
   <path d="m1368.87 1380.61h-26.61l-57.01 67.46v-67.46h-27.88v105.97h27.61l56.02-66.29v66.29h27.87v-105.97z" stroke="#231f20" stroke-miterlimit="2.6131" stroke-width="4.66893" fill="none"/>
  </g>
  <path d="m405.956 931.721-3.75125-4.7125h-3.68125l5.68 7.14v6.115h3.4825v-5.9775l5.87375-7.2775h-3.80375l-3.80375 4.7125h0.004" fill-rule="evenodd" fill="#ef3120"/>
  <g transform="matrix(.124919 0 0 -.125081 226.109 1112.95)">
   <path d="m1439.71 1448.91-30.03 37.67h-29.47l45.47-57.08v-48.89h27.89v47.79l47.01 58.18h-30.45l-30.44-37.67h0.02z" stroke="#231f20" stroke-miterlimit="2.6131" stroke-width="4.66893" fill="none"/>
  </g>
  <path d="m331.043 940.263h-3.32275l-7.12462-8.43875v8.43875h-3.48038v-13.255h3.44875l6.996 8.2925v-8.2925h3.48301v13.255" fill-rule="evenodd" fill="#ef3120"/>
  <g transform="matrix(.124919 0 0 -.125081 226.109 1112.95)">
   <path d="m840.022 1380.61h-26.599l-57.033 67.46v-67.46h-27.862v105.97h27.608l56.005-66.29v66.29h27.881v-105.97z" stroke="#231f20" stroke-miterlimit="2.6131" stroke-width="4.66893" fill="none"/>
  </g>
  <path d="m358.774 935.191-1.8875-4.06-2.1625 4.06h4.05zm1.005 2.16375 1.35125 2.90875h3.49125l-6.1625-13.255h-3.1875l-7.0605 13.255h3.8105l1.55-2.90875h6.2075" fill-rule="evenodd" fill="#ef3120"/>
  <g transform="matrix(.124919 0 0 -.125081 226.109 1112.95)">
   <path d="m1062.01 1421.17-15.11 32.46-17.31-32.46h32.42zm8.05-17.3 10.81-23.26h27.95l-49.33 105.97h-25.52l-56.518-105.97h30.498l12.41 23.26h49.7z" stroke="#231f20" stroke-miterlimit="2.6131" stroke-width="4.66893" fill="none"/>
  </g>
  <path d="m310.516 935.402v-8.39375h3.76312v9.4175c0 2.18625-3.0635 3.9575-6.84375 3.9575-3.77925 0-6.84475-1.77125-6.84475-3.9575v-9.4175h3.75588v8.39375c0 0.9825 1.38087 1.7825 3.0855 1.7825 1.70262 0 3.084-0.8 3.084-1.7825" fill-rule="evenodd" fill="#ef3120"/>
  <g transform="matrix(.124919 0 0 -.125081 226.109 1112.95)">
   <path d="m675.697 1419.48v67.1h30.125v-75.29c0-17.48-24.524-31.63-54.786-31.63-30.254 0-54.793 14.15-54.793 31.63v75.29h30.066v-67.1c0-7.86 11.054-14.25 24.7-14.25 13.63 0 24.688 6.39 24.688 14.25z" stroke="#231f20" stroke-miterlimit="2.6131" stroke-width="4.66893" fill="none"/>
  </g>
  <path d="m432.298 1012.4 4.08875-5.0848 3.56375 3.0415 10.57-2.8219 9.0125-10.2075-43.16-52.6396-12.0388 0.002-2.4575 3.90375-4.5875-3.90375h-11.0888l-2.63 4.17625-3.12-4.17625h-22.665l-2.7725 4.405-3.09125-4.405-11.2944-0.002-8.54062 13.5688-12.8446-13.5662-14.2871-0.002-5.6695 10.6025 0.65525-10.6h-14.3271l-7.26312 13.315-13.8452-13.315h-15.9029l-8.75487 20.235 30.7955 34.6444-9.26713 58.4463 22.3002-5.9541 10.7334-17.9087 0.51475-8.333 17.0308 18.6968 22.664-6.0498 3.53425-5.042 3.021 3.2939 14.4362-3.853 2.98-4.2525 2.61875 2.7564 7.0925-1.8921 3.96625-5.1743 2.3275 3.4961 13.4412-3.5878 3.4525-4.4113 2.36625 2.858 22.08-5.8926 3.4375-4.2734 2.27625 2.7485 10.6488-2.8409" fill-rule="evenodd" fill="#137bb6"/>
  <g transform="matrix(.124919 0 0 -.125081 226.109 1112.95)">
   <path d="m1650.58 803.868 32.73 40.654 28.54-24.317 84.61 22.56 72.14 81.607-345.5 420.848-96.38-0.03-19.66-31.2-36.73 31.2h-88.76l-21.06-33.38-24.98 33.38h-181.43l-22.2-35.21-24.75 35.21-90.41 0.03-68.368-108.49-102.825 108.46-114.371 0.03-45.385-84.77 5.245 84.74h-114.691l-58.144-106.44-110.833 106.44h-127.306l-70.084-161.77 246.523-276.974-74.185-467.267 178.519 47.602 85.923 143.177 4.119 66.621 136.335-149.477 181.431 48.367 28.291 40.309 24.184-26.334 115.562 30.804 23.86 33.997 20.96-22.036 56.77 15.127 31.76 41.368 18.64-27.951 107.59 28.684 27.64 35.267 18.95-22.849 176.75 47.11 27.52 34.165 18.22-21.974 85.24 22.712z" stroke="#231f20" stroke-miterlimit="2.6131" stroke-width="4.66893" fill="none"/>
  </g>
  <path d="m281.887 927.008v13.255h12.2021v-2.7625h-9.09963v-3.0075h8.03076v-2.76h-8.03076v-1.96375h9.09963v-2.76125h-12.2031 0.001" fill-rule="evenodd" fill="#ef3120"/>
  <g transform="matrix(.124919 0 0 -.125081 226.109 1112.95)">
   <path d="m446.513 1486.58v-105.97h97.68v22.08h-72.844v24.05h64.288v22.07h-64.288v15.7h72.844v22.07h-97.688 0.008z" stroke="#231f20" stroke-miterlimit="2.6131" stroke-width="4.66893" fill="none"/>
  </g>
  <path d="m264.911 940.263h3.29688v-5.71125l6.64362-0.001v5.7125h3.29637l-0.001-13.255h-3.29487v4.7025h-6.64362v-4.7025h-3.29688v13.255" fill-rule="evenodd" fill="#ef3120"/>
  <g transform="matrix(.124919 0 0 -.125081 226.109 1112.95)">
   <path d="m310.616 1380.61h26.392v45.66l53.183 0.02v-45.68h26.388l-0.011 105.97h-26.377v-37.6h-53.183v37.6h-26.392v-105.97z" stroke="#231f20" stroke-miterlimit="2.6131" stroke-width="4.66893" fill="none"/>
  </g>
  <path d="m262.832 927.008v2.76125h-4.72751v10.4938h-3.34625v-10.4938h-4.71287v-2.76125h12.7866" fill-rule="evenodd" fill="#ef3120"/>
  <g transform="matrix(.124919 0 0 -.125081 226.109 1112.95)">
   <path d="m293.98 1486.58v-22.07h-37.845v-83.9h-26.787v83.9h-37.727v22.07h102.359z" stroke="#231f20" stroke-miterlimit="2.6131" stroke-width="4.66893" fill="none"/>
  </g>
  <path d="m365.878 1018.22-13.91 3.1015-47.013-76.6284 14.2871 0.002 37.6021 39.7162-16.2169-39.7188 11.2944 0.002 46.4862 66.269-11.8425 2.6416-20.2038-29.7356 12.86 31.3732-6.74 1.5025-26.3515-29.7082 19.7478 31.1818" fill-rule="evenodd" fill="#fff200"/>
  <g transform="matrix(.124919 0 0 -.125081 226.109 1112.95)">
   <path d="m1118.88 757.383-111.36-24.797-376.344 612.634 114.371-0.03 301.013-317.52-129.82 317.55 90.41-0.03 372.14-529.802-94.8-21.119l-161.74 237.731 102.95-250.824-53.96-12.012-210.948 237.516 158.088-249.297z" stroke="#231f20" stroke-miterlimit="2.6131" stroke-width="4.66893" fill="none"/>
  </g>
  <path d="m326.099 987.167-12.4708 1.04913-7.499-12.3116 13.169-0.35 6.91062 11.6038-0.10987 0.009" fill-rule="evenodd" fill="#fff200"/>
  <g transform="matrix(.124919 0 0 -.125081 226.109 1112.95)">
   <path d="m800.442 1005.62-99.83-8.381-60.032 98.421 105.42 2.81 55.321-92.77-0.879-0.08z" stroke="#231f20" stroke-miterlimit="2.6131" stroke-width="4.66893" fill="none"/>
  </g>
  <path d="m294.409 1034.16-21.7114 4.8423 8.061-58.8589-32.1568-35.4462h15.9029l18.6519 17.9362 2.45649-17.9362h14.3281l-1.98975 32.1638 47.6998 45.8719-21.8394 4.8701-27.1465-29.9262-2.25637 36.4834" fill-rule="evenodd" fill="#fff200"/>
  <g transform="matrix(.124919 0 0 -.125081 226.109 1112.95)">
   <path d="m546.758 629.958-173.805-38.713 64.53 470.565-257.421 283.38h127.306l149.312-143.39 19.665 143.39h114.699l-15.928-257.14 381.846-366.734-174.829-38.935-217.313 239.254-18.062-291.677z" stroke="#231f20" stroke-miterlimit="2.6131" stroke-width="4.66893" fill="none"/>
  </g>
  <path d="m386.2 944.693 44.725 59.017 10.1925-2.271-22.3275-28.9086 30.6812 27.0442 10.0612-2.24462-43.16-52.6396-12.0388 0.002 17.3012 20.7262-24.3462-20.7262h-11.0888" fill-rule="evenodd" fill="#fff200"/>
  <g transform="matrix(.124919 0 0 -.125081 226.109 1112.95)">
   <path d="m1281.57 1345.19 358.02-471.824 81.59 18.156-178.73 231.118 245.61-216.213 80.54 17.945-345.5 420.848-96.38-0.03 138.51-165.69-194.9 165.69h-88.76z" stroke="#231f20" stroke-miterlimit="2.6131" stroke-width="4.66893" fill="none"/>
  </g>
  <path d="m404.328 1009.64 21.1288-4.7124-9.33625-12.497-8.94375 1.32563-9.46625-12.7966 8.96375-1.17-8.56-11.4588-9.18375 0.75625-9.28-12.5525 9.39625-0.34-8.59625-11.5038h-22.665l46.5425 64.9492" fill-rule="evenodd" fill="#fff200"/>
  <g transform="matrix(.124919 0 0 -.125081 226.109 1112.95)">
   <path d="m1426.67 825.94 169.15 37.675-74.75 99.911-71.59-10.598-75.78 102.302 71.76 9.36-68.52 91.61-73.52-6.05-74.29 100.36 75.22 2.71-68.82 91.97h-181.43l372.57-519.25z" stroke="#231f20" stroke-miterlimit="2.6131" stroke-width="4.66893" fill="none"/>
  </g>
  <g transform="matrix(.124919 0 0 -.125081 226.109 1112.95)">
   <path d="m801.321 1005.7-52.608-83.456" stroke="#231f20" stroke-linecap="round" stroke-miterlimit="2.6131" stroke-width="4.66893" fill="none"/>
  </g>
  <g transform="matrix(.124919 0 0 -.125081 226.109 1112.95)">
   <path d="m700.612 997.239-11.676-18.512" stroke="#231f20" stroke-linecap="round" stroke-miterlimit="2.6131" stroke-width="4.66893" fill="none"/>
  </g>
  <g transform="matrix(.124919 0 0 -.125081 226.109 1112.95)">
   <path d="m640.58 1095.66-27.686-43.91" stroke="#231f20" stroke-linecap="round" stroke-miterlimit="2.6131" stroke-width="4.66893" fill="none"/>
  </g>
  <g transform="matrix(.124919 0 0 -.125081 226.109 1112.95)">
   <path d="m1405.97 1011.67 39.49 52.92" stroke="#231f20" stroke-linecap="round" stroke-miterlimit="2.6131" stroke-width="4.66893" fill="none"/>
  </g>
  <g transform="matrix(.124919 0 0 -.125081 226.109 1112.95)">
   <path d="m782.133 682.381-94.921-135.279" stroke="#231f20" stroke-linecap="round" stroke-miterlimit="2.6131" stroke-width="4.66893" fill="none"/>
  </g>
  <g transform="matrix(.124919 0 0 -.125081 226.109 1112.95)">
   <path d="m1007.52 732.586-86.402-123.142" stroke="#231f20" stroke-linecap="round" stroke-miterlimit="2.6131" stroke-width="4.66893" fill="none"/>
  </g>
  <g transform="matrix(.124919 0 0 -.125081 226.109 1112.95)">
   <path d="m1118.88 757.383-82.2-117.135" stroke="#231f20" stroke-linecap="round" stroke-miterlimit="2.6131" stroke-width="4.66893" fill="none"/>
  </g>
  <g transform="matrix(.124919 0 0 -.125081 226.109 1112.95)">
   <path d="m1171.74 769.164-90.24-116.955" stroke="#231f20" stroke-linecap="round" stroke-miterlimit="2.6131" stroke-width="4.66893" fill="none"/>
  </g>
  <g transform="matrix(.124919 0 0 -.125081 226.109 1112.95)">
   <path d="m1225.7 781.176-87.43-113.84" stroke="#231f20" stroke-linecap="round" stroke-miterlimit="2.6131" stroke-width="4.66893" fill="none"/>
  </g>
  <g transform="matrix(.124919 0 0 -.125081 226.109 1112.95)">
   <path d="m1284.49 794.269-95.82-113.516" stroke="#231f20" stroke-linecap="round" stroke-miterlimit="2.6131" stroke-width="4.66893" fill="none"/>
  </g>
  <g transform="matrix(.124919 0 0 -.125081 226.109 1112.95)">
   <path d="m1379.29 815.388-83.03-105.951" stroke="#231f20" stroke-linecap="round" stroke-miterlimit="2.6131" stroke-width="4.66893" fill="none"/>
  </g>
  <g transform="matrix(.124919 0 0 -.125081 226.109 1112.95)">
   <path d="m1426.67 825.94-83.82-104.085" stroke="#231f20" stroke-linecap="round" stroke-miterlimit="2.6131" stroke-width="4.66893" fill="none"/>
  </g>
  <g transform="matrix(.124919 0 0 -.125081 226.109 1112.95)">
   <path d="m956.962 721.316-88.319-125.847" stroke="#231f20" stroke-linecap="round" stroke-miterlimit="2.6131" stroke-width="4.66893" fill="none"/>
  </g>
  <g transform="matrix(.124919 0 0 -.125081 226.109 1112.95)">
   <path d="m1268.79 1204.49 35.56 48.73" stroke="#231f20" stroke-linecap="round" stroke-miterlimit="2.6131" stroke-width="4.66893" fill="none"/>
  </g>
  <g transform="matrix(.124919 0 0 -.125081 226.109 1112.95)">
   <path d="m1595.82 863.615-76.22-94.65" stroke="#231f20" stroke-linecap="round" stroke-miterlimit="2.6131" stroke-width="4.66893" fill="none"/>
  </g>
  <g transform="matrix(.124919 0 0 -.125081 226.109 1112.95)">
   <path d="m1639.59 873.366-74.25-92.21" stroke="#231f20" stroke-linecap="round" stroke-miterlimit="2.6131" stroke-width="4.66893" fill="none"/>
  </g>
  <g transform="matrix(.124919 0 0 -.125081 226.109 1112.95)">
   <path d="m1721.18 891.522-70.6-87.654" stroke="#231f20" stroke-linecap="round" stroke-miterlimit="2.6131" stroke-width="4.66893" fill="none"/>
  </g>
  <g transform="matrix(.124919 0 0 -.125081 226.109 1112.95)">
   <path d="m1788.06 906.427-76.21-86.222" stroke="#231f20" stroke-linecap="round" stroke-miterlimit="2.6131" stroke-width="4.66893" fill="none"/>
  </g>
  <g transform="matrix(.124919 0 0 -.125081 226.109 1112.95)">
   <path d="m1868.6 924.372-72.14-81.607" stroke="#231f20" stroke-linecap="round" stroke-miterlimit="2.6131" stroke-width="4.66893" fill="none"/>
  </g>
  <g transform="matrix(.124919 0 0 -.125081 226.109 1112.95)">
   <path d="m372.953 591.245-90.637-152.066" stroke="#231f20" stroke-linecap="round" stroke-miterlimit="2.6131" stroke-width="4.66893" fill="none"/>
  </g>
  <g transform="matrix(.124919 0 0 -.125081 226.109 1112.95)">
   <path d="m356.501 906.446 80.982 155.364" stroke="#231f20" stroke-linecap="round" stroke-miterlimit="2.6131" stroke-width="4.66893" fill="none"/>
  </g>
  <g transform="matrix(.124919 0 0 -.125081 226.109 1112.95)">
   <path d="m1711.85 820.205-28.54 24.317" stroke="#231f20" stroke-linecap="round" stroke-miterlimit="2.6131" stroke-width="4.66893" fill="none"/>
  </g>
 </g>
</svg>
