<?xml version="1.0" encoding="UTF-8"?>
<!DOCTYPE svg PUBLIC "-//W3C//DTD SVG 1.1//EN" "http://www.w3.org/Graphics/SVG/1.1/DTD/svg11.dtd">
<!-- Creator: CorelDRAW 2019 (64-Bit) -->
<svg xmlns="http://www.w3.org/2000/svg" xml:space="preserve" width="197.913mm" height="80.7705mm" version="1.1" style="shape-rendering:geometricPrecision; text-rendering:geometricPrecision; image-rendering:optimizeQuality; fill-rule:evenodd; clip-rule:evenodd"
viewBox="0 0 197.7973 80.7233"
 xmlns:xlink="http://www.w3.org/1999/xlink"
 xmlns:xodm="http://www.corel.com/coreldraw/odm/2003">
 <defs>
  <style type="text/css">
   <![CDATA[
    .str0 {stroke:#D32424;stroke-width:0.3349;stroke-miterlimit:4}
    .fil1 {fill:none}
    .fil2 {fill:#F0A0A1}
    .fil0 {fill:#D32424}
    .fil3 {fill:#88241E}
   ]]>
  </style>
 </defs>
 <g id="Layer_x0020_1">
  <metadata id="CorelCorpID_0Corel-Layer"/>
  <g id="_890497616">
   <path class="fil0" d="M187.5534 18.1353c-0.3156,0 -0.6097,0.0567 -0.882,0.1699 -0.2724,0.1132 -0.522,0.2831 -0.7484,0.5097 -0.2266,0.2266 -0.3977,0.4777 -0.5135,0.7537 -0.1156,0.2759 -0.1735,0.5706 -0.1735,0.8839 0,0.3109 0.0579,0.603 0.1735,0.8766 0.1158,0.2735 0.2869,0.5236 0.5135,0.7501 0.2264,0.2266 0.4759,0.3971 0.7484,0.5115 0.2722,0.1145 0.5664,0.1717 0.882,0.1717 0.3181,0 0.614,-0.0572 0.8877,-0.1717 0.2733,-0.1144 0.5235,-0.2849 0.7501,-0.5115 0.2242,-0.2241 0.3923,-0.4723 0.5043,-0.7447 0.1121,-0.2722 0.1681,-0.5663 0.1681,-0.882 0,-0.3205 -0.0566,-0.6175 -0.1699,-0.8911 -0.1132,-0.2735 -0.2807,-0.5224 -0.5025,-0.7465 -0.2266,-0.2266 -0.4767,-0.3965 -0.7501,-0.5097 -0.2736,-0.1132 -0.5696,-0.1699 -0.8877,-0.1699zm0 -0.3723l0 0c0.3664,0 0.7081,0.0663 1.025,0.1988 0.3168,0.1325 0.6067,0.3302 0.8694,0.5929 0.2626,0.2626 0.4591,0.5519 0.5893,0.8676 0.1302,0.3156 0.1952,0.6591 0.1952,1.0302 0,0.3663 -0.065,0.7067 -0.1952,1.0212 -0.1301,0.3145 -0.3266,0.603 -0.5893,0.8658 -0.2626,0.2626 -0.5526,0.4602 -0.8694,0.5928 -0.3169,0.1326 -0.6586,0.1989 -1.025,0.1989 -0.3663,0 -0.7079,-0.0663 -1.0249,-0.1989 -0.3169,-0.1325 -0.6066,-0.3301 -0.8694,-0.5928 -0.2628,-0.2627 -0.4592,-0.5513 -0.5893,-0.8658 -0.1301,-0.3145 -0.1953,-0.6549 -0.1953,-1.0212 0,-0.3711 0.0652,-0.7146 0.1953,-1.0302 0.13,-0.3157 0.3264,-0.6049 0.5893,-0.8676 0.2627,-0.2626 0.5525,-0.4603 0.8694,-0.5929 0.317,-0.1325 0.6586,-0.1988 1.0249,-0.1988zm-0.0975 1.4965l0 0c0.2626,0 0.447,0.038 0.5532,0.1138 0.1059,0.076 0.159,0.2055 0.159,0.3887 0,0.1807 -0.0525,0.3084 -0.1572,0.3831 -0.1049,0.0748 -0.2899,0.1121 -0.555,0.1121l-0.4446 0 0 -0.9977 0.4446 0zm0.0252 -0.3723l0 0c0.4243,0 0.7413,0.0717 0.9509,0.2151 0.2097,0.1433 0.3144,0.3608 0.3144,0.6524 0,0.2073 -0.0633,0.3784 -0.1898,0.5133 -0.1264,0.1349 -0.3054,0.223 -0.5368,0.2639 0.0578,0.0193 0.1271,0.0753 0.2079,0.1681 0.0807,0.0927 0.1766,0.2271 0.2873,0.403l0.4954 0.8061 -0.6218 0 -0.4664 -0.7555c-0.1422,-0.2314 -0.2572,-0.3778 -0.3453,-0.4392 -0.0878,-0.0615 -0.197,-0.0921 -0.3271,-0.0921l-0.2386 0 0 1.2868 -0.5604 0 0 -3.0219 1.0302 0z"/>
   <path class="fil1 str0" d="M187.5537 18.135c-0.3157,0 -0.6109,0.0573 -0.8834,0.171 -0.2725,0.1127 -0.522,0.2827 -0.7485,0.5093 -0.2253,0.2258 -0.3965,0.4769 -0.5125,0.7533 -0.1159,0.2754 -0.1739,0.5703 -0.1739,0.8843 0,0.3112 0.058,0.6032 0.1739,0.8762 0.116,0.2733 0.2872,0.5235 0.5125,0.75 0.2265,0.2269 0.4759,0.3977 0.7485,0.5126 0.2724,0.1142 0.5677,0.171 0.8834,0.171 0.3182,0 0.6136,-0.0568 0.8874,-0.171 0.2723,-0.1149 0.5232,-0.2857 0.7498,-0.5126 0.224,-0.2245 0.3926,-0.4729 0.5044,-0.745 0.1119,-0.2721 0.1673,-0.5659 0.1673,-0.8812 0,-0.3205 -0.0567,-0.6175 -0.1714,-0.8909 -0.1118,-0.2743 -0.2791,-0.5231 -0.5003,-0.7467 -0.2266,-0.2266 -0.4774,-0.3966 -0.7498,-0.5093 -0.2737,-0.1137 -0.5692,-0.171 -0.8874,-0.171z"/>
   <path class="fil1 str0" d="M187.5537 17.7633c0.3654,0 0.7067,0.0664 1.0235,0.1991 0.3169,0.132 0.6068,0.3294 0.8712,0.5924 0.2616,0.2621 0.4573,0.5518 0.5867,0.8678 0.1309,0.3152 0.1957,0.6587 0.1957,1.0303 0,0.3663 -0.0648,0.7065 -0.1957,1.0204 -0.1293,0.3145 -0.325,0.6032 -0.5867,0.8662 -0.2643,0.2621 -0.5543,0.4596 -0.8712,0.5924 -0.3168,0.1327 -0.6581,0.1992 -1.0235,0.1992 -0.3668,0 -0.7081,-0.0665 -1.0264,-0.1992 -0.3156,-0.1327 -0.6054,-0.3302 -0.8684,-0.5924 -0.2629,-0.2629 -0.4599,-0.5517 -0.5895,-0.8662 -0.1295,-0.3139 -0.1942,-0.6541 -0.1942,-1.0204 0,-0.3716 0.0647,-0.7151 0.1942,-1.0303 0.1295,-0.316 0.3265,-0.6056 0.5895,-0.8678 0.2629,-0.2629 0.5528,-0.4603 0.8684,-0.5924 0.3183,-0.1327 0.6596,-0.1991 1.0264,-0.1991z"/>
   <polyline class="fil1 str0" points="187.4552,19.2598 187.0101,19.2598 187.0101,20.2571 187.4552,20.2571 "/>
   <path class="fil1 str0" d="M187.4552 20.2571c0.2655,0 0.4504,-0.0368 0.5543,-0.111 0.1051,-0.0752 0.1578,-0.2033 0.1578,-0.3851 0,-0.1824 -0.0541,-0.311 -0.1591,-0.3866 -0.1053,-0.0762 -0.29,-0.1145 -0.553,-0.1145"/>
   <path class="fil1 str0" d="M187.4795 18.8866c0.4248,0 0.7417,0.0722 0.9507,0.2158 0.2104,0.1427 0.3155,0.3601 0.3155,0.652 0,0.207 -0.0635,0.378 -0.1902,0.5128 -0.1266,0.1351 -0.3048,0.2235 -0.5368,0.2654 0.0581,0.0191 0.1268,0.0747 0.2078,0.1675 0.081,0.0928 0.1766,0.2273 0.2885,0.4032"/>
   <polyline class="fil1 str0" points="188.5151,21.1033 189.01,21.9098 188.387,21.9098 187.9218,21.1531 "/>
   <path class="fil1 str0" d="M187.9218 21.1531c-0.1431,-0.2312 -0.2577,-0.377 -0.3454,-0.4379 -0.0876,-0.062 -0.1968,-0.0929 -0.3277,-0.0929"/>
   <polyline class="fil1 str0" points="187.2487,20.6222 187.0101,20.6222 187.0101,21.9098 186.449,21.9098 186.449,18.8866 187.4795,18.8866 "/>
   <path class="fil0" d="M164.1791 13.9619l4.7457 4.9811 -11.7945 41.7647 -6.1697 5.0312 17.337 -0.2261 -4.0429 -3.8341 2.762 -12.5155 9.2671 0.0672 2.5191 12.2471 -3.9432 4.2945 21.2978 -0.1589 -5.2824 -5.0312 -12.4147 -46.4527 -14.2813 -0.1673zm7.637 18.4399l0 0 3.2797 11.5998 -6.2007 -0.2007 2.921 -11.3991z"/>
   <path class="fil0" d="M137.0315 14.7721l-12.9037 -0.474 4.9131 4.7668 0.0643 42.2874 -6.6254 5.2356 17.1423 -0.7537c30.0093,-5.6313 25.0076,-52.0936 -2.5906,-51.0621zm2.2846 4.1295l0 0c10.0952,0.3176 15.8318,34.7396 0.3856,42.367l-0.3856 -42.367zm-129.9738 -13.5875l0 0 -5.8933 16.0398 15.4368 -12.1218 30.5052 0.3014 -45.6071 69.348 55.4434 0.879 4.932 -13.4487 29.3893 -0.3435 -0.3276 -23.3652 -7.2138 18.4141 -9.0458 -0.0333 0.0643 -18.4049 5.0499 -0.4901 4.8741 5.5563 -0.0338 -16.2785 -4.9985 5.2467 -4.8818 -0.0928 -0.007 -17.6085 8.8113 -0.524 7.608 15.6689 0.2299 -19.9886 -31.409 0.2298 4.0948 5.0991 0.1624 42.1849 -14.6569 13.0806 -33.2175 0.1675 45.5402 -69.4825 -54.8493 -0.0336z"/>
   <path class="fil0" d="M94.1348 14.4941l22.0567 -0.3587 -5.1418 4.5301 0.2313 42.1894 4.8533 -0.132 6.9867 -18.9378 0.2939 23.8249 -29.6223 -0.0984 6.4791 -4.5396 -0.358 -42.4307 -5.7789 -4.047zm26.0107 -10.5525l0 0c-0.0335,-3.8175 4.5873,-4.4538 7.4673,-3.6167l0.0336 2.2437c-0.4691,-2.0425 -2.7124,-2.2769 -4.4201,-1.8417 -0.7369,0.5359 -1.0716,1.373 -1.3063,2.2438 0.1341,1.7076 0.1341,4.3191 2.4444,4.6876 0.536,-0.1003 1.1054,-0.1341 1.6747,-0.1671l0.1003 -2.6122c-0.3683,-0.2343 -0.703,-0.4686 -1.0716,-0.703 1.8016,0.4736 1.7896,0.3651 3.4825,0 -0.2008,0.1671 -0.536,0.4687 -0.7031,0.6362l0 2.846c-2.9132,1.1722 -8.0033,0.3015 -7.7017,-3.7166zm19.1868 -3.7171l0 0 4.3193 5.0896 0 -4.4823 -1.0033 -0.6741c1.3054,0.2344 1.3728,0.2679 2.8118,0.0668l-1.0033 0.6363 0 7.2997 -5.8945 -6.8646 0 5.8935 1.2392 1.0047c-1.606,-0.4123 -1.6978,-0.4736 -3.1138,0l1.0709 -1.0047 0 -6.3958c-0.4357,-0.2008 -0.669,-0.4016 -1.0709,-0.6027 1.2381,0.2348 1.0048,-0.0332 2.6447,0.0336zm24.692 -0.1883l0 0c-1.6452,0.0639 -3.2758,0.9 -3.9352,2.5013 -0.066,0.4349 -0.1307,0.9017 -0.1983,1.3705 -0.0673,1.6075 0.8348,3.0512 2.2077,3.7881 3.1812,1.6408 7.4749,-1.2475 6.2371,-4.8974 -0.5517,-1.9213 -2.4464,-2.8346 -4.3113,-2.7625zm-0.2416 0.5231l0 0c3.4888,-0.207 3.9135,6.5406 0.4289,7.1683 -0.971,-0.2009 -1.6749,-0.9107 -2.1442,-1.7481 -0.1335,-0.4351 0.0013,-0.9623 -0.3668,-1.297 -0.0998,-1.4399 0.1672,-3.0157 1.3391,-3.9868 0.2414,-0.0747 0.4908,-0.1202 0.743,-0.1364zm-86.8147 -0.2929l0 0 5.8228 -0.0476 0.532 2.1464c-0.7031,-0.9709 -1.2166,-2.0403 -2.6232,-1.6049l0.2241 6.4441c0.1675,0.0672 0.8809,0.6881 1.0487,0.7553 -2.1642,-0.3592 -2.15,-0.3786 -4.2191,0.0333 0.4016,-0.2346 0.7699,-0.4689 1.2056,-0.6359l0 -6.6302c-1.3732,-0.3348 -1.9539,0.5392 -2.4226,1.6106l0.4317 -2.0711zm6.6785 -0.1086l0 0c1.7414,0.2344 1.8079,0.2344 3.7837,-0.0336 -0.2678,0.3015 -0.6025,0.5359 -0.971,0.6695l0.134 2.9469 3.2148 0.0334 0 -2.9467 -0.7702 -0.7031c1.5737,0.402 1.6409,0.402 3.6498,0.0668l-1.0046 0.536 0 6.5629 0.8371 0.7033c-1.8413,-0.3348 -2.0425,-0.3011 -3.7835,0.0336l1.0715 -0.6226 0 -3.094 -3.3824 0 0.1676 3.1478c0.5692,0.3685 0.4019,0.3349 0.9043,0.5693 -1.8085,-0.5025 -1.8418,-0.5025 -3.6498,0l0.5732 -0.7205 -0.0502 -6.6523 -0.7242 -0.4965zm9.6102 0.0332l0 0c1.9425,0.4691 3.2989,0.1148 5.8101,0.148 0,0.7032 0.1616,1.1699 0.1281,1.8729 -0.7278,-1.5111 -0.556,-1.5065 -2.0423,-1.5498l-1.5403 0.0337 0 3.0115 1.9642 -0.0336 0.837 -1.4399c-0.2119,1.6405 -0.2231,1.6075 0.0672,3.3152l-0.9042 -1.373 -1.9642 -0.0673 0 3.5184 2.1592 -0.0644c1.4318,-0.3936 1.5237,-0.7541 1.9812,-1.9807 0.0673,0.7703 0.0673,1.5406 0.0673,2.3105 -2.1095,-0.2007 -4.4201,-0.2679 -6.6302,0.1004l0.6028 -0.4689 0 -6.8641c-0.134,-0.1007 -0.4019,-0.3683 -0.536,-0.4691zm11.7197 -0.0668l0 0c1.7937,0.2564 1.9771,0.3177 3.8509,0.0336l-1.038 0.7521 0.0335 6.4804c1.6409,0.3683 3.6163,0.0674 3.9178,-1.9421 0.2008,0.8039 0.134,1.6409 0.134,2.4445 -2.6037,-0.0208 -4.5603,-0.4384 -6.7812,0.1004l0.984 -0.799 -0.0627 -6.3332 -1.0384 -0.7367zm44.6278 -0.0253l0 0c-1.6857,0.0145 -1.9756,0.4169 -3.4119,0.0944l0.89 0.6907 -0.1145 6.5714 -0.8375 0.5759c1.6411,-0.4356 1.4066,0.0585 4.6877,-0.042 5.1218,-0.119 4.6255,-7.9025 -0.398,-7.8692 -0.271,-0.0155 -0.5434,-0.0225 -0.8157,-0.0212zm0.2089 0.3979l0 0c3.3822,0.0672 3.954,4.9851 1.6425,6.76 -0.8022,0.2673 -1.4038,0.5355 -2.542,0.167 -0.1335,-2.2432 -0.0418,-4.4531 -0.0418,-6.6969 0.2347,-0.0337 0.708,-0.163 0.9412,-0.2302zm19.6565 -0.2386l0 0c1.9448,0.4383 2.1105,0.0024 6.395,0.0336 -0.0325,0.703 0,1.4399 -0.0325,2.1428 -0.2008,-0.4019 -0.3694,-0.8035 -0.5367,-1.2055 -0.1673,-0.1339 -0.5017,-0.3347 -0.6689,-0.4687 -0.77,-0.0335 -1.5076,-0.0672 -2.2776,-0.1003 -0.0998,1.0042 -0.0662,2.0089 -0.0662,3.0472 1.2718,0.2344 2.1766,-0.2011 2.7456,-1.3731 -0.0674,1.038 -0.0674,2.1098 0,3.1477 -0.569,-1.2391 -1.5738,-1.6075 -2.8805,-1.3394 0.1012,1.1051 0.1672,2.21 0.1672,3.3152 0.1686,0.1339 0.4694,0.4019 0.6365,0.5691 -1.2474,-0.5035 -2.3438,-0.3357 -3.4144,0l0.9749 -0.7156 -0.1051 -6.4838c-0.3344,-0.1672 -0.6365,-0.3684 -0.9374,-0.5691z"/>
   <polygon class="fil2" points="53.6244,12.643 42.8278,33.241 38.4748,35.3506 "/>
   <polygon class="fil3" points="53.6314,12.5972 38.6755,35.016 38.2736,30.7297 "/>
   <path class="fil2" d="M95.2324 12.7814c7.2994,0.4356 14.5996,0.0338 21.8994,0.2012 -0.7035,0.7032 -1.4398,1.4398 -2.4112,1.7411 -6.2951,-0.1003 -12.6239,-0.067 -18.9188,-0.0332 -0.134,-0.0338 -0.3685,-0.1341 -0.469,-0.2013l-0.1003 -1.7078z"/>
   <polygon class="fil3" points="117.3662,12.7478 117.9299,14.7121 112.377,18.9094 112.5777,60.0963 110.4349,61.5029 110.167,17.5866 114.7206,14.7237 "/>
   <path class="fil2" d="M123.0921 12.9491c8.3377,0.1672 16.6676,-0.8708 24.6374,2.1428l-1.4996 1.6073c-6.562,-2.8794 -13.8959,-1.7744 -20.8273,-2.0087l-3.8174 0.0332 1.5069 -1.7746zm40.3399 0.0335l0 0 16.0155 0 -1.6736 1.473 -15.538 0 1.1961 -1.473z"/>
   <path class="fil3" d="M179.4476 12.9826l0.2346 -0.2679 11.9212 46.6784 6.1939 5.9941 -0.1334 1.7076 -24.0084 0.1677 -0.5367 -1.9427 3.1152 -0.1336 18.4495 -0.0672 -4.6877 -3.951 -12.2219 -46.6452 1.6736 -1.5402zm-84.2152 -0.2012l0 0 0.1003 1.7078 5.2908 3.6834 -2.3105 0.4021 -3.0136 -1.8081 0 18.1821 -3.851 0.0337 1.6746 -1.4062 -0.0336 -18.9194 2.143 -1.8753zm26.3528 1.9423l0 0c1.2727,0 2.5449,-0.0332 3.8174,-0.0332 1.3731,1.4397 3.0473,2.5448 4.5206,3.8842 -0.7702,0.5022 -1.5737,0.9038 -2.4779,1.105 -1.9086,-1.7414 -3.8843,-3.3152 -5.8601,-4.956zm40.8571 -0.268l0 0 3.0085 0 4.3532 4.3868 -2.2198 0.1316 -5.1419 -4.5185z"/>
   <polygon class="fil2" points="167.6665,19.0769 169.804,18.8425 157.9166,61.2012 152.7273,65.0525 149.5124,67.2625 149.1443,65.2868 156.3766,59.7614 "/>
   <path class="fil3" d="M146.2299 16.6992l1.5104 -1.5745c10.5148,4.4197 13.9602,16.8776 13.0231,27.3583 -0.2347,5.1901 -1.3054,10.4811 -4.1861,14.9012 -4.2857,7.1994 -13.1929,9.9449 -21.1627,9.8109 -23.4061,0.134 -46.8121,-0.0336 -70.2521,0.0674l-4.7216 13.4608 -57.9965 0 -1.1719 -1.9422 57.1691 0.3016 5.3315 -14.1093 29.3832 0.1119 0 -21.9328 2.2436 -1.5402 -0.1004 21.4976 -0.5022 2.0491 28.1274 -0.0402 0 -21.7652 2.2437 -2.0761 0 20.7607 -0.9373 3.1811 16.273 -0.2681c7.3335,-0.6358 14.2313,-5.6923 16.2407,-12.8917 3.7166,-12.0881 2.7133,-29.5672 -10.5148,-35.3605zm-70.0841 0.9376l0 0 0.1003 19.7564 2.0762 -1.5401 0 -16.3074 0.0667 -0.2679 6.664 0 1.6216 -1.643 -10.5287 0.0021z"/>
   <path class="fil2" d="M86.5264 17.6036l6.5965 15.9726 -1.6746 1.4062 -0.1004 0.0671 -6.2949 -15.7717 1.4734 -1.6741zm51.3669 0.0332l0 0c10.2126,1.6075 12.6575,14.1643 12.6575,22.7704 -0.2347,8.3043 -2.5447,20.3926 -12.3231,21.9664l2.1429 -2.4781c2.8467,-0.9375 4.2195,-3.9515 5.3577,-6.4963 3.4482,-9.2419 3.4482,-20.1582 -0.9372,-29.0985 -1.0385,-1.775 -2.3115,-3.7839 -4.4543,-4.3199l-2.4436 -2.344z"/>
   <polygon class="fil3" points="138.0605,17.8044 140.3369,19.9808 140.3706,59.8955 138.4287,62.1392 "/>
   <path class="fil2" d="M100.6236 18.1727l0.3345 42.9954 -6.0606 4.0182 0.4019 -2.0761 3.4156 -2.6119 -0.402 -41.9235 2.3105 -0.4021zm26.8217 1.507l0 0 2.4779 -1.105 -0.0335 43.4637 -5.6587 3.1811 0.9373 -3.1811 2.545 -1.2724 -0.2679 -41.0864zm-62.0483 -0.3351l0 0 2.1428 -0.5355 -0.0331 43.2629 -15.6379 12.5906 -33.2175 0.1675 0.1003 -0.3684 3.6832 -1.7414 28.8643 0.0669 14.1643 -11.9207 -0.0667 -41.5219zm106.6847 9.4431l0 0 4.186 16.0392 -8.9072 0 2.712 -1.9087 3.6491 0.2009 -1.8069 -6.697 0.1671 -7.6344z"/>
   <polygon class="fil3" points="172.0817,29.1559 171.9146,36.4221 170.0725,42.9182 167.494,44.8223 "/>
   <polygon class="fil2" points="86.6934,29.6583 88.9036,30.3949 86.4255,32.7391 82.4074,37.5942 76.2461,37.3931 78.3223,35.853 81.5702,35.8866 "/>
   <path class="fil3" d="M86.4255 32.7391c0.7368,-0.8707 1.6075,-1.6074 2.4782,-2.3441 0,6.0943 0.0335,12.1886 0,18.2828 -0.0337,0.1005 -0.1341,0.2681 -0.1672,0.3685 -0.3016,0.1003 -0.6362,0.2008 -0.9715,0.3011 -0.5692,0.1676 -1.138,0.2679 -1.7078,0.402 -1.5064,-2.2101 -3.047,-4.3865 -4.5537,-6.5966 -1.0046,-0.0336 -1.9755,-0.0336 -2.9803,-0.0336l-0.3684 0c0,5.6256 0.0673,11.2512 0,16.8766 -0.7032,0.5693 -1.4062,1.1052 -2.076,1.6743 -0.0333,-6.8979 -0.0333,-13.7957 -0.0333,-20.6603 2.0424,0.0337 4.085,0.0337 6.1275,0 1.6746,1.6407 2.8128,3.6834 4.2861,5.458 0.0337,-4.5872 0.0674,-9.1748 -0.0336,-13.7287zm-54.9158 7.9361l0 0 4.4871 -1.7751 0.3683 4.0182 -4.1858 1.7079 -0.6696 -3.951z"/>
   <path class="fil2" d="M121.3511 41.4114l3.757 -0.107 -2.1835 2.0495 -6.4962 18.3497 -6.1275 0.0336 2.2769 -1.6408 2.3777 -0.1341 6.3957 -18.5508zm-29.8353 0.3351l0 0 3.7789 -0.0312 -2.1384 1.4374 -6.4628 18.5509 -10.6147 0 0 -0.0335 2.076 -1.6743 7.2996 -0.1002 6.0615 -18.149zm-59.3365 2.8796l0 0 1.7414 -2.6788 2.3104 1.0713 -4.1859 1.8083 0.134 -0.2008z"/>
   <polygon class="fil3" points="166.523,48.3762 176.9701,48.4434 175.263,50.185 168.1305,50.2853 165.25,61.4356 169.9065,65.393 169.336,67.0612 149.5124,67.2625 152.7273,65.0525 166.9248,65.119 163.0735,62.1724 "/>
   <polygon class="fil2" points="176.9701,48.4434 177.0377,48.7115 179.8831,61.9716 176.1354,65.1862 173.1121,65.3198 177.6633,61.3381 175.263,50.185 "/>
   <polygon class="fil3" points="25.0803,50.9548 29.6681,49.3142 29.6681,52.9641 14.0303,71.4814 "/>
   <path class="fil2" d="M27.3575 51.9595l2.3775 1.1385 -15.2793 18.0726 12.9018 -19.2112zm-19.6895 -48.9222l0 0c19.6895,-0.1677 39.446,0.1675 59.1019,-0.2008l-0.268 0.2344c-0.7701,0.7367 -1.4731,1.5738 -2.3103,2.2768 -18.2831,-0.1002 -36.566,-0.0336 -54.8493,-0.0336 -1.9087,5.3577 -3.9848,10.6486 -5.8933,16.0398 -1.0713,1.0377 -2.2772,1.8753 -3.449,2.7455 2.4781,-7.0655 5.2571,-13.9967 7.668,-21.0621z"/>
   <path class="fil3" d="M64.1916 5.3477l2.3103 -2.2768 0.8372 2.1765 -5.6111 8.352 5.7953 5.2606 -2.1264 0.4845 -4.7212 -4.0183 -38.2407 57.394 -3.6832 1.7414 45.4398 -69.1141zm-45.3058 3.8844l0 0 -18.8858 14.8673 1.5068 1.4734 17.9815 -14.4319 26.2191 0.0332 3.6835 -1.6406 -30.5052 -0.3014z"/>
   <path class="fil2" d="M49.6924 9.4331l-45.9087 69.4484 -2.5113 0 44.4349 -67.7073 3.9851 -1.7411zm11.6863 4.6879l0 0c0.3012,-0.4351 0.6364,-0.8707 0.9376,-1.3057 10.8828,0.3683 21.7989,0 32.6816,0.1674 -0.6363,0.5692 -1.2722,1.1383 -1.9085,1.6741 -10.0121,0.0338 -20.0243,-0.0334 -30.0364,0.0338 -0.5692,-0.1677 -1.1385,-0.3685 -1.6742,-0.5696z"/>
   <path class="fil0" d="M112.7669 0.1909c1.9423,0.4691 3.2988,0.1148 5.8106,0.148 0,0.7032 0.1617,1.1699 0.1281,1.8729 -0.7284,-1.5111 -0.5571,-1.5065 -2.0424,-1.5498l-1.5406 0.0337 0 3.0115 1.964 -0.0336 0.8371 -1.4399c-0.212,1.6405 -0.2231,1.6075 0.0669,3.3152l-0.904 -1.373 -1.964 -0.0673 0 3.5184 2.159 -0.0644c1.4319,-0.3936 1.5244,-0.7541 1.9813,-1.9807 0.067,0.7703 0.067,1.5406 0.067,2.3105 -2.1093,-0.2007 -4.4198,-0.2679 -6.6297,0.1004l0.6025 -0.4689 0 -6.8641c-0.134,-0.1007 -0.4019,-0.3683 -0.5359,-0.4691zm16.717 0l0 0c1.9422,0.4691 3.2986,0.1148 5.8093,0.148 0,0.7032 0.1619,1.1699 0.1294,1.8729 -0.7287,-1.5111 -0.5569,-1.5065 -2.0432,-1.5498l-1.5403 0.0337 0 3.0115 1.9643 -0.0336 0.837 -1.4399c-0.212,1.6405 -0.2231,1.6075 0.0672,3.3152l-0.9042 -1.373 -1.9643 -0.0673 0 3.5184 2.1587 -0.0644c1.433,-0.3936 1.5247,-0.7541 1.9818,-1.9807 0.0675,0.7703 0.0675,1.5406 0.0675,2.3105 -2.1099,-0.2007 -4.4204,-0.2679 -6.6303,0.1004l0.6026 -0.4689 0 -6.8641c-0.134,-0.1007 -0.4017,-0.3683 -0.5356,-0.4691z"/>
  </g>
 </g>
</svg>
